<svg width="24" height="24" viewBox="0 0 24 24" fill="none" xmlns="http://www.w3.org/2000/svg">
  <path fill-rule="evenodd" clip-rule="evenodd"
    d="M8.75 1.5V5H15.25V1.5H16.75V5H20V11C20 15.1522 16.8367 18.5655 12.7886 18.9616C13.0081 20.2606 14.1385 21.25 15.5 21.25H19V22.75H15.5C13.3108 22.75 11.5083 21.0948 11.2754 18.9676C7.19669 18.6015 4 15.174 4 11V5H7.25V1.5H8.75ZM18.5 6.5H5.5V11C5.5 14.5899 8.41015 17.5 12 17.5C15.5899 17.5 18.5 14.5899 18.5 11V6.5ZM9.5 12.75V14.25H14.5V12.75H9.5Z"
    fill="#808080" style="fill:#808080;fill:#808080;fill-opacity:1;" />
</svg>
