<svg width="24" height="24" viewBox="0 0 24 24" fill="none" xmlns="http://www.w3.org/2000/svg">
  <path
    d="M5.99993 2.88287C5.99993 2.0059 6.78001 1.5 7.49294 1.5H14.0488C14.4516 1.5 14.8374 1.662 15.1195 1.94953L20.5709 7.50622C20.8458 7.78639 20.9999 8.16314 21.0001 8.55562L21.0069 18.1166C21.0069 18.9936 20.2268 19.5 19.5139 19.5H7.49993C6.78708 19.5 6.00712 18.9942 6.00691 18.1175L5.99993 2.88287ZM7.49998 3L7.50686 18H19.5068L19.5005 9.01913H13.5001V3H7.49998ZM15.0001 3.96967V7.51913H18.4823L15.0001 3.96967Z"
    fill="#366EF4" style="fill:#366EF4;fill:#366EF4;fill-opacity:1;" />
  <path d="M3 7.50002V21.0191C3 21.8476 3.67157 22.5191 4.5 22.5191H16.5V21.0191L4.5 21.0191V7.50002H3Z" fill="#366EF4"
    style="fill:#366EF4;fill:#366EF4;fill-opacity:1;" />
</svg>
