<svg width="24" height="24" viewBox="0 0 24 24" fill="none" xmlns="http://www.w3.org/2000/svg">
  <path
    d="M21.7992 9.14254C22.1683 9.19617 22.3157 9.64976 22.0486 9.9101L17.3519 14.4883L15.7402 13.9646L19.4781 10.321L14.3124 9.57039L12.0022 4.88942L9.69199 9.57039L4.52624 10.321L8.26421 13.9646L7.38179 19.1095L12.0022 16.6804V18.3751L6.19666 21.4272C5.86653 21.6008 5.48068 21.3205 5.54373 20.9529L6.65249 14.4883L1.95572 9.9101C1.68864 9.64976 1.83602 9.19617 2.20512 9.14254L8.69589 8.19938L11.5986 2.31774C11.7637 1.98328 12.2406 1.98328 12.4057 2.31774L15.3085 8.19938L21.7992 9.14254ZM13.1592 20.4189L15.6286 17.9495L13.1591 15.4801L14.2197 14.4194L16.6892 16.8888L19.1589 14.4189L20.2196 15.4796L17.7499 17.9494L20.2197 20.4191L19.1591 21.4798L16.6892 19.0101L14.2199 21.4796L13.1592 20.4189Z"
    fill="#366EF4" style="fill:#366EF4;fill-opacity:1;" />
</svg>
