<svg width="24" height="24" viewBox="0 0 24 24" fill="none" xmlns="http://www.w3.org/2000/svg">
  <path d="M9 18V9H10.5V18H9Z" fill="#366EF4"
    style="fill:#366EF4;fill:#366EF4;fill-opacity:1;" />
  <path d="M13.5 9V18H15V9H13.5Z" fill="#366EF4"
    style="fill:#366EF4;fill:#366EF4;fill-opacity:1;" />
  <path
    d="M15.75 4.5H21V6H19.5V21C19.5 21.8284 18.8284 22.5 18 22.5H6C5.17157 22.5 4.5 21.8284 4.5 21V6H3V4.5H8.25L8.25 2.7C8.25 2.03726 8.78726 1.5 9.45 1.5H14.55C15.2127 1.5 15.75 2.03726 15.75 2.7V4.5ZM9.75 4.5H14.25L14.25 3L9.75 3V4.5ZM6 6V21H18V6H6Z"
    fill="#366EF4" style="fill:#366EF4;fill:#366EF4;fill-opacity:1;" />
</svg>
