<svg width="25" height="25" viewBox="0 0 25 25" fill="none" xmlns="http://www.w3.org/2000/svg">
<g clip-path="url(#clip0_6253_35800)">
<path fill-rule="evenodd" clip-rule="evenodd" d="M17.7966 1.98857C18.1539 1.68697 18.6828 1.70931 19.0134 2.03998L22.2278 5.2543C22.5584 5.58497 22.5808 6.11379 22.2792 6.47116L17.3018 12.3689L16.2373 11.3044L20.7772 5.92509L18.3426 3.49051L11.6431 9.14454L9.936 7.43744L7.6275 9.74594L12.3912 14.5096L11.3071 15.5469L10.5444 14.7842L4.38293 20.9456L3.32227 19.885L9.48375 13.7235L6.14258 10.3823C5.79111 10.0309 5.79111 9.46101 6.14258 9.10954L9.2996 5.95252C9.65107 5.60104 10.2209 5.60104 10.5724 5.95252L11.7291 7.1092L17.7966 1.98857Z" fill="#15181D" style="fill:#15181D;fill:color(display-p3 0.2118 0.4314 0.9569);fill-opacity:1;"/>
<path d="M13.3957 20.4502L15.865 17.9807L13.3955 15.5114L14.4561 14.4507L16.9256 16.9201L19.3954 14.4502L20.4561 15.5108L17.9863 17.9807L20.4561 20.4504L19.3955 21.5111L16.9257 19.0414L14.4564 21.5108L13.3957 20.4502Z" fill="color(display-p3 0.2118 0.4314 0.9569)" style="fill:color(display-p3 0.2118 0.4314 0.9569);fill-opacity:1;"/>
</g>
<defs>
<clipPath id="clip0_6253_35800">
<rect width="24" height="24" fill="white" style="fill:white;fill-opacity:1;" transform="translate(0.236328 0.03125)"/>
</clipPath>
</defs>
</svg>
