<svg width="24" height="24" viewBox="0 0 24 24" fill="none" xmlns="http://www.w3.org/2000/svg">
  <path fill-rule="evenodd" clip-rule="evenodd"
    d="M17.0316 2.99949C18.1393 1.9738 19.8596 2.00688 20.9271 3.07438C21.9946 4.14188 22.0277 5.86216 21.002 6.96991L13.2702 15.3202C13.2672 15.3235 13.2642 15.3268 13.2611 15.3301L12.4654 16.1894C12.441 16.2157 12.417 16.2418 12.3932 16.2675C12.0239 16.667 11.7318 16.9829 11.3996 17.1792C10.939 17.4512 10.4151 17.5711 9.89815 17.5375C10.0629 18.7405 9.68287 20.0037 8.7581 20.9285C7.92705 21.7595 6.77415 22.0194 5.71806 22.1035C5.0027 22.1605 4.21724 22.14 3.51956 22.1218C3.20569 22.1136 2.90959 22.1059 2.64563 22.1059C2.38436 22.1059 2.14193 21.9699 2.00568 21.747C1.86944 21.5241 1.85902 21.2463 1.97819 21.0138C2.334 20.3196 2.30118 19.5075 2.26025 18.4946C2.25863 18.4543 2.25699 18.4137 2.25536 18.3728C2.21794 17.4329 2.16702 16.1494 3.07302 15.2434C3.99779 14.3186 5.26101 13.9386 6.46395 14.1033C6.43039 13.5864 6.5503 13.0625 6.82231 12.6019C7.01852 12.2697 7.33452 11.9775 7.73402 11.6082C7.75971 11.5845 7.78573 11.5604 7.8121 11.536L17.0316 2.99949ZM12.6942 13.7345L19.9013 5.95079C20.3794 5.43446 20.364 4.63261 19.8664 4.13504C19.3689 3.63746 18.567 3.62204 18.0507 4.10013L10.267 11.3073L12.6942 13.7345ZM9.1655 12.3271L11.6743 14.836L11.3648 15.1703C10.8867 15.6867 10.7537 15.8186 10.6368 15.8876C10.2991 16.087 9.88167 16.095 9.53659 15.9087C9.41713 15.8443 9.27918 15.7176 8.78155 15.2199C8.28392 14.7223 8.15721 14.5843 8.09272 14.4649C7.90642 14.1198 7.91445 13.7024 8.11387 13.3647C8.18291 13.2478 8.31482 13.1148 8.83121 12.6367L9.1655 12.3271ZM7.69744 16.3041C6.71333 15.32 5.11779 15.32 4.13368 16.3041C3.7627 16.675 3.71178 17.2484 3.75417 18.3131C3.75696 18.3832 3.76015 18.4553 3.76343 18.5293C3.7906 19.1425 3.82339 19.8829 3.67725 20.6244C4.32738 20.642 4.96331 20.6589 5.599 20.6083C6.54759 20.5327 7.25149 20.3138 7.69744 19.8678C8.68154 18.8837 8.68154 17.2882 7.69744 16.3041Z"
    fill="#366EF4" style="fill:#366EF4;fill-opacity:1;" />
</svg>
