<svg width="24" height="24" viewBox="0 0 24 24" fill="none" xmlns="http://www.w3.org/2000/svg">
  <path fill-rule="evenodd" clip-rule="evenodd"
    d="M15.75 4.5H21V6H19.5V21C19.5 21.8284 18.8284 22.5 18 22.5H6C5.17157 22.5 4.5 21.8284 4.5 21V6H3V4.5H8.25L8.25 2.7C8.25 2.03726 8.78726 1.5 9.45 1.5H14.55C15.2127 1.5 15.75 2.03726 15.75 2.7V4.5ZM9.75 4.5H14.25L14.25 3L9.75 3V4.5ZM6 6V21H18V6H6ZM10.9393 13.5L7.96973 10.5304L9.03039 9.46973L12 12.4393L14.9696 9.46973L16.0303 10.5304L13.0607 13.5L16.0304 16.4697L14.9697 17.5304L12 14.5607L9.03027 17.5304L7.96961 16.4697L10.9393 13.5Z"
    fill="#FF0000" style="fill:#FF0000;fill-opacity:1;" />
</svg>
