<svg width="24" height="24" viewBox="0 0 24 24" fill="none" xmlns="http://www.w3.org/2000/svg">
  <path fill-rule="evenodd" clip-rule="evenodd"
    d="M7.28357 1.9834C7.33765 1.9834 7.3904 1.98912 7.44124 2H11.8423C11.8932 1.98912 11.9459 1.9834 12 1.9834C12.0541 1.9834 12.1068 1.98912 12.1577 2H16.5025C16.5533 1.98912 16.6061 1.9834 16.6602 1.9834C16.7142 1.9834 16.767 1.98912 16.8178 2H20.8889C21.5025 2 22 2.49746 22 3.11111V20.8889C22 21.5025 21.5025 22 20.8889 22H3.11111C2.49746 22 2 21.5025 2 20.8889V3.11111C2 2.49746 2.49746 2 3.11111 2H7.1259C7.17674 1.98912 7.22948 1.9834 7.28357 1.9834ZM15.9102 3.5H12.75V6.67139H15.9102V3.5ZM17.4102 6.67139V3.5H20.5V6.67139H17.4102ZM11.25 3.5H8.03357V6.67139H11.25V3.5ZM3.5 3.5H6.53357V6.67139H3.5V3.5ZM3.5 16.0483V8.17139H11.25V16.0483H7.28357H3.5ZM12.75 16.0483V8.17139H20.5V16.0483H16.6602H12.75ZM12.75 17.6608V17.5483H15.9102V20.5H12.7361C12.7452 20.4532 12.75 20.4048 12.75 20.3553V17.6608ZM11.25 17.5483V17.6608V20.3553C11.25 20.4048 11.2548 20.4532 11.2639 20.5H8.03357V17.5483H11.25ZM17.4102 20.5V17.5483H20.5V20.5H17.4102ZM6.53357 17.5483H3.5V20.5H6.53357V17.5483Z"
    fill="#366EF4" style="fill:#366EF4;fill:#366EF4;fill-opacity:1;" />
</svg>
