<svg width="24" height="24" viewBox="0 0 24 24" fill="none" xmlns="http://www.w3.org/2000/svg">
  <path
    d="M4.5 1.25C3.5335 1.25 2.75 2.0335 2.75 3V21C2.75 21.9665 3.5335 22.75 4.5 22.75H12C12.4142 22.75 12.75 22.4142 12.75 22C12.75 21.5858 12.4142 21.25 12 21.25H4.5C4.36193 21.25 4.25 21.1381 4.25 21V3C4.25 2.86193 4.36193 2.75 4.5 2.75H19.5C19.6381 2.75 19.75 2.86193 19.75 3V11C19.75 11.4142 20.0858 11.75 20.5 11.75C20.9142 11.75 21.25 11.4142 21.25 11V3C21.25 2.0335 20.4665 1.25 19.5 1.25H4.5ZM14 15.75H22V14.25H14V15.75ZM22 18.875H14V17.375H22V18.875ZM14 22H22V20.5H14V22Z"
    fill="#366EF4" style="fill:#366EF4;fill-opacity:1;" />
</svg>
