<svg width="24" height="24" viewBox="0 0 24 24" fill="none" xmlns="http://www.w3.org/2000/svg">
  <path fill-rule="evenodd" clip-rule="evenodd"
    d="M4.5 4.5L19.5 4.5V12L21 12V4.5C21 3.67158 20.3284 3 19.5 3H4.5C3.67158 3 3 3.67157 3 4.5V19.5C3 20.3284 3.67157 21 4.5 21L12 21V19.5L4.5 19.5L4.5 4.5ZM11.25 6.75L11.25 18H12.75L12.75 6.75H11.25ZM6.75 18L6.75002 11.2499L8.25002 11.2499L8.25 18H6.75ZM18.0474 12.9111L21.9344 15.1553V19.6436L18.0474 21.8878L14.1604 19.6436V15.1553L18.0474 12.9111ZM15.6604 16.0212L18.0474 14.6431L20.4344 16.0212V18.7775L18.0474 20.1556L15.6604 18.7775V16.0212Z"
    fill="#366EF4" style="fill:#366EF4;fill-opacity:1;" />
</svg>
