<svg width="24" height="24" viewBox="0 0 24 24" fill="none" xmlns="http://www.w3.org/2000/svg">
  <path
    d="M7.64282 4.61134C7.49042 4.82783 7.40476 5.0893 7.40476 5.36295V9.18472C7.40476 9.65036 7.65277 10.0807 8.05564 10.3142L11.3454 12.2208C11.5842 12.3592 11.8558 12.4159 12.1216 12.3911C12.3065 12.3739 12.4885 12.3171 12.6546 12.2208L15.9444 10.3142C16.3473 10.0807 16.5953 9.65036 16.5953 9.18472V5.36295C16.5953 4.89731 16.3473 4.46693 15.9444 4.23345L12.6546 2.32685C12.2498 2.09222 11.7503 2.09222 11.3454 2.32685L8.05564 4.23344C7.88953 4.32971 7.74975 4.45946 7.64282 4.61134ZM2.65088 19.7666L5.94068 21.6732C6.34554 21.9078 6.84502 21.9078 7.24988 21.6732L10.5397 19.7666C10.9425 19.5331 11.1906 19.1027 11.1906 18.6371V14.8153C11.1906 14.3497 10.9425 13.9193 10.5397 13.6858L7.24988 11.7792C6.84502 11.5446 6.34554 11.5446 5.94068 11.7792L2.65088 13.6858C2.24801 13.9193 2 14.3497 2 14.8153V18.6371C2 19.1027 2.24801 19.5331 2.65088 19.7666ZM12 10.8665L8.90476 9.07263V5.47504L12 3.68119L15.0953 5.47504V9.07263L12 10.8665ZM9.69056 18.525L6.59528 20.3188L3.5 18.525V14.9274L6.59528 13.1335L9.69056 14.9274V18.525Z"
    fill="#366EF4" style="fill:#366EF4;fill:#366EF4;fill-opacity:1;" />
  <path fill-rule="evenodd" clip-rule="evenodd"
    d="M13.5015 13.0151H19.9279V14.5151H16.092L21.6181 19.9156L20.5697 20.9884L15.0015 15.5468V19.3829H13.5015V13.0151Z"
    fill="#366EF4" style="fill:#366EF4;fill:#366EF4;fill-opacity:1;" />
</svg>
