<svg width="24" height="24" viewBox="0 0 24 24" fill="none" xmlns="http://www.w3.org/2000/svg">
  <path
    d="M11.1926 2.01968C10.5335 1.68724 9.78863 1.5 9.00005 1.5C6.30765 1.5 4.12504 3.68261 4.12504 6.375C4.12504 9.0442 6.27022 11.2124 8.9306 11.2495V9.7493C7.09869 9.71232 5.62504 8.21575 5.62504 6.375C5.62504 4.51104 7.13608 3 9.00005 3C9.44056 3 9.86135 3.08439 10.2472 3.2379L11.1926 2.01968Z"
    fill="#366EF4" style="fill:#366EF4;fill-opacity:1;" />
  <path
    d="M8.9306 12.3314C6.02884 12.3417 3.28376 12.9963 0.811394 14.1539C0.306805 14.3902 0 14.9058 0 15.463V18.75C0 19.1642 0.335786 19.5 0.749999 19.5H4.28563V18H1.5V15.4879C3.76607 14.4357 6.27631 13.8416 8.9306 13.8314V12.3314Z"
    fill="#366EF4" style="fill:#366EF4;fill-opacity:1;" />
  <path
    d="M19.8749 7.59531C19.8749 10.2877 17.6923 12.4703 14.9999 12.4703C12.3075 12.4703 10.1249 10.2877 10.1249 7.59531C10.1249 4.90292 12.3075 2.72031 14.9999 2.72031C17.6923 2.72031 19.8749 4.90292 19.8749 7.59531ZM18.3749 7.59531C18.3749 5.73135 16.8638 4.22031 14.9999 4.22031C13.1359 4.22031 11.6249 5.73135 11.6249 7.59531C11.6249 9.45927 13.1359 10.9703 14.9999 10.9703C16.8638 10.9703 18.3749 9.45927 18.3749 7.59531Z"
    fill="#366EF4" style="fill:#366EF4;fill-opacity:1;" />
  <path
    d="M7.5 17.3016C9.78581 16.2403 12.3201 15.645 15 15.645V14.145C12.0726 14.145 9.30347 14.8008 6.81139 15.9676C6.3068 16.2039 6 16.7195 6 17.2767V20.9999C6 21.4142 6.33579 21.7499 6.75 21.7499H15V20.2499H7.5V17.3016Z"
    fill="#366EF4" style="fill:#366EF4;fill-opacity:1;" />
  <path d="M22 16H18V20" stroke="#366EF4" style="stroke:#366EF4;stroke-opacity:1;" stroke-width="1.5" />
  <path d="M18 16L23 21" stroke="#366EF4" style="stroke:#366EF4;stroke-opacity:1;" stroke-width="1.5" />
</svg>
