<svg width="24" height="24" viewBox="0 0 24 24" fill="none" xmlns="http://www.w3.org/2000/svg">
  <path fill-rule="evenodd" clip-rule="evenodd"
    d="M1.24707 2.52979C1.24707 2.11557 1.58286 1.77979 1.99707 1.77979H21.9971C22.4113 1.77979 22.7471 2.11557 22.7471 2.52979V10.5298C22.7471 10.944 22.4113 11.2798 21.9971 11.2798H1.99707C1.58286 11.2798 1.24707 10.944 1.24707 10.5298V2.52979ZM2.74707 3.27979V9.77979H21.2471V3.27979H2.74707ZM12.2471 5.7793H19.7471V7.2793H12.2471V5.7793ZM8.74707 8.27979L8.74707 4.77979H7.24707L7.24707 8.27979H8.74707ZM5.74707 4.77979L5.74707 8.27979H4.24707L4.24707 4.77979H5.74707ZM1.99707 12.25C1.58286 12.25 1.24707 12.5858 1.24707 13V21C1.24707 21.4142 1.58286 21.75 1.99707 21.75H15.25V20.25H2.74707V13.75H15.25V12.25H1.99707ZM8.74707 15.25L8.74707 18.75H7.24707L7.24707 15.25H8.74707ZM5.74707 18.75L5.74707 15.25H4.24707L4.24707 18.75H5.74707ZM17.25 15.25H18H22V16.75H19.8107L23.5303 20.4697L22.4697 21.5303L18.75 17.8107V20H17.25V16V15.25Z"
    fill="#366EF4" style="fill:#366EF4;fill-opacity:1;" />
</svg>
