<svg width="24" height="24" viewBox="0 0 24 24" fill="none" xmlns="http://www.w3.org/2000/svg">
<path fill-rule="evenodd" clip-rule="evenodd" d="M8.66565 3.75C8.66565 3.33579 9.00144 3 9.41565 3H13.9156C14.3299 3 14.6656 3.33579 14.6656 3.75V8.25C14.6656 8.66421 14.3299 9 13.9156 9H12.4156V12H16.2906V13.5H6.41565V15H7.91565C8.32986 15 8.66565 15.3358 8.66565 15.75V20.25C8.66565 20.6642 8.32986 21 7.91565 21H3.41565C3.00144 21 2.66565 20.6642 2.66565 20.25V15.75C2.66565 15.3358 3.00144 15 3.41565 15H4.91565V13.5C4.91565 12.6716 5.58722 12 6.41565 12H10.9156V9H9.41565C9.00144 9 8.66565 8.66421 8.66565 8.25V3.75ZM10.1656 7.5H13.1656V4.5H10.1656V7.5ZM4.16565 16.5V19.5H7.16565V16.5H4.16565Z" fill="#366EF4" style="fill:#366EF4;fill:#366EF4;fill-opacity:1;"/>
<path d="M16.2906 14.1865H17.0406H21.0406V15.6865H18.8513L22.571 19.4062L21.5103 20.4669L17.7906 16.7472V18.9365H16.2906V14.9365V14.1865Z" fill="#366EF4" style="fill:#366EF4;fill-opacity:1;"/>
</svg>