<svg width="24" height="24" viewBox="0 0 24 24" fill="none" xmlns="http://www.w3.org/2000/svg">
  <path
    d="M10 10.75C12.8995 10.75 15.25 8.3995 15.25 5.5C15.25 2.6005 12.8995 0.25 10 0.25C7.1005 0.25 4.75 2.6005 4.75 5.5C4.75 8.3995 7.1005 10.75 10 10.75ZM10 9.25C7.92893 9.25 6.25 7.57107 6.25 5.5C6.25 3.42893 7.92893 1.75 10 1.75C12.0711 1.75 13.75 3.42893 13.75 5.5C13.75 7.57107 12.0711 9.25 10 9.25Z"
    fill="#366EF4" style="fill:#366EF4;fill-opacity:1;" />
  <path
    d="M15.25 14.4796C13.5796 14.0046 11.8205 13.75 10 13.75C7.05011 13.75 4.26152 14.4186 1.75 15.6097V18.25H12.25V19.75H1C0.585788 19.75 0.25 19.4142 0.25 19V15.5869C0.25 15.032 0.554524 14.5183 1.0553 14.2792C3.7741 12.9806 6.79976 12.25 10 12.25C11.8141 12.25 13.5722 12.4848 15.25 12.9247V14.4796Z"
    fill="#366EF4" style="fill:#366EF4;fill-opacity:1;" />
<path d="M22 15H18V19" stroke="#366EF4" style="stroke:#366EF4;stroke-opacity:1;" stroke-width="1.5" />
  <path d="M18 15L23 20" stroke="#366EF4" style="stroke:#366EF4;stroke-opacity:1;" stroke-width="1.5" />
</svg>
