<svg width="24" height="24" viewBox="0 0 24 24" fill="none" xmlns="http://www.w3.org/2000/svg">
  <path
    d="M12.4527 15.5446L9.31741 20.238L9.28956 20.2194C8.64767 21.0013 7.67359 21.5001 6.58301 21.5001C4.65001 21.5001 3.08301 19.9331 3.08301 18.0001C3.08301 16.0671 4.65001 14.5001 6.58301 14.5001C8.07212 14.5001 9.34403 15.4301 9.84966 16.7409L11.5507 14.1945L4.63768 3.84592L5.88497 3.0127L12.4527 12.8443L19.0204 3.0127L20.2677 3.84592L13.3547 14.1945L15.0557 16.7409C15.5614 15.4301 16.8333 14.5001 18.3224 14.5001C20.2554 14.5001 21.8224 16.0671 21.8224 18.0001C21.8224 19.9331 20.2554 21.5001 18.3224 21.5001C17.2318 21.5001 16.2577 21.0013 15.6158 20.2194L15.588 20.238L12.4527 15.5446ZM6.58301 20.0001C7.68758 20.0001 8.58301 19.1047 8.58301 18.0001C8.58301 16.8955 7.68758 16.0001 6.58301 16.0001C5.47844 16.0001 4.58301 16.8955 4.58301 18.0001C4.58301 19.1047 5.47844 20.0001 6.58301 20.0001ZM18.3224 20.0001C19.427 20.0001 20.3224 19.1047 20.3224 18.0001C20.3224 16.8955 19.427 16.0001 18.3224 16.0001C17.2178 16.0001 16.3224 16.8955 16.3224 18.0001C16.3224 19.1047 17.2178 20.0001 18.3224 20.0001Z"
    fill="#366EF4" style="fill:#366EF4;fill:#366EF4;fill-opacity:1;" />
</svg>
