<svg width="24" height="24" viewBox="0 0 24 24" fill="none" xmlns="http://www.w3.org/2000/svg">
  <path
    d="M11.6474 1.42992C11.88 1.38208 12.1199 1.38208 12.3525 1.42992C12.6196 1.48485 12.86 1.61912 13.085 1.74478C13.1038 1.75532 13.1226 1.76579 13.1412 1.77615L20.5412 5.88726C20.561 5.89823 20.5809 5.90922 20.6009 5.92028C20.8388 6.05171 21.0929 6.19208 21.2869 6.40257C21.4557 6.58578 21.5835 6.80292 21.6616 7.03948C21.7514 7.31126 21.7507 7.60154 21.7501 7.87336C21.75 7.89622 21.75 7.91895 21.75 7.94153V16.0586C21.75 16.0812 21.75 16.1039 21.7501 16.1268C21.7507 16.3986 21.7514 16.6889 21.6616 16.9607C21.5835 17.1972 21.4557 17.4144 21.2869 17.5976C21.0929 17.8081 20.8388 17.9485 20.6009 18.0799C20.5809 18.091 20.561 18.1019 20.5412 18.1129L13.1412 22.224C13.1226 22.2344 13.1038 22.2449 13.085 22.2554C12.86 22.3811 12.6196 22.5153 12.3525 22.5702C12.1199 22.6181 11.88 22.6181 11.6474 22.5702C11.3804 22.5153 11.14 22.381 10.915 22.2554C10.8961 22.2448 10.8774 22.2344 10.8587 22.224L3.45872 18.1129C3.43898 18.1019 3.41908 18.091 3.39907 18.0799C3.16114 17.9485 2.90706 17.8081 2.71308 17.5976C2.54425 17.4144 2.41648 17.1973 2.33832 16.9607C2.24853 16.6889 2.24922 16.3986 2.24987 16.1268C2.24992 16.104 2.24998 16.0812 2.24998 16.0586V7.94153C2.24998 7.91895 2.24992 7.89622 2.24987 7.87335C2.24922 7.60154 2.24853 7.31126 2.33832 7.03948C2.41648 6.80292 2.54425 6.58578 2.71308 6.40257C2.90705 6.19208 3.16114 6.05172 3.39906 5.92028C3.41908 5.90922 3.43897 5.89823 3.45871 5.88726L10.8587 1.77615C10.8774 1.76579 10.8961 1.75532 10.915 1.74479C11.14 1.61912 11.3804 1.48485 11.6474 1.42992ZM11.8866 2.92619C11.8209 2.95787 11.7363 3.00455 11.5872 3.08739L4.54433 7.00008L11.9999 11.1421L19.4556 7.00006L12.4128 3.08738C12.2637 3.00455 12.1791 2.95787 12.1134 2.92619C12.0728 2.90662 12.0548 2.90052 12.05 2.89909M20.25 8.27467L12.7499 12.4414L12.75 20.7255L19.8128 16.8017C19.9702 16.7142 20.0595 16.6642 20.1246 16.6228C20.1647 16.5972 20.1802 16.5843 20.1842 16.5807C20.208 16.5548 20.2261 16.524 20.2372 16.4906C20.2384 16.4854 20.2422 16.4656 20.245 16.4181C20.2497 16.3411 20.25 16.2387 20.25 16.0586V8.27467ZM11.2499 12.4414L3.74998 8.27471V16.0586C3.74998 16.2387 3.75029 16.3411 3.75493 16.4181C3.75779 16.4656 3.76154 16.4854 3.76275 16.4906C3.77388 16.524 3.79196 16.5548 3.8158 16.5807C3.81976 16.5843 3.83521 16.5972 3.87535 16.6228C3.94045 16.6642 4.02977 16.7142 4.18718 16.8017L11.25 20.7254L11.2499 12.4414ZM3.8147 16.5797C3.81473 16.5797 3.81512 16.58 3.81576 16.5807C3.81499 16.58 3.81467 16.5797 3.8147 16.5797ZM3.76315 7.50811C3.76316 7.50814 3.76304 7.50866 3.76276 7.50954L3.76315 7.50811ZM11.8866 2.92619C11.9272 2.90662 11.9451 2.90052 11.95 2.89909L11.8866 2.92619ZM11.9514 2.89873C11.9513 2.89876 11.9509 2.8989 11.95 2.89909L11.9514 2.89873Z"
    fill="#366EF4" style="fill:#366EF4;fill:#366EF4;fill-opacity:1;" />
</svg>
