<svg width="24" height="24" viewBox="0 0 24 24" fill="none" xmlns="http://www.w3.org/2000/svg">
  <path d="M19.8523 19.125V21.75H21.3523V19.125H23.9773V17.625H21.3523V15H19.8523V17.625H17.2273V19.125H19.8523Z"
    fill="#366EF4" style="fill:#366EF4;fill:#366EF4;fill-opacity:1;" />
  <path
    d="M11.1926 2.01968C10.5335 1.68724 9.78863 1.5 9.00005 1.5C6.30765 1.5 4.12504 3.68261 4.12504 6.375C4.12504 9.0442 6.27022 11.2124 8.9306 11.2495V9.7493C7.09869 9.71232 5.62504 8.21575 5.62504 6.375C5.62504 4.51104 7.13608 3 9.00005 3C9.44056 3 9.86135 3.08439 10.2472 3.2379L11.1926 2.01968Z"
    fill="#366EF4" style="fill:#366EF4;fill:#366EF4;fill-opacity:1;" />
  <path
    d="M8.9306 12.3314C6.02884 12.3417 3.28376 12.9963 0.811394 14.1539C0.306805 14.3902 0 14.9058 0 15.463V18.75C0 19.1642 0.335786 19.5 0.749999 19.5H4.28563V18H1.5V15.4879C3.76607 14.4357 6.27631 13.8416 8.9306 13.8314V12.3314Z"
    fill="#366EF4" style="fill:#366EF4;fill:#366EF4;fill-opacity:1;" />
  <path
    d="M19.8749 7.59531C19.8749 10.2877 17.6923 12.4703 14.9999 12.4703C12.3075 12.4703 10.1249 10.2877 10.1249 7.59531C10.1249 4.90292 12.3075 2.72031 14.9999 2.72031C17.6923 2.72031 19.8749 4.90292 19.8749 7.59531ZM18.3749 7.59531C18.3749 5.73135 16.8638 4.22031 14.9999 4.22031C13.1359 4.22031 11.6249 5.73135 11.6249 7.59531C11.6249 9.45927 13.1359 10.9703 14.9999 10.9703C16.8638 10.9703 18.3749 9.45927 18.3749 7.59531Z"
    fill="#366EF4" style="fill:#366EF4;fill:#366EF4;fill-opacity:1;" />
  <path
    d="M18 15.8982C17.025 15.7318 16.0231 15.6451 15 15.6451C12.32 15.6451 9.78576 16.2403 7.49994 17.3016V20.25H18V21.75H6.74994C6.33573 21.75 5.99994 21.4142 5.99994 21V17.2767C5.99994 16.7196 6.30675 16.2039 6.81134 15.9677C9.30341 14.8008 12.0726 14.1451 15 14.1451C16.0209 14.1451 17.0226 14.2248 18 14.3782V15.8982Z"
    fill="#366EF4" style="fill:#366EF4;fill:#366EF4;fill-opacity:1;" />
</svg>
