<svg width="24" height="24" viewBox="0 0 24 24" fill="none" xmlns="http://www.w3.org/2000/svg">
  <path
    d="M10.75 3C10.75 2.86193 10.8619 2.75 11 2.75H19C19.1381 2.75 19.25 2.86193 19.25 3V11.5H20.75V3C20.75 2.0335 19.9665 1.25 19 1.25H11C10.0335 1.25 9.24998 2.0335 9.24998 3V10.2677C9.16833 10.256 9.08487 10.25 8.99998 10.25H4.99998C4.03349 10.25 3.24998 11.0335 3.24998 12V20C3.24998 20.0849 3.25603 20.1683 3.26771 20.25H1.5V21.75H4.99998H8.99998H11H15H16.5V20.25H15H11C10.8619 20.25 10.75 20.1381 10.75 20V12V3ZM9.24998 12V20C9.24998 20.1381 9.13806 20.25 8.99998 20.25H4.99998C4.86191 20.25 4.74998 20.1381 4.74998 20V12C4.74998 11.8619 4.86191 11.75 4.99998 11.75H8.99998C9.13806 11.75 9.24998 11.8619 9.24998 12ZM9 17.25H5.25V15.75H9V17.25ZM12 12.75H18V11.25H12V12.75ZM18 8.25H12V6.75H18V8.25ZM18.375 21.75V18.375H15V16.875H18.375V13.5H19.875V16.875H23.25V18.375H19.875V21.75H18.375Z"
    fill="#366EF4" style="fill:#366EF4;fill:#366EF4;fill-opacity:1;" />
</svg>
