<svg width="24" height="24" viewBox="0 0 24 24" fill="none" xmlns="http://www.w3.org/2000/svg">
  <path
    d="M10.25 3.50195V9.50195C10.25 9.7634 10.3862 10.006 10.6093 10.1422C10.8325 10.2784 11.1105 10.2885 11.343 10.1689L13.5 9.05961L15.657 10.1689C15.8895 10.2885 16.1675 10.2784 16.3907 10.1422C16.6139 10.006 16.75 9.7634 16.75 9.50195V3.50195H19.5V15.252H6.49998C5.74573 15.252 5.05148 15.5089 4.5 15.94V5.00195C4.5 4.17353 5.17157 3.50195 6 3.50195H10.25ZM11.75 3.50195H15.25V8.27287L13.843 7.54927C13.6278 7.43856 13.3723 7.43856 13.157 7.54927L11.75 8.27287V3.50195ZM6 2.00195C4.34315 2.00195 3 3.3451 3 5.00195V19.002C3 20.6588 4.34315 22.002 6 22.002H21V2.00195H6ZM6.49998 16.752H19.25V20.252H6.49998C5.53349 20.252 4.74998 19.4685 4.74998 18.502C4.74998 17.5355 5.53349 16.752 6.49998 16.752Z"
    fill="#366EF4" style="fill:#366EF4;fill:#366EF4;fill-opacity:1;" />
</svg>
