<svg width="24" height="24" viewBox="0 0 24 24" fill="none" xmlns="http://www.w3.org/2000/svg">
  <path
    d="M9 3.75C9 3.33579 9.33579 3 9.75 3H14.25C14.6642 3 15 3.33579 15 3.75V8.25C15 8.66421 14.6642 9 14.25 9H12.75V12H17.25C18.0784 12 18.75 12.6716 18.75 13.5V15H20.25C20.6642 15 21 15.3358 21 15.75V20.25C21 20.6642 20.6642 21 20.25 21H15.75C15.3358 21 15 20.6642 15 20.25V15.75C15 15.3358 15.3358 15 15.75 15H17.25V13.5H6.75V15H8.25C8.66421 15 9 15.3358 9 15.75V20.25C9 20.6642 8.66421 21 8.25 21H3.75C3.33579 21 3 20.6642 3 20.25V15.75C3 15.3358 3.33579 15 3.75 15H5.25V13.5C5.25 12.6716 5.92157 12 6.75 12H11.25V9H9.75C9.33579 9 9 8.66421 9 8.25V3.75ZM10.5 7.5H13.5V4.5H10.5V7.5ZM4.5 16.5V19.5H7.5V16.5H4.5ZM16.5 16.5V19.5H19.5V16.5H16.5Z"
    fill="#366EF4" style="fill:#366EF4;fill:#366EF4;fill-opacity:1;" />
</svg>
