<svg width="24" height="24" viewBox="0 0 24 24" fill="none" xmlns="http://www.w3.org/2000/svg">
  <path
    d="M19.4571 4.54286V7.37143H4.54286V4.54286H19.4571ZM3 7.37143V8.91429V13.8V15.3429V19.4571V21H4.54286H19.4571H21V19.4571V15.3429V13.8V8.91429V7.37143V4.54286V3H19.4571H4.54286H3V4.54286V7.37143ZM19.4571 13.8H16.6286V8.91429H19.4571V13.8ZM15.0857 13.8H8.91429V8.91429H15.0857V13.8ZM7.37143 13.8H4.54286V8.91429H7.37143V13.8ZM7.37143 15.3429L7.37143 19.4571H4.54286V15.3429H7.37143ZM8.91428 19.4571V15.3429H15.0857V19.4571H8.91428ZM19.4571 19.4571H16.6286V15.3429H19.4571V19.4571Z"
    fill="#366EF4" style="fill:#366EF4;fill:#366EF4;fill-opacity:1;" />
</svg>
