<svg width="24" height="24" viewBox="0 0 24 24" fill="none" xmlns="http://www.w3.org/2000/svg">
  <path
    d="M18.5545 18.5526C18.4323 18.6748 18.1848 18.8197 17.6622 18.8327C17.1289 18.8459 16.4082 18.7138 15.5299 18.376C14.8329 18.1079 14.0792 17.7266 13.299 17.2394C14.0023 16.6854 14.7029 16.0644 15.3846 15.3828C16.0663 14.701 16.6873 14.0004 17.2414 13.297C17.7286 14.0772 18.1099 14.8309 18.378 15.5279C18.7158 16.4062 18.8478 17.1269 18.8346 17.6602C18.8217 18.1828 18.6767 18.4304 18.5545 18.5526ZM17.2414 10.6992C16.6873 9.99572 16.0662 9.29503 15.3844 8.61323C14.7028 7.9316 14.0023 7.31068 13.2989 6.75667C14.0792 6.2694 14.833 5.88807 15.53 5.61998C16.4083 5.28217 17.129 5.15009 17.6623 5.1633C18.1849 5.17624 18.4325 5.32121 18.5547 5.44341C18.6769 5.56561 18.8219 5.81318 18.8348 6.33578C18.848 6.86905 18.7159 7.58978 18.3781 8.46806C18.11 9.16513 17.7287 9.91891 17.2414 10.6992ZM18.1873 11.9981C20.3245 8.80686 20.9951 5.76247 19.6153 4.38275C18.2356 3.00305 15.1913 3.67362 12.0001 5.8107C8.80873 3.67338 5.76417 3.00269 4.38441 4.38245C3.00465 5.76221 3.67533 8.80676 5.81263 11.9981C3.67546 15.1894 3.00484 18.2338 4.38457 19.6135C5.76431 20.9933 8.80879 20.3226 12.0001 18.1854C15.1912 20.3224 18.2355 20.9929 19.6152 19.6132C20.9949 18.2336 20.3243 15.1893 18.1873 11.9981ZM12.0001 16.3463C11.2256 15.7647 10.4417 15.0877 9.67584 14.3218C8.91011 13.5561 8.23321 12.7724 7.65176 11.9981C8.23325 11.2237 8.9102 10.44 9.676 9.67418C10.4419 8.90833 11.2257 8.23134 12.0001 7.64982C12.7744 8.23127 13.558 8.90816 14.3238 9.67389C15.0897 10.4398 15.7667 11.2236 16.3482 11.9981C15.7667 12.7725 15.0897 13.5563 14.3239 14.3221C13.5581 15.0879 12.7744 15.7648 12.0001 16.3463ZM6.75859 13.2969C7.31262 14.0003 7.93354 14.7008 8.61518 15.3825C9.29699 16.0643 9.9977 16.6853 10.7012 17.2395C9.92084 17.7268 9.167 18.1082 8.46988 18.3763C7.59159 18.7141 6.87087 18.8462 6.3376 18.833C5.815 18.82 5.56743 18.6751 5.44523 18.5529C5.32303 18.4307 5.17806 18.1831 5.16512 17.6605C5.15191 17.1272 5.28399 16.4065 5.6218 15.5282C5.88991 14.8311 6.27128 14.0773 6.75859 13.2969ZM6.75857 10.6993C6.27119 9.91883 5.88978 9.16493 5.62164 8.46777C5.28383 7.58948 5.15175 6.86876 5.16496 6.33549C5.1779 5.81289 5.32287 5.56531 5.44507 5.44311C5.56727 5.32092 5.81484 5.17594 6.33744 5.163C6.87071 5.1498 7.59143 5.28188 8.46972 5.61968C9.16689 5.88783 9.9208 6.26924 10.7012 6.75663C9.99777 7.31073 9.29711 7.93176 8.61534 8.61352C7.93363 9.29524 7.31264 9.99584 6.75857 10.6993Z"
    fill="#366EF4" style="fill:#366EF4;fill:#366EF4;fill-opacity:1;" />
</svg>
