<svg width="24" height="24" viewBox="0 0 24 24" fill="none" xmlns="http://www.w3.org/2000/svg">
  <path
    d="M4.5 4.5H9.5V9.5H4.5V4.5ZM3.5 3C3.22386 3 3 3.22386 3 3.5V10.5C3 10.7761 3.22386 11 3.5 11H10.5C10.7761 11 11 10.7761 11 10.5V3.5C11 3.22386 10.7761 3 10.5 3H3.5ZM4.52573 14.5H9.52573V19.5H4.52573V14.5ZM3.52573 13C3.24958 13 3.02573 13.2239 3.02573 13.5V20.5C3.02573 20.7761 3.24958 21 3.52573 21H10.5257C10.8019 21 11.0257 20.7761 11.0257 20.5V13.5C11.0257 13.2239 10.8019 13 10.5257 13H3.52573ZM14.5257 9.5H19.5257V4.5H14.5257V9.5ZM13.0257 3.5C13.0257 3.22386 13.2496 3 13.5257 3H20.5257C20.8019 3 21.0257 3.22386 21.0257 3.5V10.5C21.0257 10.7761 20.8019 11 20.5257 11H13.5257C13.2496 11 13.0257 10.7761 13.0257 10.5V3.5ZM17.0257 19.5C15.645 19.5 14.5257 18.3807 14.5257 17C14.5257 15.6193 15.645 14.5 17.0257 14.5C18.4064 14.5 19.5257 15.6193 19.5257 17C19.5257 18.3807 18.4064 19.5 17.0257 19.5ZM20.3346 19.2482C20.7708 18.6075 21.0257 17.8335 21.0257 17C21.0257 14.7909 19.2349 13 17.0257 13C14.8166 13 13.0257 14.7909 13.0257 17C13.0257 19.2091 14.8166 21 17.0257 21C17.8593 21 18.6332 20.7451 19.2739 20.3089L20.4954 21.5303L21.5561 20.4697L20.3346 19.2482Z"
    fill="#366EF4" style="fill:#366EF4;fill:#366EF4;fill-opacity:1;" />
</svg>
