<svg width="24" height="24" viewBox="0 0 24 24" fill="none" xmlns="http://www.w3.org/2000/svg">
  <path
    d="M3.75 3.75C2.92157 3.75 2.25 4.42157 2.25 5.25V19.5C2.25 20.3284 2.92157 21 3.75 21H20.25C21.0784 21 21.75 20.3284 21.75 19.5V7.5C21.75 6.67157 21.0784 6 20.25 6H11.493L8.58274 3.89254L8.38589 3.75H8.14286H3.75ZM3.75 5.25L7.89982 5.25L10.8101 7.35746L11.007 7.5H11.25H20.25V19.5H3.75V5.25ZM16.8107 13.5001L13.2803 9.96973L12.2197 11.0304L13.9393 12.7501H7.5V14.2501H13.9393L12.2197 15.9697L13.2803 17.0304L16.8107 13.5001Z"
    fill="#366EF4" style="fill:#366EF4;fill:#366EF4;fill-opacity:1;" />
</svg>
