<svg width="24" height="24" viewBox="0 0 24 24" fill="none" xmlns="http://www.w3.org/2000/svg">
  <path
    d="M3.99707 2.00391C3.03057 2.00391 2.24707 2.78741 2.24707 3.75391V21.7539C2.24707 22.7204 3.03057 23.5039 3.99707 23.5039H11.9971V22.0039H3.99707C3.859 22.0039 3.74707 21.892 3.74707 21.7539V3.75391C3.74707 3.61584 3.859 3.50391 3.99707 3.50391H19.9971C20.1351 3.50391 20.2471 3.61584 20.2471 3.75391V12.7539H21.7471V3.75391C21.7471 2.78741 20.9636 2.00391 19.9971 2.00391H3.99707ZM17.75 8.00391H6.24998V9.50391H17.75V8.00391ZM13.5961 12.0039H6.24998V13.5039H13.5961V12.0039ZM11.0577 16.0039H6.24998V17.5039H11.0577V16.0039ZM18.25 18.5039H15V17.0039H18.25V13.7539H19.75V17.0039H23V18.5039H19.75V21.7539H18.25V18.5039Z"
    fill="#366EF4" style="fill:#366EF4;fill:#366EF4;fill-opacity:1;" />
</svg>
