<svg width="24" height="24" viewBox="0 0 24 24" fill="none" xmlns="http://www.w3.org/2000/svg">
  <path
    d="M3.5 4.6499L3.5 19.3471L6.79006 17.1538C7.28287 16.8252 7.86189 16.6499 8.45416 16.6499H20.5V4.6499H3.5ZM2 4.6499C2 3.82148 2.67157 3.1499 3.5 3.1499H20.5C21.3284 3.1499 22 3.82148 22 4.6499V16.6499C22 17.4783 21.3284 18.1499 20.5 18.1499H8.45416C8.15803 18.1499 7.86851 18.2376 7.62211 18.4018L4.33205 20.5952C3.33522 21.2598 2 20.5452 2 19.3471V4.6499ZM7 11.1499C7.55229 11.1499 8 10.7022 8 10.1499C8 9.59762 7.55229 9.1499 7 9.1499C6.44772 9.1499 6 9.59762 6 10.1499C6 10.7022 6.44772 11.1499 7 11.1499ZM11.9999 11.1499C12.5522 11.1499 12.9999 10.7022 12.9999 10.1499C12.9999 9.59762 12.5522 9.1499 11.9999 9.1499C11.4476 9.1499 10.9999 9.59762 10.9999 10.1499C10.9999 10.7022 11.4476 11.1499 11.9999 11.1499ZM18.0001 10.1499C18.0001 10.7022 17.5524 11.1499 17.0001 11.1499C16.4478 11.1499 16.0001 10.7022 16.0001 10.1499C16.0001 9.59762 16.4478 9.1499 17.0001 9.1499C17.5524 9.1499 18.0001 9.59762 18.0001 10.1499Z"
    fill="#366EF4" style="fill:#366EF4;fill:#366EF4;fill-opacity:1;" />
</svg>
