<svg width="24" height="24" viewBox="0 0 24 24" fill="none" xmlns="http://www.w3.org/2000/svg">
  <path d="M3.75 4.11621H9.64286L12.75 6.59229H20.25V5.09229H13.2746L10.1674 2.61621L3.75 2.61621V4.11621Z"
    fill="#366EF4" style="fill:#366EF4;fill:#366EF4;fill-opacity:1;" />
  <path
    d="M3.75 6.59226C2.92157 6.59226 2.25 7.26383 2.25 8.09226V19.5003C2.25 20.3287 2.92157 21.0003 3.75 21.0003L20.25 21.0003C21.0784 21.0003 21.75 20.3287 21.75 19.5003V10.5683C21.75 9.7399 21.0784 9.06833 20.25 9.06833H12.2623L9.15515 6.59225L3.75 6.59226ZM3.75 8.09226L8.63057 8.09225L11.7377 10.5683H20.25V19.5003L3.75 19.5003V8.09226Z"
    fill="#366EF4" style="fill:#366EF4;fill:#366EF4;fill-opacity:1;" />
</svg>
