<svg width="24" height="24" viewBox="0 0 24 24" fill="none" xmlns="http://www.w3.org/2000/svg">
<path
    d="M5.24982 4.5H3.00073V6L5.24982 6V4.5ZM20.9998 4.50004L7.49982 4.5L7.49982 6L20.9998 6.00004V4.50004ZM12.9998 11.2501L7.49982 11.2501L7.49982 12.7501L12.9998 12.7501V11.2501ZM3.00073 11.2501H5.24982V12.7501H3.00073V11.2501ZM12.9998 18L7.49982 18L7.49982 19.5L12.9998 19.5V18ZM3.00073 18H5.24982V19.5H3.00073V18ZM17.25 16.75H14V15.25H17.25V12H18.75V15.25H22V16.75H18.75V20H17.25V16.75Z" fill="#366EF4"
    style="fill:#366EF4;fill:#366EF4;fill-opacity:1;fill-opacity:1;"
/>
</svg>
