<svg width="24" height="24" viewBox="0 0 24 24" fill="none" xmlns="http://www.w3.org/2000/svg">
  <path d="M6 4.5H19.5V18H21V4.5C21 3.67157 20.3284 3 19.5 3H6V4.5Z" fill="#366EF4"
    style="fill:#366EF4;fill:#366EF4;fill-opacity:1;" />
  <path
    d="M9.87488 14.125V18.5L11.3749 18.5V14.125H15.5001V12.625H11.3749V8.50003H9.87488V12.625H5.50012V14.125H9.87488Z"
    fill="#366EF4" style="fill:#366EF4;fill:#366EF4;fill-opacity:1;" />
  <path
    d="M3 19.5C3 20.3284 3.67157 21 4.5 21L16.5 21C17.3284 21 18 20.3284 18 19.5L18 7.5C18 6.67157 17.3284 6 16.5 6H4.5C3.67157 6 3 6.67157 3 7.5V19.5ZM4.5 7.5L16.5 7.5L16.5 19.5L4.5 19.5L4.5 7.5Z"
    fill="#366EF4" style="fill:#366EF4;fill:#366EF4;fill-opacity:1;" />
</svg>
