<svg width="24" height="24" viewBox="0 0 24 24" fill="none" xmlns="http://www.w3.org/2000/svg">
  <path
    d="M12.0002 4.067C16.3448 4.067 19.8802 7.6104 19.8802 11.998H21.3222C21.3222 6.82145 17.1486 2.625 12.0002 2.625C8.64572 2.625 5.70505 4.40657 4.06306 7.08002L4.06306 3.96378H2.625V8.62341C2.625 9.03762 2.96079 9.37341 3.375 9.37341L8.00514 9.37341V7.92747L5.23568 7.92747C6.61359 5.61316 9.13038 4.067 12.0002 4.067Z"
    fill="#808080" style="fill:#808080;fill:#808080;fill-opacity:1;" />
  <path
    d="M2.67831 11.9979H4.12031C4.12031 16.3856 7.65569 19.929 12.0002 19.929C14.8701 19.929 17.3869 18.3829 18.7648 16.0686H15.9949V14.6226H20.625C21.0392 14.6226 21.375 14.9584 21.375 15.3726V20.0323H19.9369V16.9168C18.2949 19.5898 15.3544 21.371 12.0002 21.371C6.85187 21.371 2.6783 17.1745 2.67831 11.9979Z"
    fill="#808080" style="fill:#808080;fill:#808080;fill-opacity:1;" />
</svg>
