<svg width="24" height="24" viewBox="0 0 24 24" fill="none" xmlns="http://www.w3.org/2000/svg">
  <path d="M11.7584 17.9996V9.75H13.2584V17.9996H11.7584Z" fill="#366EF4"
    style="fill:#366EF4;fill:#366EF4;fill-opacity:1;" />
  <path d="M13.3998 6H11.5999V7.79993H13.3998V6Z" fill="#366EF4"
    style="fill:#366EF4;fill:#366EF4;fill-opacity:1;" />
  <path
    d="M2 12C2 17.799 6.70105 22.5 12.5 22.5C18.299 22.5 23 17.799 23 12C23 6.20105 18.299 1.5 12.5 1.5C6.70105 1.5 2 6.20105 2 12ZM3.5 12C3.5 7.02942 7.52942 3 12.5 3C17.4706 3 21.5 7.02942 21.5 12C21.5 16.9706 17.4706 21 12.5 21C7.52942 21 3.5 16.9706 3.5 12Z"
    fill="#366EF4" style="fill:#366EF4;fill:#366EF4;fill-opacity:1;" />
</svg>
