<svg width="24" height="24" viewBox="0 0 24 24" fill="none" xmlns="http://www.w3.org/2000/svg">
  <path
    d="M10.875 12.375C13.7745 12.375 16.125 10.0245 16.125 7.125C16.125 4.2255 13.7745 1.875 10.875 1.875C7.9755 1.875 5.625 4.2255 5.625 7.125C5.625 10.0245 7.9755 12.375 10.875 12.375ZM10.875 10.875C8.80393 10.875 7.125 9.19607 7.125 7.125C7.125 5.05393 8.80393 3.375 10.875 3.375C12.9461 3.375 14.625 5.05393 14.625 7.125C14.625 9.19607 12.9461 10.875 10.875 10.875Z"
    fill="#366EF4" style="fill:#366EF4;fill:366EF4;fill-opacity:1;" />
  <path
    d="M14.625 15.7428C13.4119 15.5016 12.1587 15.375 10.875 15.375C7.92511 15.375 5.13652 16.0436 2.625 17.2347V19.875H14.625V21.375H1.875C1.46079 21.375 1.125 21.0392 1.125 20.625V17.2119C1.125 16.657 1.42952 16.1433 1.9303 15.9042C4.6491 14.6056 7.67476 13.875 10.875 13.875C12.1558 13.875 13.4086 13.992 14.625 14.2156V15.7428Z"
    fill="#366EF4" style="fill:#366EF4;fill:366EF4;fill-opacity:1;" />
  <path
    d="M15.9807 21.0643L18.3671 18.6779L15.9805 16.2914L17.0412 15.2307L19.4278 17.6173L21.8143 15.2307L22.875 16.2914L20.4884 18.6779L22.8748 21.0643L21.8142 22.125L19.4278 19.7386L17.0414 22.125L15.9807 21.0643Z"
    fill="#366EF4" style="fill:#366EF4;fill:366EF4;fill-opacity:1;" />
</svg>
