<svg width="24" height="24" viewBox="0 0 24 24" fill="none" xmlns="http://www.w3.org/2000/svg">
  <path
    d="M11.8587 4.19045C16.2748 4.19045 19.8142 7.71044 19.8142 12.0029C19.8142 16.2954 16.2748 19.8154 11.8587 19.8154C8.16639 19.8154 5.08692 17.3547 4.17671 14.0391L2.62646 14.292C3.66365 18.3632 7.40376 21.3779 11.8587 21.3779C17.1154 21.3779 21.3767 17.1806 21.3767 12.0029C21.3767 6.82526 17.1154 2.62793 11.8587 2.62793C8.70933 2.62793 5.91719 4.13457 4.18471 6.456L4.18471 3.96766H2.62646V8.6874C2.62646 9.10161 2.96225 9.4374 3.37647 9.4374L8.06639 9.4374V7.87061H5.10681C6.50843 5.66564 8.99988 4.19045 11.8587 4.19045Z"
    fill="#366EF4" style="fill:#366EF4;fill:#366EF4;fill-opacity:1;" />
</svg>
