<svg width="24" height="24" viewBox="0 0 24 24" fill="none" xmlns="http://www.w3.org/2000/svg">
  <path
    d="M14.5851 9.57039L12.2749 4.88942L9.96469 9.57039L4.79894 10.321L8.53691 13.9646L7.6545 19.1095L12.2749 16.6804L16.8953 19.1095L16.0129 13.9646L19.7508 10.321L14.5851 9.57039ZM22.0719 9.14254C22.441 9.19617 22.5884 9.64976 22.3213 9.9101L17.6246 14.4883L18.7333 20.9529C18.7964 21.3205 18.4105 21.6008 18.0804 21.4272L12.2749 18.3751L6.46937 21.4272C6.13923 21.6008 5.75339 21.3205 5.81644 20.9529L6.92519 14.4883L2.22843 9.9101C1.96135 9.64976 2.10872 9.19617 2.47782 9.14254L8.96859 8.19938L11.8714 2.31774C12.0364 1.98328 12.5134 1.98328 12.6784 2.31774L15.5812 8.19938L22.0719 9.14254Z"
    fill="#366EF4" style="fill:#366EF4;fill:#366EF4;fill-opacity:1;" />
</svg>
