<svg width="24" height="25" viewBox="0 0 24 25" fill="none" xmlns="http://www.w3.org/2000/svg">
<path d="M18.7771 2.039C18.4464 1.70833 17.9176 1.68599 17.5602 1.9876L11.4927 7.10822L10.3361 5.95154C9.98459 5.60007 9.41474 5.60007 9.06327 5.95154L5.90625 9.10856C5.55478 9.46003 5.55478 10.0299 5.90625 10.3814L9.24742 13.7225L3.08594 19.884L4.1466 20.9447L10.3081 14.7832L13.6491 18.1242C14.0005 18.4756 14.5704 18.4756 14.9219 18.1242L18.0789 14.9672C18.4304 14.6157 18.4304 14.0458 18.0789 13.6944L16.9222 12.5377L22.0428 6.47018C22.3444 6.11281 22.3221 5.58399 21.9914 5.25333L18.7771 2.039ZM18.1063 3.48953L20.5409 5.92411L14.8869 12.6237L16.594 14.3308L14.2855 16.6392L7.39117 9.74496L9.69967 7.43646L11.4068 9.14357L18.1063 3.48953Z" fill="#15181D" style="fill:#15181D;fill:color(display-p3 0.2118 0.4314 0.9569);fill-opacity:1;"/>
</svg>
