<svg width="24" height="24" viewBox="0 0 24 24" fill="none" xmlns="http://www.w3.org/2000/svg">
  <path fill-rule="evenodd" clip-rule="evenodd"
    d="M20 7.5C21.1046 7.5 22 6.60457 22 5.5C22 4.39543 21.1046 3.5 20 3.5C18.8954 3.5 18 4.39543 18 5.5C18 6.60457 18.8954 7.5 20 7.5ZM4.5 17.7974V6H16V4.5H4.5C3.67157 4.5 3 5.17157 3 6V20.0392C3 20.4208 3.44499 20.6292 3.73808 20.3849L7.5 17.25H19.5C20.3284 17.25 21 16.5784 21 15.75V8.875H19.5V15.75H6.95693L4.5 17.7974Z"
    fill="#366EF4" style="fill:#366EF4;fill-opacity:1;" />
</svg>
