<svg width="24" height="24" viewBox="0 0 24 24" fill="none" xmlns="http://www.w3.org/2000/svg">
  <path fill-rule="evenodd" clip-rule="evenodd"
    d="M2.25 9C2.25 7.75736 3.25736 6.75 4.5 6.75H19.5C20.7426 6.75 21.75 7.75736 21.75 9V14.25V19.5C21.75 20.7426 20.7426 21.75 19.5 21.75H12H4.5C3.25736 21.75 2.25 20.7426 2.25 19.5V9ZM4.5 8.25C4.08579 8.25 3.75 8.58579 3.75 9V19.5C3.75 19.9142 4.08579 20.25 4.5 20.25H12H19.5C19.9142 20.25 20.25 19.9142 20.25 19.5V14.25V9C20.25 8.58579 19.9142 8.25 19.5 8.25H4.5Z"
    fill="#366EF4" style="fill:#366EF4;fill:#366EF4;fill-opacity:1;" />
  <path fill-rule="evenodd" clip-rule="evenodd"
    d="M6.75 5.25C6.75 4.00736 7.75736 3 9 3H15C16.2426 3 17.25 4.00736 17.25 5.25V8.25H6.75V5.25ZM9 4.5C8.58579 4.5 8.25 4.83579 8.25 5.25V6.75H15.75V5.25C15.75 4.83579 15.4142 4.5 15 4.5H9Z"
    fill="#366EF4" style="fill:#366EF4;fill:#366EF4;fill-opacity:1;" />
  <path fill-rule="evenodd" clip-rule="evenodd" d="M21 12H3V10.5H21V12Z" fill="#366EF4"
    style="fill:#366EF4;fill:#366EF4;fill-opacity:1;" />
  <path fill-rule="evenodd" clip-rule="evenodd"
    d="M12 14.25C11.1716 14.25 10.5 14.9216 10.5 15.75C10.5 16.5784 11.1716 17.25 12 17.25C12.8284 17.25 13.5 16.5784 13.5 15.75C13.5 14.9216 12.8284 14.25 12 14.25ZM9 15.75C9 14.0931 10.3431 12.75 12 12.75C13.6569 12.75 15 14.0931 15 15.75C15 17.4069 13.6569 18.75 12 18.75C10.3431 18.75 9 17.4069 9 15.75Z"
    fill="#366EF4" style="fill:#366EF4;fill:#366EF4;fill-opacity:1;" />
</svg>
