<svg width="24" height="24" viewBox="0 0 24 24" fill="none" xmlns="http://www.w3.org/2000/svg">
  <path
    d="M3 19.5C3 20.3284 3.67157 21 4.5 21L19.5 21C20.3284 21 21 20.3284 21 19.5L21 4.5C21 3.67158 20.3284 3 19.5 3H4.5C3.67158 3 3 3.67157 3 4.5V19.5ZM19.5 19.5L4.5 19.5L4.5 4.5L19.5 4.5L19.5 19.5ZM8.53434 8.63631L14.7693 8.63631L7.07166 16.3336L8.1323 17.3943L15.83 9.69693V15.932H17.33L17.33 7.58631C17.33 7.33778 17.1285 7.13631 16.88 7.13631L8.53434 7.13631V8.63631Z"
    fill="#366EF4" style="fill:#366EF4;fill:#366EF4;fill-opacity:1;" />
</svg>
