<svg width="24" height="24" viewBox="0 0 24 24" fill="none" xmlns="http://www.w3.org/2000/svg">
  <path
    d="M19.3142 12.0029C19.3142 7.71044 15.7748 4.19045 11.3587 4.19045C8.49988 4.19045 6.00843 5.66564 4.60681 7.87061H7.56639V9.4374L2.87647 9.4374C2.46225 9.4374 2.12646 9.10161 2.12646 8.6874V3.96766H3.68471L3.68471 6.456C5.41719 4.13457 8.20933 2.62793 11.3587 2.62793C16.6154 2.62793 20.8767 6.82526 20.8767 12.0029C20.8767 17.1806 16.6154 21.3779 11.3587 21.3779C6.90376 21.3779 3.16365 18.3632 2.12646 14.292L3.67671 14.0391C4.58692 17.3547 7.66639 19.8154 11.3587 19.8154C15.7748 19.8154 19.3142 16.2954 19.3142 12.0029ZM10.6016 7H12.4016V8.79993H10.6016V7ZM10.7602 10.75V16.9996H12.2602V10.75H10.7602Z"
    fill="#366EF4" style="fill:#366EF4;fill:#366EF4;fill-opacity:1;" />
</svg>
