<svg width="24" height="24" viewBox="0 0 24 24" fill="none" xmlns="http://www.w3.org/2000/svg">
  <path fill-rule="evenodd" clip-rule="evenodd"
    d="M11.9971 22C17.5199 22 21.9971 17.5228 21.9971 12C21.9971 6.47715 17.5199 2 11.9971 2C6.47422 2 1.99707 6.47715 1.99707 12C1.99707 13.5997 2.37269 15.1116 3.04053 16.4525C3.21801 16.8088 3.27708 17.2161 3.17419 17.6006L2.57858 19.8267C2.32002 20.793 3.20408 21.677 4.17042 21.4185L6.39646 20.8229C6.781 20.72 7.18828 20.7791 7.5446 20.9565C8.88544 21.6244 10.3974 22 11.9971 22ZM7.99707 13.25C7.58286 13.25 7.24707 13.5858 7.24707 14C7.24707 14.4142 7.58286 14.75 7.99707 14.75H13.4971C13.9113 14.75 14.2471 14.4142 14.2471 14C14.2471 13.5858 13.9113 13.25 13.4971 13.25H7.99707ZM7.24707 10.5C7.24707 10.0858 7.58286 9.75 7.99707 9.75H15.9971C16.4113 9.75 16.7471 10.0858 16.7471 10.5C16.7471 10.9142 16.4113 11.25 15.9971 11.25H7.99707C7.58286 11.25 7.24707 10.9142 7.24707 10.5Z"
    fill="#808080" style="fill:#808080;fill:#808080;fill-opacity:1;" />
</svg>
