<svg width="24" height="24" viewBox="0 0 24 24" fill="none" xmlns="http://www.w3.org/2000/svg">
<path fill-rule="evenodd" clip-rule="evenodd" d="M7.65166 1.50049L7.56583 1.50025C7.26701 1.49904 6.89886 1.49756 6.57449 1.61562C6.04422 1.80862 5.62651 2.22633 5.43351 2.7566C5.35724 2.96613 5.33086 3.19394 5.32207 3.40952L3.86139 3.40952C3.6609 3.4095 3.46558 3.40948 3.29941 3.42081C3.1177 3.43321 2.90224 3.4623 2.67884 3.55484C2.21107 3.74859 1.83943 4.12023 1.64567 4.58801C1.55313 4.8114 1.52405 5.02686 1.51165 5.20858C1.50031 5.37475 1.50033 5.57007 1.50035 5.77056L1.5003 6.40441C1.49989 7.16363 1.49959 7.72743 1.63045 8.21581C1.9835 9.53341 3.01266 10.5626 4.33025 10.9156C4.6935 11.0129 5.09846 11.0377 5.59451 11.0438C6.32746 13.5093 8.44495 15.3787 11.0455 15.7507V16.7729H10.6213C8.21972 16.7729 6.27288 18.7197 6.27288 21.1212C6.27288 21.8827 6.89017 22.5 7.65164 22.5H16.3484C17.1099 22.5 17.7272 21.8827 17.7272 21.1212C17.7272 18.7197 15.7803 16.7729 13.3788 16.7729H12.9546V15.7507C15.5551 15.3787 17.6726 13.5093 18.4056 11.0438C18.9017 11.0377 19.3066 11.0129 19.6699 10.9156C20.9875 10.5626 22.0166 9.53341 22.3697 8.21581C22.5006 7.72743 22.5003 7.16363 22.4998 6.40442L22.4998 5.77055C22.4998 5.57006 22.4998 5.37475 22.4885 5.20858C22.4761 5.02686 22.447 4.8114 22.3545 4.58801C22.1607 4.12023 21.7891 3.74859 21.3213 3.55484C21.0979 3.4623 20.8824 3.43321 20.7007 3.42081C20.5346 3.40948 20.3392 3.4095 20.1388 3.40952L18.678 3.40952C18.6692 3.19394 18.6429 2.96613 18.5666 2.7566C18.3736 2.22633 17.9559 1.80862 17.4256 1.61562C17.1012 1.49756 16.7331 1.49904 16.4343 1.50025L16.3484 1.50049H7.65166ZM5.31838 6.08218C5.31838 5.81489 5.31838 5.68125 5.26636 5.57916C5.2206 5.48935 5.14759 5.41634 5.05779 5.37058C4.9557 5.31857 4.82205 5.31857 4.55476 5.31857L4.11903 5.31856C3.86688 5.31856 3.7408 5.31856 3.64145 5.36724C3.55522 5.40949 3.48108 5.47985 3.43439 5.56376C3.3806 5.66044 3.37422 5.7825 3.36146 6.02663C3.33139 6.60214 3.33446 7.19926 3.47445 7.72171C3.65097 8.38051 4.16555 8.89509 4.82435 9.07161C4.93773 9.10199 5.07256 9.11848 5.31838 9.12725V6.08218ZM18.6817 6.08531C18.6817 5.81703 18.6817 5.68289 18.734 5.58059C18.78 5.4906 18.8534 5.41754 18.9435 5.37192C19.046 5.32005 19.1802 5.3206 19.4485 5.3217L19.8763 5.32344C20.1274 5.32447 20.253 5.32498 20.3518 5.37374C20.4377 5.41609 20.5114 5.48626 20.5579 5.56995C20.6115 5.66633 20.618 5.788 20.6309 6.03136C20.6616 6.60771 20.6611 7.21653 20.5257 7.72171C20.3492 8.38051 19.8346 8.89509 19.1758 9.07161C19.0624 9.102 18.9276 9.11848 18.6817 9.12725V6.08531Z" fill="#366EF4" style="fill:#366EF4;fill:#366EF4;fill-opacity:1;"/>
</svg>
