<svg width="20" height="20" viewBox="0 0 20 20" fill="none" xmlns="http://www.w3.org/2000/svg">
  <path fill-rule="evenodd" clip-rule="evenodd"
    d="M10 20C15.5228 20 20 15.5228 20 10C20 4.47715 15.5228 0 10 0C4.47715 0 0 4.47715 0 10C0 15.5228 4.47715 20 10 20ZM10.7935 3.08858V8.88936H9.2064V3.08858H10.7935ZM15.1267 10.2851C15.1267 8.76222 14.4638 7.39524 13.4081 6.4551L14.4637 5.26991C15.8431 6.49845 16.7138 8.2906 16.7138 10.2851C16.7138 13.993 13.7079 16.9989 9.99996 16.9989C6.292 16.9989 3.28611 13.993 3.28611 10.2851C3.28611 8.2906 4.1568 6.49845 5.53625 5.26991L6.59178 6.4551C5.53615 7.39524 4.87319 8.76222 4.87319 10.2851C4.87319 13.1165 7.16852 15.4119 9.99996 15.4119C12.8314 15.4119 15.1267 13.1165 15.1267 10.2851Z"
    fill="#FF2222" style="fill:#FF2222;fill:#FF2222;fill-opacity:1;" />
</svg>
