<svg width="24" height="24" viewBox="0 0 24 24" fill="none" xmlns="http://www.w3.org/2000/svg">
  <path fill-rule="evenodd" clip-rule="evenodd"
    d="M3.99707 2C2.8925 2 1.99707 2.89543 1.99707 4V9C1.99707 10.1046 2.8925 11 3.99707 11H9.99707C10.5494 11 10.9971 10.5523 10.9971 10V4C10.9971 2.89543 10.1016 2 8.99707 2H3.99707ZM3.99707 22C2.8925 22 1.99707 21.1046 1.99707 20V15C1.99707 13.8954 2.8925 13 3.99707 13H9.99707C10.5494 13 10.9971 13.4477 10.9971 14V20C10.9971 21.1046 10.1016 22 8.99707 22H3.99707ZM21.9971 4C21.9971 2.89543 21.1016 2 19.9971 2H14.9971C13.8925 2 12.9971 2.89543 12.9971 4V10C12.9971 10.5523 13.4448 11 13.9971 11H19.9971C21.1016 11 21.9971 10.1046 21.9971 9V4ZM19.9971 22C21.1016 22 21.9971 21.1046 21.9971 20V15C21.9971 13.8954 21.1016 13 19.9971 13H13.9971C13.4448 13 12.9971 13.4477 12.9971 14V20C12.9971 21.1046 13.8925 22 14.9971 22H19.9971Z"
    fill="#808080" style="fill:#808080;fill:#808080;fill-opacity:1;" />
</svg>
