<svg width="24" height="24" viewBox="0 0 24 24" fill="none" xmlns="http://www.w3.org/2000/svg">
  <path fill-rule="evenodd" clip-rule="evenodd"
    d="M16.5 7.5C16.5 9.98528 14.4853 12 12 12C9.51472 12 7.5 9.98528 7.5 7.5C7.5 5.01472 9.51472 3 12 3C14.4853 3 16.5 5.01472 16.5 7.5ZM5.35678 18.5334C5.82014 15.3561 8.54474 13 11.7557 13H12.2385C15.4494 13 18.174 15.3561 18.6374 18.5334C18.827 19.8339 17.8187 21 16.5044 21H7.48975C6.17547 21 5.16712 19.8339 5.35678 18.5334ZM5.99999 7.5C5.99999 6.23507 6.39142 5.06156 7.05977 4.094C6.79032 4.03249 6.50981 4 6.22171 4C4.15064 4 2.47171 5.67893 2.47171 7.75C2.47171 9.82107 4.15064 11.5 6.22171 11.5C6.62332 11.5 7.01019 11.4369 7.37293 11.32C6.5153 10.2823 5.99999 8.95134 5.99999 7.5ZM3.87247 18.317C4.23926 15.8018 5.75618 13.7044 7.84316 12.5263C7.38867 12.402 6.91142 12.3359 6.42051 12.3359H6.01819C3.34241 12.3359 1.07191 14.2993 0.685778 16.9471C0.527728 18.0309 1.36802 19.0026 2.46325 19.0026H3.83662C3.82731 18.7779 3.83868 18.5487 3.87247 18.317ZM21.5865 19.0026H20.1575C20.1668 18.7779 20.1554 18.5487 20.1216 18.317C19.7559 15.8092 18.2468 13.7167 16.1693 12.5367C16.6349 12.4057 17.1249 12.3359 17.6293 12.3359H18.0316C20.7074 12.3359 22.9779 14.2993 23.364 16.9471C23.5221 18.0309 22.6818 19.0026 21.5865 19.0026ZM17.8328 11.5C17.4153 11.5 17.0138 11.4318 16.6387 11.3059C17.4893 10.2703 18 8.94477 18 7.5C18 6.23987 17.6115 5.07047 16.9478 4.10503C17.2316 4.03638 17.5279 4 17.8328 4C19.9039 4 21.5828 5.67893 21.5828 7.75C21.5828 9.82107 19.9039 11.5 17.8328 11.5Z"
    fill="#808080" style="fill:#808080;fill:#808080;fill-opacity:1;" />
</svg>
