<svg width="24" height="24" viewBox="0 0 24 24" fill="none" xmlns="http://www.w3.org/2000/svg">
  <path fill-rule="evenodd" clip-rule="evenodd"
    d="M1.99707 3C1.99707 2.44772 2.44479 2 2.99707 2H18.9971C19.5494 2 19.9971 2.44772 19.9971 3V5.50347C19.0071 5.46049 18.0031 5.81694 17.2472 6.57282L16.9256 6.89437L12.0507 11.7693L12.0017 11.8183L12.0017 11.8183L12.0017 11.8183L12.0016 11.8183C11.7317 12.0881 11.5106 12.3091 11.316 12.5586C11.0879 12.8509 10.8925 13.1672 10.7329 13.5019C10.5968 13.7876 10.4981 14.0842 10.3775 14.4463L10.3775 14.4463L10.3775 14.4463L10.3775 14.4463L10.3556 14.5121L9.88046 15.9375L9.60696 16.7579C9.35743 17.5065 9.55226 18.3318 10.1102 18.8898C10.6682 19.4478 11.4935 19.6426 12.2421 19.3931L14.4879 18.6445L14.5538 18.6225C14.9159 18.502 15.2124 18.4032 15.4981 18.2671C15.8328 18.1076 16.1491 17.9121 16.4415 17.6841C16.691 17.4894 16.9119 17.2683 17.1817 16.9984L17.2308 16.9493L19.9971 14.183V21C19.9971 21.5523 19.5494 22 18.9971 22H2.99707C2.44479 22 1.99707 21.5523 1.99707 21V3ZM6.24707 9C6.24707 8.58579 6.58286 8.25 6.99707 8.25H13.4971C13.9113 8.25 14.2471 8.58579 14.2471 9C14.2471 9.41421 13.9113 9.75 13.4971 9.75H6.99707C6.58286 9.75 6.24707 9.41421 6.24707 9ZM6.24707 13C6.24707 12.5858 6.58286 12.25 6.99707 12.25H9.49707C9.91128 12.25 10.2471 12.5858 10.2471 13C10.2471 13.4142 9.91128 13.75 9.49707 13.75H6.99707C6.58286 13.75 6.24707 13.4142 6.24707 13ZM6.24707 17C6.24707 16.5858 6.58286 16.25 6.99707 16.25H8.49707C8.91128 16.25 9.24707 16.5858 9.24707 17C9.24707 17.4142 8.91128 17.75 8.49707 17.75H6.99707C6.58286 17.75 6.24707 17.4142 6.24707 17ZM21.3665 10.6922C22.2112 9.84754 22.2112 8.47812 21.3665 7.63348C20.5219 6.78884 19.1525 6.78884 18.3078 7.63348L18.1806 7.7607C18.0578 7.88348 18.0022 8.05496 18.0329 8.22586C18.0522 8.33336 18.0879 8.49053 18.153 8.67807C18.2831 9.05314 18.5289 9.54549 18.9917 10.0083C19.4545 10.4712 19.9469 10.7169 20.3219 10.847C20.5095 10.9121 20.6666 10.9478 20.7741 10.9671C20.945 10.9978 21.1165 10.9422 21.2393 10.8194L21.3665 10.6922ZM15.5189 16.5013C15.6939 16.3648 15.8526 16.2061 16.1701 15.8886L20.1275 11.9312C20.2231 11.8356 20.1793 11.6708 20.0515 11.6264C19.5844 11.4644 18.9767 11.1601 18.4083 10.5917C18.3373 10.5206 18.2703 10.449 18.2073 10.377C17.7661 9.87355 17.5154 9.35722 17.3736 8.94849C17.3292 8.82066 17.1644 8.77687 17.0688 8.87254L13.1114 12.8299C12.7939 13.1474 12.6352 13.3061 12.4987 13.4811C12.3377 13.6876 12.1996 13.9109 12.087 14.1473C11.9915 14.3476 11.9205 14.5606 11.7786 14.9865L11.5951 15.5368L11.3034 16.4118L11.0299 17.2323C10.9601 17.4419 11.0146 17.6729 11.1708 17.8292C11.3271 17.9854 11.5581 18.0399 11.7677 17.9701L12.5882 17.6966L13.4632 17.4049L14.0135 17.2214L14.0136 17.2214L14.0137 17.2214L14.0137 17.2214C14.4395 17.0795 14.6524 17.0085 14.8527 16.913C15.0891 16.8004 15.3124 16.6623 15.5189 16.5013Z"
    fill="#808080" style="fill:#808080;fill:#808080;fill-opacity:1;" />
</svg>
