<svg width="14" height="14" viewBox="0 0 14 14" fill="none" xmlns="http://www.w3.org/2000/svg">
<rect x="0.5" y="0.5" width="13" height="13" rx="6.5" fill="#366EF4" style="fill:#366EF4;fill:color(display-p3 0.2118 0.4314 0.9569);fill-opacity:1;"/>
<rect x="0.5" y="0.5" width="13" height="13" rx="6.5" stroke="white" style="stroke:white;stroke-opacity:1;"/>
<path d="M9.54141 3.25315C9.41741 3.12915 9.21911 3.12077 9.08509 3.23387L6.80978 5.15411L6.37602 4.72035C6.24422 4.58855 6.03053 4.58855 5.89873 4.72035L4.71484 5.90424C4.58304 6.03604 4.58304 6.24973 4.71484 6.38153L5.96778 7.63447L3.65723 9.94503L4.05497 10.3428L6.36553 8.03222L7.6184 9.28509C7.7502 9.41689 7.9639 9.41689 8.0957 9.28509L9.27958 8.10121C9.41138 7.96941 9.41138 7.75571 9.27958 7.62391L8.84583 7.19015L10.7661 4.91484C10.8792 4.78083 10.8708 4.58252 10.7468 4.45852L9.54141 3.25315Z" fill="#F7F8FA" style="fill:#F7F8FA;fill:color(display-p3 0.9686 0.9725 0.9804);fill-opacity:1;"/>
</svg>