<svg width="24" height="24" viewBox="0 0 24 24" fill="none" xmlns="http://www.w3.org/2000/svg">
  <path
    d="M5.21039 1H13.2364L21.2624 9.02598V20.7974C21.2624 22.5705 19.825 24.0078 18.052 24.0078H5.21039C3.43734 24.0078 2 22.5705 2 20.7974V4.21039C2 2.43734 3.43734 1 5.21039 1Z"
    fill="#59D0B5" style="fill:#59D0B5;fill:color(display-p3 0.3490 0.8157 0.7098);fill-opacity:1;" />
  <path d="M13.2365 1L21.2624 9.02598H15.3767C14.1947 9.02598 13.2365 8.06775 13.2365 6.88572V1Z" fill="#9DE7D5"
    style="fill:#9DE7D5;fill:color(display-p3 0.6157 0.9059 0.8353);fill-opacity:1;" />
  <path
    d="M9.11342 10.6478C9.00675 10.6259 8.89673 10.6259 8.79005 10.6478C8.66675 10.6732 8.55653 10.7349 8.46891 10.784L8.44503 10.7973C7.73757 11.1903 6.54077 11.8556 5.86603 12.2306C5.7022 12.3217 5.62028 12.3672 5.59291 12.4274C5.56905 12.4799 5.56889 12.54 5.59249 12.5926C5.61956 12.6529 5.70131 12.6989 5.86482 12.7909L8.79433 14.4388C8.85174 14.4711 8.88045 14.4872 8.91089 14.4935C8.93782 14.4991 8.96562 14.4991 8.99256 14.4935C9.023 14.4872 9.0517 14.4711 9.10912 14.4388L12.0386 12.7909C12.2022 12.6989 12.2839 12.6529 12.311 12.5926C12.3346 12.54 12.3344 12.4798 12.3106 12.4274C12.2832 12.3672 12.2013 12.3217 12.0374 12.2306C11.3627 11.8556 10.1659 11.1903 9.45845 10.7973L9.43456 10.784C9.34694 10.7349 9.23673 10.6732 9.11342 10.6478Z"
    fill="white" style="fill:white;fill-opacity:1;" />
  <path
    d="M12.9631 13.7399C12.9629 13.5599 12.9629 13.47 12.9249 13.4174C12.8918 13.3716 12.8409 13.3419 12.7848 13.3356C12.7204 13.3283 12.6418 13.3725 12.4847 13.4609L9.51668 15.1304C9.4571 15.1639 9.42731 15.1806 9.40563 15.2043C9.38645 15.2253 9.37194 15.2501 9.36307 15.2771C9.35304 15.3076 9.35304 15.3418 9.35304 15.4102V18.6909C9.35304 18.8704 9.35304 18.9601 9.39077 19.0126C9.42369 19.0584 9.47436 19.0882 9.53038 19.0947C9.59458 19.1022 9.67278 19.0588 9.82917 18.972C10.4979 18.6007 11.7133 17.9257 12.4281 17.5286L12.4534 17.5146C12.5461 17.4636 12.6628 17.3993 12.7523 17.3021C12.8298 17.2181 12.8884 17.1185 12.9242 17.01C12.9657 16.8845 12.9652 16.7514 12.9648 16.6455L12.9647 16.6166C12.9647 15.8288 12.9637 14.4887 12.9631 13.7399Z"
    fill="white" style="fill:white;fill-opacity:1;" />
  <path
    d="M8.0743 18.972C8.23069 19.0588 8.30889 19.1022 8.37309 19.0947C8.42911 19.0882 8.47978 19.0584 8.51271 19.0126C8.55044 18.9601 8.55044 18.8704 8.55044 18.6909V15.4102C8.55044 15.3418 8.55044 15.3077 8.54041 15.2771C8.53153 15.2501 8.51702 15.2253 8.49784 15.2044C8.47616 15.1807 8.44637 15.1639 8.38679 15.1304L5.41879 13.4609C5.26167 13.3725 5.18311 13.3283 5.11872 13.3356C5.06255 13.3419 5.01166 13.3716 4.97856 13.4175C4.94062 13.47 4.94054 13.5599 4.94039 13.7399C4.93977 14.4887 4.93875 15.8288 4.93875 16.6166L4.93868 16.6455C4.93829 16.7514 4.9378 16.8845 4.97927 17.01C5.01511 17.1185 5.07371 17.2181 5.15114 17.3021C5.2407 17.3993 5.35731 17.4635 5.45006 17.5146L5.47542 17.5286C6.19021 17.9257 7.40559 18.6007 8.0743 18.972Z"
    fill="white" style="fill:white;fill-opacity:1;" />
</svg>
