<svg width="24" height="25" viewBox="0 0 24 25" fill="none" xmlns="http://www.w3.org/2000/svg">
<path d="M5.21039 1H13.2364L21.2624 9.02598V20.7974C21.2624 22.5705 19.825 24.0078 18.052 24.0078H5.21039C3.43734 24.0078 2 22.5705 2 20.7974V4.21039C2 2.43734 3.43734 1 5.21039 1Z" fill="#FDBD34" style="fill:#FDBD34;fill:color(display-p3 0.9922 0.7412 0.2039);fill-opacity:1;"/>
<path d="M12.9015 11.4885C12.8424 11.4931 12.7609 11.5063 12.6162 11.5305L8.84935 12.1583C8.74135 12.1763 8.68374 12.1862 8.64273 12.1962L8.63856 12.1973L8.63821 12.2015C8.63503 12.2437 8.63475 12.3021 8.63475 12.4116V17.3961L8.63474 17.3976C8.6339 18.3426 7.86764 19.1083 6.92254 19.1083C5.97691 19.1083 5.21033 18.3417 5.21033 17.3961C5.21033 16.4505 5.97691 15.6839 6.92254 15.6839C7.2344 15.6839 7.5268 15.7673 7.77864 15.9129L7.77864 12.3994C7.77863 12.3069 7.77862 12.2154 7.78455 12.137C7.79114 12.0498 7.80664 11.9484 7.85364 11.8436C7.91975 11.6963 8.0262 11.5706 8.16069 11.4812C8.25631 11.4176 8.35376 11.3856 8.4387 11.3648C8.51507 11.346 8.60536 11.331 8.69661 11.3158L12.4904 10.6835C12.6147 10.6628 12.7335 10.643 12.8342 10.635C12.9429 10.6264 13.0756 10.6269 13.2134 10.6781C13.401 10.7478 13.5583 10.881 13.6579 11.0547C13.731 11.1821 13.7533 11.3129 13.7627 11.4216C13.7714 11.5222 13.7714 11.6426 13.7714 11.7686L13.7714 16.54C13.7714 16.5638 13.7694 16.5872 13.7657 16.6099C13.729 17.5231 12.9771 18.2522 12.0549 18.2522C11.1093 18.2522 10.3427 17.4856 10.3427 16.54C10.3427 15.5944 11.1093 14.8278 12.0549 14.8278C12.3685 14.8278 12.6625 14.9121 12.9153 15.0593V11.7838C12.9153 11.6371 12.9149 11.5546 12.9098 11.4954L12.9091 11.4879L12.9015 11.4885Z" fill="white" style="fill:white;fill-opacity:1;"/>
<path d="M13.2365 1L21.2624 9.02598H15.3767C14.1947 9.02598 13.2365 8.06775 13.2365 6.88572V1Z" fill="#FEDB90" style="fill:#FEDB90;fill:color(display-p3 0.9961 0.8588 0.5647);fill-opacity:1;"/>
</svg>
