<svg width="24" height="25" viewBox="0 0 24 25" fill="none" xmlns="http://www.w3.org/2000/svg">
<path d="M5.21039 1H13.2364L21.2624 9.02598V20.7974C21.2624 22.5705 19.825 24.0078 18.052 24.0078H5.21039C3.43734 24.0078 2 22.5705 2 20.7974V4.21039C2 2.43734 3.43734 1 5.21039 1Z" fill="#C7CFD9" style="fill:#C7CFD9;fill:color(display-p3 0.7804 0.8118 0.8510);fill-opacity:1;"/>
<path d="M13.2364 1L21.2624 9.02598H15.3767C14.1946 9.02598 13.2364 8.06775 13.2364 6.88572V1Z" fill="#DFE5EA" style="fill:#DFE5EA;fill:color(display-p3 0.8745 0.8980 0.9176);fill-opacity:1;"/>
<path d="M10.5638 10.3633L13.4548 13.2543V19.0363C13.4548 19.1629 13.4299 19.2882 13.3814 19.4051C13.333 19.522 13.262 19.6283 13.1725 19.7177C13.0831 19.8072 12.9768 19.8782 12.8599 19.9266C12.743 19.9751 12.6177 20 12.4911 20H6.70909C6.58254 20 6.45723 19.9751 6.34031 19.9266C6.22339 19.8782 6.11716 19.8072 6.02768 19.7177C5.93819 19.6283 5.86721 19.522 5.81878 19.4051C5.77035 19.2882 5.74542 19.1629 5.74542 19.0363V11.327C5.74542 11.2004 5.77035 11.0751 5.81878 10.9582C5.86721 10.8413 5.93819 10.735 6.02768 10.6455C6.11716 10.556 6.22339 10.4851 6.34031 10.4366C6.45723 10.3882 6.58254 10.3633 6.70909 10.3633H10.5638ZM10.0819 11.327H6.70909V19.0363H12.4911V13.7361L10.0819 11.327ZM10.5638 17.109V18.0727H9.60011V17.109H10.5638ZM9.60011 16.1453V17.109H8.63644V16.1453H9.60011ZM10.5638 15.1816V16.1453H9.60011V15.1816H10.5638ZM9.60011 14.218V15.1816H8.63644V14.218H9.60011ZM10.5638 13.2543V14.218H9.60011V13.2543H10.5638ZM9.60011 12.2906V13.2543H8.63644V12.2906H9.60011Z" fill="white" style="fill:white;fill-opacity:1;"/>
</svg>
