<svg width="24" height="24" viewBox="0 0 24 24" fill="none" xmlns="http://www.w3.org/2000/svg">
  <path
    d="M5.21039 0.246094H13.2364L21.2624 8.27207V20.0435C21.2624 21.8166 19.825 23.2539 18.052 23.2539H5.21039C3.43734 23.2539 2 21.8166 2 20.0435V3.45649C2 1.68344 3.43734 0.246094 5.21039 0.246094Z"
    fill="#0CAE64" style="fill:#0CAE64;fill:color(display-p3 0.0471 0.6824 0.3922);fill-opacity:1;" />
  <path d="M13.2365 0.246094L21.2624 8.27207H15.3767C14.1947 8.27207 13.2365 7.31385 13.2365 6.13181V0.246094Z"
    fill="#73D4A8" style="fill:#73D4A8;fill:color(display-p3 0.4510 0.8314 0.6588);fill-opacity:1;" />
  <path
    d="M5.60822 11.4575L7.99303 15.1894L5.59485 19H7.3021L8.94443 16.3601H8.99828L10.6532 19H12.4483L10.0074 15.1894L12.4899 11.4575H10.7208L9.13158 14.1716H9.0636L7.46634 11.4575H5.60822Z"
    fill="white" style="fill:white;fill-opacity:1;" />
</svg>
