<svg width="24" height="24" viewBox="0 0 24 24" fill="none" xmlns="http://www.w3.org/2000/svg">
  <path
    d="M5.21039 1H13.2364L21.2624 9.02598V20.7974C21.2624 22.5705 19.825 24.0078 18.052 24.0078H5.21039C3.43734 24.0078 2 22.5705 2 20.7974V4.21039C2 2.43734 3.43734 1 5.21039 1Z"
    fill="#E94848" style="fill:#E94848;fill:color(display-p3 0.9137 0.2824 0.2824);fill-opacity:1;" />
  <path d="M13.2365 1L21.2624 9.02598H15.3767C14.1947 9.02598 13.2365 8.06775 13.2365 6.88572V1Z" fill="#F29191"
    style="fill:#F29191;fill:color(display-p3 0.9490 0.5686 0.5686);fill-opacity:1;" />
  <path
    d="M14.4255 17.5571C13.6229 17.4977 12.85 17.2004 12.2258 16.6654C11.007 16.9329 9.84768 17.3193 8.68837 17.7949C7.76687 19.4299 6.90482 20.2622 6.16168 20.2622C6.01305 20.2622 5.83469 20.2325 5.71579 20.1433C5.3888 19.9947 5.21045 19.6677 5.21045 19.3407C5.21045 19.0732 5.2699 18.33 8.09386 17.1113C8.74783 15.9222 9.25317 14.7035 9.66933 13.4252C9.31262 12.7118 8.53974 10.958 9.07481 10.0662C9.25317 9.73924 9.60988 9.56088 9.99631 9.59061C10.2936 9.59061 10.5908 9.73924 10.7692 9.97705C11.1556 10.5121 11.1259 11.6417 10.6206 13.3063C11.0962 14.1981 11.7204 15.0007 12.4636 15.6844C13.0878 15.5655 13.712 15.4763 14.3363 15.4763C15.7334 15.5061 15.9415 16.16 15.9118 16.5465C15.9118 17.5571 14.9308 17.5571 14.4255 17.5571ZM6.10222 19.4001L6.1914 19.3704C6.60756 19.2218 6.93455 18.9245 7.17236 18.5381C6.72647 18.7164 6.36976 19.0137 6.10222 19.4001ZM10.0558 10.4824H9.96659C9.93686 10.4824 9.87741 10.4824 9.84768 10.5121C9.72878 11.0175 9.81796 11.5525 10.026 12.0281C10.2044 11.5228 10.2044 10.9877 10.0558 10.4824ZM10.2638 14.7926L10.2341 14.8521L10.2044 14.8224C9.93686 15.5061 9.6396 16.1897 9.31262 16.8437L9.37207 16.814V16.8734C10.026 16.6356 10.7395 16.4276 11.3934 16.2789L11.3637 16.2492H11.4529C11.007 15.8033 10.5908 15.298 10.2638 14.7926ZM14.3066 16.3681C14.039 16.3681 13.8012 16.3681 13.5337 16.4276C13.8309 16.5762 14.1282 16.6356 14.4255 16.6654C14.6335 16.6951 14.8416 16.6654 15.02 16.6059C15.02 16.5167 14.9011 16.3681 14.3066 16.3681Z"
    fill="white" style="fill:white;fill-opacity:1;" />
</svg>
