<svg width="24" height="24" viewBox="0 0 24 24" fill="none" xmlns="http://www.w3.org/2000/svg">
  <path
    d="M5.21039 1H13.2364L21.2624 9.02598V20.7974C21.2624 22.5705 19.825 24.0078 18.052 24.0078H5.21039C3.43734 24.0078 2 22.5705 2 20.7974V4.21039C2 2.43734 3.43734 1 5.21039 1Z"
    fill="#59D0B5" style="fill:#59D0B5;fill:color(display-p3 0.3490 0.8157 0.7098);fill-opacity:1;" />
  <path d="M13.2363 1L21.2623 9.02598H15.3766C14.1946 9.02598 13.2363 8.06775 13.2363 6.88572V1Z" fill="#9DE7D5"
    style="fill:#9DE7D5;fill:color(display-p3 0.6157 0.9059 0.8353);fill-opacity:1;" />
  <path fill-rule="evenodd" clip-rule="evenodd"
    d="M7.72528 11.2734H11.2563C11.5909 11.2734 11.8678 11.2734 12.0935 11.2919C12.3282 11.311 12.5449 11.3523 12.7489 11.4562C13.0643 11.6169 13.3208 11.8734 13.4816 12.1888C13.5855 12.3928 13.6267 12.6095 13.6459 12.8442C13.6643 13.0699 13.6643 13.3468 13.6643 13.6815V17.2124C13.6643 17.5471 13.6643 17.824 13.6459 18.0497C13.6267 18.2843 13.5855 18.5011 13.4816 18.7051C13.3208 19.0205 13.0643 19.277 12.7489 19.4377C12.5449 19.5416 12.3282 19.5829 12.0935 19.602C11.8678 19.6205 11.5909 19.6205 11.2562 19.6205H7.72529C7.71521 19.6205 7.70518 19.6205 7.6952 19.6205L7.36564 19.6205C7.25337 19.6205 7.14228 19.6205 7.05269 19.6126C7.04943 19.6123 7.04602 19.612 7.04247 19.6116C6.98853 19.6092 6.93707 19.606 6.88803 19.602C6.65337 19.5829 6.4366 19.5416 6.23267 19.4377C5.91721 19.277 5.66073 19.0205 5.49999 18.7051C5.39608 18.5011 5.35486 18.2843 5.33569 18.0497C5.31725 17.824 5.31726 17.5471 5.31726 17.2124V13.6815C5.31726 13.3468 5.31725 13.0699 5.33569 12.8442C5.35486 12.6095 5.39608 12.3928 5.49999 12.1888C5.66073 11.8734 5.91721 11.6169 6.23267 11.4562C6.4366 11.3523 6.65337 11.311 6.88803 11.2919C7.11375 11.2734 7.39065 11.2734 7.72528 11.2734ZM7.74289 18.7644C7.69711 18.7644 7.65322 18.7643 7.61109 18.7643L10.9873 15.3881C11.0719 15.3035 11.1192 15.2566 11.1554 15.2255C11.1916 15.2566 11.2389 15.3035 11.3236 15.3881L12.8082 16.8727V17.1948C12.8082 17.5515 12.8078 17.7933 12.7926 17.98C12.7777 18.1617 12.7509 18.2533 12.7188 18.3164C12.6401 18.4708 12.5146 18.5963 12.3602 18.6749C12.2971 18.7071 12.2055 18.7339 12.0238 18.7488C11.8371 18.764 11.5953 18.7644 11.2387 18.7644H7.74289ZM12.8082 15.662L11.9194 14.7732C11.8453 14.6991 11.7726 14.6264 11.706 14.5699C11.6327 14.5076 11.539 14.4401 11.4163 14.4003C11.2467 14.3452 11.0641 14.3452 10.8945 14.4003C10.7719 14.4401 10.6782 14.5076 10.6048 14.5699C10.5382 14.6264 10.4656 14.6991 10.3915 14.7732L6.83217 18.3325C6.75277 18.4119 6.6742 18.4904 6.61646 18.5594C6.60022 18.5788 6.57864 18.6052 6.55625 18.6379C6.43165 18.5594 6.33008 18.4484 6.26279 18.3164C6.23062 18.2533 6.2038 18.1617 6.18895 17.98C6.1737 17.7933 6.17337 17.5515 6.17337 17.1948V13.6991C6.17337 13.3424 6.1737 13.1006 6.18895 12.9139C6.2038 12.7322 6.23062 12.6406 6.26279 12.5775C6.34145 12.4231 6.46696 12.2976 6.62133 12.219C6.68446 12.1868 6.77603 12.16 6.95774 12.1451C7.14446 12.1299 7.38622 12.1295 7.74289 12.1295H11.2387C11.5953 12.1295 11.8371 12.1299 12.0238 12.1451C12.2055 12.16 12.2971 12.1868 12.3602 12.219C12.5146 12.2976 12.6401 12.4231 12.7188 12.5775C12.7509 12.6406 12.7777 12.7322 12.7926 12.9139C12.8078 13.1006 12.8082 13.3424 12.8082 13.6991V15.662ZM8.0342 13.5861C7.81093 13.5861 7.62993 13.7671 7.62993 13.9904C7.62993 14.2137 7.81093 14.3947 8.0342 14.3947C8.25748 14.3947 8.43848 14.2137 8.43848 13.9904C8.43848 13.7671 8.25748 13.5861 8.0342 13.5861ZM6.77383 13.9904C6.77383 13.2943 7.33812 12.73 8.0342 12.73C8.73029 12.73 9.29458 13.2943 9.29458 13.9904C9.29458 14.6865 8.73029 15.2508 8.0342 15.2508C7.33812 15.2508 6.77383 14.6865 6.77383 13.9904Z"
    fill="white" style="fill:white;fill-opacity:1;" />
</svg>
