<svg width="24" height="24" viewBox="0 0 24 24" fill="none" xmlns="http://www.w3.org/2000/svg">
  <path
    d="M5.21039 0.246094H13.2364L21.2624 8.27207V20.0435C21.2624 21.8166 19.825 23.2539 18.052 23.2539H5.21039C3.43734 23.2539 2 21.8166 2 20.0435V3.45649C2 1.68344 3.43734 0.246094 5.21039 0.246094Z"
    fill="#FB733F" style="fill:#FB733F;fill:color(display-p3 0.9843 0.4510 0.2471);fill-opacity:1;" />
  <path d="M13.2365 0.246094L21.2624 8.27207H15.3767C14.1947 8.27207 13.2365 7.31385 13.2365 6.13181V0.246094Z"
    fill="#FCAA8B" style="fill:#FCAA8B;fill:color(display-p3 0.9882 0.6667 0.5451);fill-opacity:1;" />
  <path fill-rule="evenodd" clip-rule="evenodd"
    d="M7.64344 19.0701V16.4088H9.36686C11.1279 16.4088 12.28 15.2558 12.28 13.5559C12.28 11.8631 11.1294 10.6968 9.37306 10.6968H6.34889C6.15622 10.6968 6 10.853 6 11.0457V19.0701C6 19.2628 6.15622 19.419 6.34889 19.419H7.29455C7.48726 19.419 7.64344 19.2628 7.64344 19.0701ZM7.64339 15.0188H8.65828C10.0485 15.0188 10.6116 14.6427 10.6116 13.5553C10.6116 12.6237 10.0849 12.0981 9.16173 12.0981H7.64339V15.0188Z"
    fill="white" style="fill:white;fill-opacity:1;" />
</svg>
