<svg width="24" height="24" viewBox="0 0 24 24" fill="none" xmlns="http://www.w3.org/2000/svg">
  <path
    d="M5.21039 1H13.2364L21.2624 9.02598V20.7974C21.2624 22.5705 19.825 24.0078 18.052 24.0078H5.21039C3.43734 24.0078 2 22.5705 2 20.7974V4.21039C2 2.43734 3.43734 1 5.21039 1Z"
    fill="#424242" style="fill:#424242;fill:color(display-p3 0.2588 0.2588 0.2588);fill-opacity:1;" />
  <path
    d="M6.29939 12.7715C5.58196 12.7715 5.02402 13.0921 4.65836 13.5706C4.303 14.0356 4.14026 14.6316 4.14026 15.2036C4.14026 15.7756 4.303 16.3716 4.65836 16.8367C5.02402 17.3152 5.58196 17.6358 6.29939 17.6358C7.69514 17.6358 8.68469 16.7633 9.49091 15.9166C10.2971 16.7633 11.2867 17.6358 12.6824 17.6358C13.3999 17.6358 13.9578 17.3152 14.3235 16.8367C14.6788 16.3716 14.8416 15.7756 14.8416 15.2036C14.8416 14.6316 14.6788 14.0356 14.3235 13.5706C13.9578 13.0921 13.3999 12.7715 12.6824 12.7715C11.2867 12.7715 10.2971 13.6439 9.49091 14.4907C8.68472 13.6439 7.69516 12.7715 6.29939 12.7715ZM6.29939 16.6629C5.90169 16.6629 5.62328 16.4971 5.43136 16.246C5.22916 15.9814 5.11312 15.6045 5.11312 15.2036C5.11312 14.8028 5.22916 14.4259 5.43136 14.1613C5.62328 13.9102 5.90169 13.7443 6.29939 13.7443C7.29139 13.7443 8.02511 14.3635 8.82494 15.2036C8.02508 16.0438 7.29137 16.6629 6.29939 16.6629ZM12.6824 16.6629C11.6905 16.6629 10.9567 16.0438 10.1569 15.2036C10.9567 14.3635 11.6904 13.7443 12.6824 13.7443C13.0801 13.7443 13.3585 13.9102 13.5505 14.1613C13.7527 14.4259 13.8687 14.8028 13.8687 15.2036C13.8687 15.6045 13.7527 15.9814 13.5505 16.246C13.3585 16.4971 13.0801 16.6629 12.6824 16.6629Z"
    fill="white" style="fill:white;fill-opacity:1;" />
  <path d="M13.2363 1L21.2623 9.02598H15.3766C14.1946 9.02598 13.2363 8.06775 13.2363 6.88572V1Z" fill="#606060"
    style="fill:#606060;fill:color(display-p3 0.3765 0.3765 0.3765);fill-opacity:1;" />
</svg>
