<svg width="24" height="24" viewBox="0 0 24 24" fill="none" xmlns="http://www.w3.org/2000/svg">
  <path
    d="M5.21039 1H13.2364L21.2624 9.02598V20.7974C21.2624 22.5705 19.825 24.0078 18.052 24.0078H5.21039C3.43734 24.0078 2 22.5705 2 20.7974V4.21039C2 2.43734 3.43734 1 5.21039 1Z"
    fill="#6375E2" style="fill:#6375E2;fill:color(display-p3 0.3882 0.4588 0.8863);fill-opacity:1;" />
  <path d="M13.2363 1L21.2623 9.02598H15.3766C14.1946 9.02598 13.2363 8.06775 13.2363 6.88572V1Z" fill="#ADB9F9"
    style="fill:#ADB9F9;fill:color(display-p3 0.6784 0.7255 0.9765);fill-opacity:1;" />
  <path
    d="M13.3335 14.4489L14.5976 13.7132C14.8263 13.5705 15.0199 13.6891 15.0199 13.9268V17.8983C15.0199 18.1596 14.8263 18.2546 14.5976 18.1123L13.3335 17.3762C13.0994 17.2335 12.9113 17.0913 12.9113 16.854V14.9474C12.9113 14.7098 13.1052 14.5912 13.3335 14.4489ZM11.6124 12.7715H6.10121C5.9842 12.7711 5.86829 12.7942 5.76031 12.8393C5.65234 12.8844 5.55448 12.9506 5.47251 13.0341C5.30575 13.2036 5.21122 13.4332 5.21033 13.6735V18.1119C5.21122 18.3522 5.30575 18.5823 5.47296 18.7513C5.63972 18.9207 5.86534 19.0148 6.10077 19.0139H11.6119C11.729 19.0143 11.8449 18.9913 11.9528 18.9462C12.0608 18.901 12.1587 18.8348 12.2406 18.7513C12.4074 18.5819 12.5019 18.3522 12.5028 18.1119V13.6735C12.5023 13.4343 12.4082 13.2048 12.2406 13.0341C12.1587 12.9506 12.0608 12.8844 11.9528 12.8393C11.8449 12.7942 11.729 12.7711 11.6119 12.7715H11.6124ZM7.40499 15.5405C6.97738 15.5405 6.63093 15.1864 6.63093 14.7494C6.63093 14.3125 6.97738 13.9584 7.40543 13.9584C7.83304 13.9584 8.17949 14.3125 8.17949 14.7494C8.17949 15.1864 7.83304 15.5405 7.40543 15.5405H7.40499Z"
    fill="white" style="fill:white;fill-opacity:1;" />
</svg>
