<svg width="24" height="24" viewBox="0 0 24 24" fill="none" xmlns="http://www.w3.org/2000/svg">
  <path
    d="M7.82839 16.5205C7.52909 16.5113 5.58761 16.3838 5.6251 14.668H5.62505C5.63652 14.146 6.21408 12.7357 8.45137 12.9675C9.63298 13.0898 10.9643 13.8048 11.2263 13.9311C11.4883 14.0574 11.7551 14.1954 12.0264 14.3452C11.989 14.3826 11.9515 14.4178 11.9141 14.4505C11.8767 14.4833 10.8616 15.4379 10.2393 15.8076C9.61688 16.1772 8.81773 16.5508 7.82839 16.5205ZM21.1197 16.106C17.7189 15.5631 14.497 14.0222 14.497 14.0222C14.9182 13.4795 15.2574 12.9507 15.5148 12.436C15.7721 11.9214 15.9664 11.4628 16.0974 11.0605C16.2548 10.5977 16.3661 10.1579 16.4319 9.74092H16.4342V9.72694C16.4335 9.73152 16.4327 9.73624 16.4319 9.74092H13.1635V8.18287H17.2766V7.50902H13.1635V5.89469H12.0825C11.9048 5.89469 11.7456 5.90878 11.6053 5.93694C11.4836 5.9556 11.376 5.99065 11.2824 6.04215C11.1888 6.09364 11.1421 6.16146 11.1421 6.24572V7.509H7.14128V8.18284H11.142V9.7409H8.26428V10.4147H14.3568C14.338 10.4896 14.296 10.6206 14.2304 10.8077C14.1649 10.9949 14.0712 11.2265 13.9496 11.5027C13.8279 11.7787 13.6735 12.0828 13.4863 12.4151C13.2992 12.7472 13.07 13.0864 12.7985 13.4328C12.6675 13.3859 12.5412 13.3391 12.4195 13.2924C12.2978 13.2456 12.1807 13.1988 12.0686 13.152C11.7878 13.0303 11.4906 12.904 11.1771 12.7729C10.8636 12.642 10.5314 12.5204 10.1804 12.408C9.82947 12.2957 9.46215 12.1998 9.07837 12.1202C8.69468 12.0407 8.29694 11.9916 7.88517 11.9729C7.46409 11.9542 7.04522 12.0056 6.62882 12.1272C6.21242 12.2489 5.83329 12.4267 5.49172 12.6607C5.15011 12.8946 4.87163 13.1801 4.65638 13.517C4.44123 13.854 4.3289 14.2282 4.31952 14.6401C4.31952 15.1173 4.41787 15.5361 4.61436 15.8963C4.81083 16.2566 5.07766 16.5561 5.41447 16.7947C5.75141 17.0333 6.14679 17.2135 6.60073 17.3351C7.05465 17.4568 7.53887 17.5177 8.05362 17.5177H8.27828C8.30632 17.5177 8.32978 17.5129 8.34844 17.5036C8.54491 17.4942 8.79303 17.4732 9.09248 17.4404C9.3919 17.4076 9.7405 17.3281 10.1383 17.2018C10.536 17.0753 10.9825 16.893 11.4579 16.6192C11.9991 16.3073 13.4863 15.1172 13.4863 15.1172C16.4735 16.4442 18.4187 17.2521 20.2503 17.6506C18.4481 20.2768 15.4248 21.9995 11.999 21.9995C6.47618 21.9995 1.99902 17.5226 1.99902 12C1.99902 6.47734 6.47621 2.00049 11.999 2.00049C17.5219 2.00049 21.999 6.47739 21.999 12C21.999 13.4633 21.6846 14.8533 21.1197 16.106Z"
    fill="#15181D" style="fill:#15181D;fill:color(display-p3 0.0824 0.0941 0.1137);fill-opacity:1;" />
</svg>
