<svg width="24" height="24" viewBox="0 0 24 24" fill="none" xmlns="http://www.w3.org/2000/svg">
  <path fill-rule="evenodd" clip-rule="evenodd"
    d="M12 22C17.5228 22 22 17.5228 22 12C22 6.47715 17.5228 2 12 2C6.47715 2 2 6.47715 2 12C2 17.5228 6.47715 22 12 22ZM16.3823 12.3944C16.5336 12.7874 16.6826 13.1975 16.7917 13.5491C17.3129 15.2251 17.144 15.9187 17.0174 15.9334C16.7407 15.9669 15.9443 14.6716 15.9443 14.6716C15.9443 15.4218 15.5589 16.4005 14.7227 17.1073C15.0353 17.2036 15.4187 17.3517 15.6648 17.5333C15.8862 17.6978 15.8583 17.8642 15.8185 17.9315C15.6437 18.2269 12.8158 18.1198 11.9992 18.0278C11.1829 18.1198 8.35503 18.2265 8.17983 17.9315C8.14001 17.8634 8.11254 17.697 8.33353 17.5333C8.58 17.3517 8.96265 17.2036 9.27522 17.1073C8.43984 16.4005 8.05361 15.4218 8.05361 14.6716C8.05361 14.6716 7.25406 15.9669 6.97852 15.9334C6.84991 15.9179 6.68108 15.2243 7.2019 13.5483C7.3114 13.1975 7.46032 12.7874 7.61123 12.3936L8.16271 11.0183L8.16254 11.0117C8.16138 10.9662 8.15514 10.7218 8.15514 10.5914C8.15514 8.23899 9.26567 5.875 11.9968 5.875C14.7279 5.875 15.8388 8.23899 15.8388 10.5922C15.8388 10.6964 15.8346 10.8733 15.8325 10.9635C15.8317 10.9943 15.8313 11.0149 15.8313 11.0191L16.3823 12.3944Z"
    fill="#15181D" style="fill:#15181D;fill:color(display-p3 0.0824 0.0941 0.1137);fill-opacity:1;" />
</svg>
