<svg width="24" height="24" viewBox="0 0 24 24" fill="none" xmlns="http://www.w3.org/2000/svg">
  <path fill-rule="evenodd" clip-rule="evenodd"
    d="M12 22C17.5228 22 22 17.5228 22 12C22 6.47715 17.5228 2 12 2C6.47715 2 2 6.47715 2 12C2 17.5228 6.47715 22 12 22ZM10.3027 7.01221C7.85733 7.01221 5.875 8.67727 5.875 10.731C5.875 11.8518 6.47147 12.8605 7.40484 13.5421C7.47983 13.596 7.52886 13.6845 7.52886 13.7846C7.52886 13.8176 7.52187 13.8476 7.51322 13.8794L7.47882 14.0087L7.31377 14.6295C7.31148 14.6381 7.30889 14.6469 7.30628 14.6557C7.29824 14.6827 7.29003 14.7104 7.29003 14.7382C7.29003 14.8204 7.35603 14.8868 7.43757 14.8868C7.46974 14.8868 7.49581 14.875 7.52276 14.8592L8.49229 14.2951C8.56506 14.2529 8.64216 14.2268 8.72724 14.2268C8.77261 14.2268 8.81621 14.2336 8.85737 14.2462C9.30963 14.3773 9.79739 14.4501 10.3027 14.4501C10.3843 14.4501 10.4653 14.4479 10.5458 14.4443C10.4496 14.1541 10.3972 13.8487 10.3972 13.5328C10.3972 11.6597 12.205 10.1411 14.4353 10.1411C14.4963 10.1411 14.523 10.1426 14.5667 10.145L14.6162 10.1475C14.2828 8.37088 12.5116 7.01221 10.3027 7.01221ZM8.82697 10.0687C8.53766 10.0687 8.30327 9.83239 8.30327 9.54109C8.30327 9.24967 8.53766 9.0135 8.82697 9.0135C9.11583 9.0135 9.35023 9.24967 9.35023 9.54109C9.35023 9.83239 9.11583 10.0687 8.82697 10.0687ZM11.7786 10.0686C11.4895 10.0686 11.2551 9.83239 11.2551 9.54109C11.2551 9.24967 11.4895 9.0135 11.7786 9.0135C12.0677 9.0135 12.3021 9.24967 12.3021 9.54109C12.3021 9.83239 12.0677 10.0686 11.7786 10.0686ZM16.8502 15.8753C17.628 15.3071 18.125 14.4666 18.125 13.5328C18.125 11.8211 16.4731 10.4338 14.4352 10.4338C12.3975 10.4338 10.7455 11.8211 10.7455 13.5328C10.7455 15.2444 12.3975 16.6319 14.4352 16.6319C14.8562 16.6319 15.2628 16.5713 15.6397 16.4621C15.674 16.4516 15.7104 16.4457 15.7482 16.4457C15.819 16.4457 15.8833 16.4674 15.9441 16.5028L16.7517 16.9729C16.7743 16.9858 16.7962 16.996 16.8229 16.996C16.8909 16.996 16.9459 16.9404 16.9459 16.8721C16.9459 16.8491 16.9392 16.8264 16.9325 16.8041C16.9303 16.7964 16.928 16.7889 16.9261 16.7814L16.9214 16.7638L16.7598 16.1563C16.7527 16.13 16.7468 16.1047 16.7468 16.0773C16.7468 15.9941 16.7876 15.9202 16.8502 15.8753ZM13.2053 13.0053C12.951 13.0053 12.7446 12.7975 12.7446 12.5411C12.7446 12.2847 12.951 12.0768 13.2053 12.0768C13.4598 12.0768 13.666 12.2847 13.666 12.5411C13.666 12.7975 13.4598 13.0053 13.2053 13.0053ZM15.6652 13.0053C15.4108 13.0053 15.2048 12.7975 15.2048 12.5411C15.2048 12.2847 15.4108 12.0768 15.6652 12.0768C15.9197 12.0768 16.1259 12.2847 16.1259 12.5411C16.1259 12.7975 15.9197 13.0053 15.6652 13.0053Z"
    fill="#15181D" style="fill:#15181D;fill:color(display-p3 0.0824 0.0941 0.1137);fill-opacity:1;" />
</svg>
