<svg width="24" height="25" viewBox="0 0 24 25" fill="none" xmlns="http://www.w3.org/2000/svg">
  <path
    d="M6.25 8.75391C6.25 5.57827 8.82436 3.00391 12 3.00391C15.1756 3.00391 17.75 5.57827 17.75 8.75391V11.7539C17.75 14.9295 15.1756 17.5039 12 17.5039C8.82436 17.5039 6.25 14.9295 6.25 11.7539V8.75391ZM12 4.50391C9.65279 4.50391 7.75 6.4067 7.75 8.75391V11.7539C7.75 14.1011 9.65279 16.0039 12 16.0039C14.3472 16.0039 16.25 14.1011 16.25 11.7539V8.75391C16.25 6.4067 14.3472 4.50391 12 4.50391ZM4 10.0039C4.41421 10.0039 4.75 10.3397 4.75 10.7539V11.7539C4.75 15.758 7.99594 19.0039 12 19.0039C16.0041 19.0039 19.25 15.758 19.25 11.7539V10.7539C19.25 10.3397 19.5858 10.0039 20 10.0039C20.4142 10.0039 20.75 10.3397 20.75 10.7539V11.7539C20.75 16.3338 17.2314 20.0918 12.75 20.4722V22.7539C12.75 23.1681 12.4142 23.5039 12 23.5039C11.5858 23.5039 11.25 23.1681 11.25 22.7539V20.4722C6.7686 20.0918 3.25 16.3338 3.25 11.7539V10.7539C3.25 10.3397 3.58579 10.0039 4 10.0039Z"
    fill="#15181D" style="fill:#15181D;fill:#15181D;fill-opacity:1;" />
</svg>
