<?xml version="1.0" encoding="utf-8"?>
<!-- Generator: Adobe Illustrator 25.0.0, SVG Export Plug-In . SVG Version: 6.00 Build 0)  -->
<svg version="1.1" id="图层_1" xmlns="http://www.w3.org/2000/svg" xmlns:xlink="http://www.w3.org/1999/xlink" x="0px" y="0px"
	 viewBox="0 0 200 200" style="enable-background:new 0 0 200 200;" xml:space="preserve">
<style type="text/css">
	.st0{fill:#366EF4;}
</style>
<path class="st0" d="M101.2,89.6c-0.6-0.8-1.8-0.8-2.5,0l-21.9,27.7c-0.8,1-0.1,2.5,1.2,2.5h14.4v47.3c0,0.9,0.7,1.6,1.6,1.6h11.7
	c0.9,0,1.6-0.7,1.6-1.6v-47.3h14.5c1.3,0,2-1.5,1.2-2.5L101.2,89.6z"/>
<path class="st0" d="M158.5,71.6C149.5,48,126.7,31.2,100,31.2S50.5,48,41.6,71.6C24.9,76,12.5,91.2,12.5,109.4
	c0,21.6,17.5,39.1,39,39.1h7.8c0.9,0,1.6-0.7,1.6-1.6v-11.7c0-0.9-0.7-1.6-1.6-1.6h-7.8c-6.6,0-12.8-2.6-17.4-7.4
	c-4.6-4.7-7-11.1-6.8-17.7c0.2-5.2,1.9-10,5.1-14.1c3.3-4.2,7.8-7.2,12.9-8.5l7.4-1.9l2.7-7.1c1.7-4.5,4-8.6,7-12.4
	c2.9-3.8,6.4-7,10.2-9.7c8-5.6,17.5-8.6,27.3-8.6s19.3,3,27.3,8.6c3.9,2.7,7.3,6,10.2,9.7c2.9,3.8,5.3,7.9,7,12.4l2.7,7.1l7.4,2
	c10.6,2.9,18,12.5,18,23.5c0,6.5-2.5,12.6-7.1,17.1s-10.6,7.1-17.1,7.1h-7.8c-0.9,0-1.6,0.7-1.6,1.6v11.7c0,0.9,0.7,1.6,1.6,1.6h7.8
	c21.6,0,39-17.5,39-39.1C187.5,91.3,175.2,76,158.5,71.6z"/>
</svg>
