<svg width="14" height="14" viewBox="0 0 14 14" fill="none" xmlns="http://www.w3.org/2000/svg">
<path d="M1.99995 0.921911C1.99995 0.337268 2.52001 0 2.9953 0H7.36584C7.63437 0 7.89162 0.108 8.07968 0.299689L11.7139 4.00415C11.8972 4.19093 11.9999 4.44209 12.0001 4.70375L12.0046 11.0777C12.0046 11.6624 11.4846 12 11.0093 12H2.99995C2.52472 12 2.00474 11.6628 2.00461 11.0783L1.99995 0.921911ZM2.99999 1L3.00457 11H11.0046L11.0003 5.01275H7.00004V1H2.99999ZM8.00004 1.64645V4.01275H10.3215L8.00004 1.64645Z" fill="black" fill-opacity="0.9" style="fill:black;fill-opacity:0.9;"/>
<path d="M0 4.00001V13.0128C0 13.565 0.447716 14.0128 1 14.0128H9V13.0128L1 13.0128V4.00001H0Z" fill="black" fill-opacity="0.9" style="fill:black;fill-opacity:0.9;"/>
</svg>
