<svg width="24" height="25" viewBox="0 0 24 25" fill="none" xmlns="http://www.w3.org/2000/svg">
  <path
    d="M9.4466 16.1514C9.11383 15.9048 8.64412 15.9746 8.39746 16.3073C8.1508 16.6401 8.22061 17.1098 8.55337 17.3565C9.52578 18.0773 10.715 18.504 12 18.504C13.285 18.504 14.4742 18.0773 15.4466 17.3565C15.7794 17.1098 15.8492 16.6401 15.6025 16.3073C15.3559 15.9746 14.8861 15.9048 14.5534 16.1514C13.825 16.6913 12.9459 17.004 12 17.004C11.0541 17.004 10.1749 16.6913 9.4466 16.1514Z"
    fill="#15181D" style="fill:#15181D;fill:#15181D;fill-opacity:1;" />
  <path
    d="M16 11.2539C16 12.0823 15.5523 12.7539 15 12.7539C14.4477 12.7539 14 12.0823 14 11.2539C14 10.4255 14.4477 9.75391 15 9.75391C15.5523 9.75391 16 10.4255 16 11.2539Z"
    fill="#15181D" style="fill:#15181D;fill:#15181D;fill-opacity:1;" />
  <path
    d="M9 12.7539C9.55229 12.7539 10 12.0823 10 11.2539C10 10.4255 9.55229 9.75391 9 9.75391C8.44771 9.75391 8 10.4255 8 11.2539C8 12.0823 8.44771 12.7539 9 12.7539Z"
    fill="#15181D" style="fill:#15181D;fill:#15181D;fill-opacity:1;" />
  <path
    d="M12 2.00391C6.06294 2.00391 1.25 6.81685 1.25 12.7539C1.25 18.691 6.06294 23.5039 12 23.5039C17.9371 23.5039 22.75 18.691 22.75 12.7539C22.75 6.81685 17.9371 2.00391 12 2.00391ZM2.75 12.7539C2.75 7.64527 6.89137 3.50391 12 3.50391C17.1086 3.50391 21.25 7.64527 21.25 12.7539C21.25 17.8625 17.1086 22.0039 12 22.0039C6.89137 22.0039 2.75 17.8625 2.75 12.7539Z"
    fill="#15181D" style="fill:#15181D;fill:#15181D;fill-opacity:1;" />
</svg>
