<svg width="24" height="25" viewBox="0 0 24 25" fill="none" xmlns="http://www.w3.org/2000/svg">
  <path
    d="M9.75 4.50392C10 4.50392 10.0707 4.50483 10.1225 4.50994C10.716 4.56839 11.1855 5.03793 11.244 5.6314C11.2491 5.68327 11.25 5.7539 11.25 6.00392L11.25 6.04056V6.04059C11.2499 6.23687 11.2499 6.38809 11.2632 6.52347C11.3918 7.8291 12.4248 8.86208 13.7305 8.99068C13.8658 9.00401 14.0171 9.00397 14.2134 9.00392L14.25 9.00392H17C17.964 9.00392 18.6116 9.00551 19.0946 9.07045C19.5561 9.1325 19.7536 9.23972 19.8839 9.37003C20.0142 9.50035 20.1214 9.69785 20.1835 10.1593C20.2484 10.6423 20.25 11.2899 20.25 12.2539V17.7539C20.25 18.7179 20.2484 19.3655 20.1835 19.8485C20.1214 20.31 20.0142 20.5075 19.8839 20.6378C19.7536 20.7681 19.5561 20.8754 19.0946 20.9374C18.6116 21.0023 17.964 21.0039 17 21.0039H7C6.03599 21.0039 5.38843 21.0023 4.9054 20.9374C4.44393 20.8754 4.24644 20.7681 4.11612 20.6378C3.9858 20.5075 3.87858 20.31 3.81654 19.8485C3.7516 19.3655 3.75 18.7179 3.75 17.7539V7.75392C3.75 6.78991 3.7516 6.14235 3.81654 5.65931C3.87858 5.19785 3.9858 5.00035 4.11612 4.87003C4.24644 4.73972 4.44393 4.6325 4.9054 4.57045C5.38843 4.50551 6.03599 4.50392 7 4.50392H9.75ZM10.2696 3.01716C10.1342 3.00383 9.98293 3.00386 9.78663 3.00391L9.75 3.00392L6.948 3.00392C6.04952 3.00389 5.3003 3.00386 4.70552 3.08383C4.07773 3.16823 3.51093 3.3539 3.05546 3.80937C2.59999 4.26484 2.41432 4.83164 2.32991 5.45944C2.24995 6.05421 2.24997 6.80342 2.25 7.70189V7.70192V17.8059V17.806C2.24997 18.7044 2.24995 19.4536 2.32991 20.0484C2.41432 20.6762 2.59999 21.243 3.05546 21.6985C3.51093 22.1539 4.07773 22.3396 4.70552 22.424C5.30031 22.504 6.04953 22.504 6.94801 22.5039H17.052C17.9505 22.504 18.6997 22.504 19.2945 22.424C19.9223 22.3396 20.4891 22.1539 20.9445 21.6985C21.4 21.243 21.5857 20.6762 21.6701 20.0484C21.7501 19.4536 21.75 18.7044 21.75 17.8059V12.2019C21.75 11.3034 21.7501 10.5542 21.6701 9.95944C21.5857 9.33164 21.4 8.76484 20.9445 8.30937C20.7075 8.07233 20.4403 7.90836 20.15 7.79371V6.95391L20.15 6.92462C20.1501 6.76757 20.1501 6.64659 20.1415 6.53809C20.0354 5.18961 18.9643 4.11855 17.6158 4.0124C17.5074 4.00385 17.3864 4.00388 17.2293 4.00391L17.2 4.00391H12.1214C11.6713 3.45865 11.0148 3.09056 10.2696 3.01716ZM12.7386 5.50391H17.2C17.4 5.50391 17.4566 5.5045 17.4981 5.50777C18.1111 5.55602 18.5979 6.04287 18.6462 6.65581C18.6494 6.69738 18.65 6.75391 18.65 6.95391V7.52765C18.1849 7.50388 17.6517 7.5039 17.052 7.50392L14.25 7.50392C14 7.50392 13.9294 7.50301 13.8775 7.4979C13.284 7.43945 12.8145 6.96991 12.756 6.37644C12.7509 6.32457 12.75 6.25393 12.75 6.00392L12.75 5.96727V5.96724C12.7501 5.78035 12.7501 5.63432 12.7386 5.50391ZM12.25 10.7539C12.25 10.3397 12.5858 10.0039 13 10.0039H18C18.4142 10.0039 18.75 10.3397 18.75 10.7539C18.75 11.1681 18.4142 11.5039 18 11.5039H13C12.5858 11.5039 12.25 11.1681 12.25 10.7539Z"
    fill="#15181D" style="fill:#15181D;fill:#15181D;fill-opacity:1;" />
</svg>
