<svg width="24" height="25" viewBox="0 0 24 25" fill="none" xmlns="http://www.w3.org/2000/svg">
  <path
    d="M10.4526 4.91552C10.7049 4.63593 11.0653 4.49626 11.421 4.50423C11.7253 4.51104 11.9683 4.65011 12.119 4.74697C12.2727 4.8458 12.4508 4.98363 12.6386 5.12901L21.0416 11.6327C21.1468 11.7141 21.2598 11.8015 21.3497 11.8842C21.4474 11.9741 21.5845 12.1165 21.6678 12.326C21.7774 12.6014 21.7774 12.9064 21.6678 13.1818C21.5845 13.3913 21.4474 13.5337 21.3497 13.6236C21.2598 13.7063 21.1468 13.7937 21.0417 13.8751L12.6386 20.3788C12.4508 20.5242 12.2727 20.662 12.119 20.7608C11.9683 20.8577 11.7253 20.9968 11.421 21.0036C11.0653 21.0115 10.7049 20.8719 10.4526 20.5923C10.2286 20.3441 10.1832 20.0446 10.1659 19.8718C10.1482 19.695 10.1483 19.4772 10.1483 19.2574L10.1483 16.316C9.08875 16.4542 8.05723 16.737 7.09006 17.156C5.71996 17.7495 4.51412 18.6008 3.55214 19.6472C3.34295 19.8747 3.01559 19.9507 2.7276 19.8384C2.43962 19.7261 2.25 19.4487 2.25 19.1396V18.594C2.25134 16.2687 3.20135 14.0389 4.89547 12.3277C6.30142 10.9076 8.13821 9.92557 10.1483 9.48823V6.28113C10.1483 6.27089 10.1483 6.26065 10.1483 6.25041C10.1483 6.03058 10.1482 5.81279 10.1659 5.63604C10.1832 5.46322 10.2286 5.1637 10.4526 4.91552ZM11.6483 6.25947C11.6483 6.26661 11.6483 6.27383 11.6483 6.28113V10.1103C11.6483 10.4793 11.3799 10.7935 11.0154 10.8511C9.05634 11.1606 7.27602 12.0552 5.96143 13.3831C4.84892 14.5068 4.13056 15.8784 3.86517 17.3302C4.66209 16.7118 5.54568 16.1903 6.49383 15.7796C7.86461 15.1858 9.34389 14.8351 10.8525 14.7426C11.059 14.73 11.2615 14.8032 11.4122 14.9449C11.5629 15.0867 11.6483 15.2844 11.6483 15.4912V19.2267C11.6483 19.234 11.6483 19.2412 11.6483 19.2483C11.6778 19.2256 11.7094 19.2012 11.7431 19.1751L20.0395 12.7539L11.7431 6.33275C11.7094 6.30662 11.6778 6.28224 11.6483 6.25947Z"
    fill="#366EF4" style="fill:#366EF4;fill:#366EF4;fill-opacity:1;" />
</svg>
