<svg width="16" height="16" viewBox="0 0 16 16" fill="none" xmlns="http://www.w3.org/2000/svg">
<path fill-rule="evenodd" clip-rule="evenodd" d="M11.7267 3.95645C9.58741 1.8113 6.11162 1.8113 3.97229 3.95701C1.95554 5.97858 1.96964 9.08336 3.5622 11.455L3.74291 11.7241L2.73989 13.3273C3.08629 13.3254 3.51032 13.3235 3.9739 13.3225C5.17862 13.3199 6.65535 13.3231 7.73052 13.3464C9.17333 13.3776 10.6237 12.8425 11.7267 11.7365C13.867 9.59036 13.8708 6.10635 11.7267 3.95645ZM1.83786 14.3335L0.925655 14.3417L2.55519 11.7371C0.929827 9.08788 0.92171 5.59908 3.26413 3.25095C5.79421 0.713332 9.90472 0.713332 12.4348 3.2503C14.9686 5.79097 14.9639 9.90666 12.4348 12.4426C11.1313 13.7497 9.41395 14.3831 7.70885 14.3461C6.64657 14.3231 5.18015 14.3199 3.97608 14.3225C3.37473 14.3238 2.84003 14.3266 2.45569 14.329C2.26353 14.3302 2.10899 14.3314 2.00252 14.3322L1.83786 14.3335Z" fill="#15181D" style="fill:#15181D;fill:color(display-p3 0.0824 0.0941 0.1137);fill-opacity:1;"/>
<path fill-rule="evenodd" clip-rule="evenodd" d="M4.97729 7.75439H6.04312V8.75439H4.97729V7.75439Z" fill="#15181D" style="fill:#15181D;fill:color(display-p3 0.0824 0.0941 0.1137);fill-opacity:1;"/>
<path fill-rule="evenodd" clip-rule="evenodd" d="M7.46679 7.75439H8.53262V8.75439H7.46679V7.75439Z" fill="#15181D" style="fill:#15181D;fill:color(display-p3 0.0824 0.0941 0.1137);fill-opacity:1;"/>
<path fill-rule="evenodd" clip-rule="evenodd" d="M9.95638 7.75439H11.0222V8.75439H9.95638V7.75439Z" fill="#15181D" style="fill:#15181D;fill:color(display-p3 0.0824 0.0941 0.1137);fill-opacity:1;"/>
</svg>
