<svg width="24" height="20" viewBox="0 0 24 20" fill="none" xmlns="http://www.w3.org/2000/svg">
  <path
    d="M12 6C12.8284 6 13.5 5.32841 13.5 4.5C13.5 3.67159 12.8284 3 12 3C11.1716 3 10.5 3.67159 10.5 4.5C10.5 5.32841 11.1716 6 12 6Z"
    fill="#15181D" 
 style="fill:#15181D;fill:color(display-p3 0.0824 0.0941 0.1137);fill-opacity:1;" />
  <path
    d="M12 13.5C12.8284 13.5 13.5 12.8284 13.5 12C13.5 11.1716 12.8284 10.5 12 10.5C11.1716 10.5 10.5 11.1716 10.5 12C10.5 12.8284 11.1716 13.5 12 13.5Z"
    fill="#15181D" 
 style="fill:#15181D;fill:color(display-p3 0.0824 0.0941 0.1137);fill-opacity:1;" />
  <path
    d="M13.5 19.5C13.5 20.3284 12.8284 21 12 21C11.1716 21 10.5 20.3284 10.5 19.5C10.5 18.6716 11.1716 18 12 18C12.8284 18 13.5 18.6716 13.5 19.5Z"
    fill="#15181D" 
 style="fill:#15181D;fill:color(display-p3 0.0824 0.0941 0.1137);fill-opacity:1;" />
</svg>
