<svg width="14" height="13" viewBox="0 0 14 13" fill="none" xmlns="http://www.w3.org/2000/svg">
<path fill-rule="evenodd" clip-rule="evenodd" d="M5.41421 9.5L7 11.0858L8.58579 9.5H12.5V1.5H1.5V9.5H5.41421ZM9 10.5H12.5C13.0523 10.5 13.5 10.0523 13.5 9.5V1.5C13.5 0.947715 13.0523 0.5 12.5 0.5H1.5C0.947715 0.5 0.5 0.947716 0.5 1.5V9.5C0.5 10.0523 0.947715 10.5 1.5 10.5H5L6.29289 11.7929C6.68342 12.1834 7.31658 12.1834 7.70711 11.7929L9 10.5Z" fill="black" style="fill:black;fill-opacity:1;"/>
<rect x="3.5" y="5" width="1" height="1" fill="black" style="fill:black;fill-opacity:1;"/>
<rect x="6.5" y="5" width="1" height="1" fill="black" style="fill:black;fill-opacity:1;"/>
<rect x="9.5" y="5" width="1" height="1" fill="black" style="fill:black;fill-opacity:1;"/>
</svg>
