<svg width="24" height="25" viewBox="0 0 24 25" fill="none" xmlns="http://www.w3.org/2000/svg">
  <path
    d="M6.948 3.00391L7 3.00391H17L17.052 3.00391H17.052C17.9505 3.00388 18.6997 3.00386 19.2945 3.08382C19.9223 3.16823 20.4891 3.3539 20.9445 3.80937C21.4 4.26484 21.5857 4.83164 21.6701 5.45943C21.7501 6.05421 21.75 6.80343 21.75 7.70191V7.75391V17.7539V17.8059C21.75 18.7044 21.7501 19.4536 21.6701 20.0484C21.5857 20.6762 21.4 21.243 20.9445 21.6985C20.4891 22.1539 19.9223 22.3396 19.2945 22.424C18.6997 22.504 17.9505 22.5039 17.052 22.5039H17H7H6.94801C6.04953 22.5039 5.30031 22.504 4.70552 22.424C4.07773 22.3396 3.51093 22.1539 3.05546 21.6985C2.59999 21.243 2.41432 20.6762 2.32991 20.0484C2.24995 19.4536 2.24997 18.7044 2.25 17.8059V17.8059L2.25 17.7539V7.75391L2.25 7.70191V7.70188C2.24997 6.80341 2.24995 6.0542 2.32991 5.45943C2.41432 4.83164 2.59999 4.26484 3.05546 3.80937C3.51093 3.3539 4.07773 3.16823 4.70552 3.08382C5.3003 3.00386 6.04951 3.00388 6.94797 3.00391H6.948ZM4.9054 4.57045C4.44393 4.63249 4.24644 4.73971 4.11612 4.87003C3.9858 5.00034 3.87858 5.19784 3.81654 5.6593C3.7516 6.14234 3.75 6.7899 3.75 7.75391V16.643L5.34095 15.052L5.37772 15.0152C6.01302 14.3799 6.54278 13.8501 7.0199 13.4861C7.5235 13.1018 8.05558 12.8323 8.69971 12.8323C9.34384 12.8323 9.87592 13.1018 10.3795 13.4861C10.8566 13.8501 11.3864 14.3799 12.0217 15.0152L12.0217 15.0152L12.0585 15.052L18.0058 20.9993C18.4511 20.9927 18.8029 20.9766 19.0946 20.9374C19.5561 20.8753 19.7536 20.7681 19.8839 20.6378C20.0142 20.5075 20.1214 20.31 20.1835 19.8485C20.2484 19.3655 20.25 18.7179 20.25 17.7539V7.75391C20.25 6.7899 20.2484 6.14234 20.1835 5.6593C20.1214 5.19784 20.0142 5.00034 19.8839 4.87003C19.7536 4.73971 19.5561 4.63249 19.0946 4.57045C18.6116 4.5055 17.964 4.50391 17 4.50391H7C6.03599 4.50391 5.38843 4.5055 4.9054 4.57045ZM3.81654 19.8485C3.87858 20.31 3.9858 20.5075 4.11612 20.6378C4.24644 20.7681 4.44393 20.8753 4.9054 20.9374C5.38843 21.0023 6.03599 21.0039 7 21.0039H15.8891L10.9978 16.1127C10.3161 15.431 9.85713 14.9742 9.46965 14.6786C9.09948 14.3962 8.88401 14.3323 8.69971 14.3323C8.51542 14.3323 8.29995 14.3962 7.92977 14.6786C7.54229 14.9742 7.08327 15.431 6.40161 16.1127L3.75459 18.7597C3.7612 19.205 3.77731 19.5568 3.81654 19.8485ZM13.4497 9.75391C13.4497 8.78741 14.2332 8.00391 15.1997 8.00391C16.1662 8.00391 16.9497 8.78741 16.9497 9.75391C16.9497 10.7204 16.1662 11.5039 15.1997 11.5039C14.2332 11.5039 13.4497 10.7204 13.4497 9.75391ZM15.1997 6.50391C13.4048 6.50391 11.9497 7.95898 11.9497 9.75391C11.9497 11.5488 13.4048 13.0039 15.1997 13.0039C16.9946 13.0039 18.4497 11.5488 18.4497 9.75391C18.4497 7.95898 16.9946 6.50391 15.1997 6.50391Z"
    fill="#366EF4" style="fill:#366EF4;fill:#366EF4;fill-opacity:1;" />
</svg>
