<svg width="24" height="25" viewBox="0 0 24 25" fill="none" xmlns="http://www.w3.org/2000/svg">
  <path
    d="M3.75 12.3039C3.75 7.99609 7.24218 4.50391 11.55 4.50391C15.8578 4.50391 19.35 7.99609 19.35 12.3039C19.35 16.6117 15.8578 20.1039 11.55 20.1039C7.24218 20.1039 3.75 16.6117 3.75 12.3039ZM11.55 3.00391C6.41375 3.00391 2.25 7.16766 2.25 12.3039C2.25 17.4402 6.41375 21.6039 11.55 21.6039C13.848 21.6039 15.9514 20.7704 17.5743 19.3892L20.4693 22.2842C20.7622 22.5771 21.237 22.5771 21.5299 22.2842C21.8228 21.9913 21.8228 21.5165 21.5299 21.2236L18.635 18.3286C20.0164 16.7057 20.85 14.6021 20.85 12.3039C20.85 7.16766 16.6862 3.00391 11.55 3.00391Z"
    fill="#366EF4" style="fill:#366EF4;fill:#366EF4;fill-opacity:1;" />
</svg>
