<svg width="14" height="12" viewBox="0 0 14 12" fill="none" xmlns="http://www.w3.org/2000/svg">
<path fill-rule="evenodd" clip-rule="evenodd" d="M5.96838 0.774411C6.13662 0.588017 6.37689 0.494904 6.61401 0.500215C6.81686 0.504758 6.97884 0.597469 7.07931 0.662039C7.18183 0.727929 7.30053 0.819815 7.42572 0.916735L13.0277 5.25253C13.0979 5.30678 13.1732 5.36506 13.2331 5.42018C13.2983 5.48011 13.3896 5.57504 13.4452 5.71471C13.5183 5.89835 13.5183 6.10165 13.4452 6.28529C13.3896 6.42496 13.2983 6.51989 13.2331 6.57981C13.1732 6.63493 13.0979 6.6932 13.0278 6.74744L7.42571 11.0833C7.30052 11.1802 7.18183 11.2721 7.07931 11.338C6.97884 11.4025 6.81686 11.4952 6.61401 11.4998C6.37689 11.5051 6.13662 11.412 5.96838 11.2256C5.81905 11.0601 5.78881 10.8605 5.77728 10.7452C5.7655 10.6274 5.76552 10.4822 5.76555 10.3357L5.76555 8.37473C5.05917 8.46684 4.37149 8.65541 3.72671 8.93472C2.81331 9.33038 2.00941 9.89792 1.36809 10.5955C1.22863 10.7472 1.01039 10.7978 0.818403 10.723C0.626414 10.6482 0.5 10.4632 0.5 10.2571V9.89341C0.500892 8.34322 1.13424 6.85668 2.26364 5.71589C3.20094 4.76915 4.42547 4.11444 5.76555 3.82288V1.68482C5.76555 1.67799 5.76555 1.67116 5.76555 1.66433C5.76552 1.51778 5.7655 1.37259 5.77728 1.25475C5.78881 1.13954 5.81905 0.93986 5.96838 0.774411ZM6.76555 1.67038C6.76555 1.67514 6.76555 1.67995 6.76555 1.68482V4.2376C6.76555 4.48362 6.58658 4.69309 6.34357 4.73148C5.03756 4.93779 3.85068 5.53423 2.97429 6.41945C2.23261 7.16859 1.75371 8.08299 1.57678 9.05083C2.10806 8.63862 2.69712 8.29092 3.32922 8.01711C4.24307 7.62125 5.22926 7.38743 6.23498 7.32583C6.37264 7.3174 6.50767 7.3662 6.60813 7.46069C6.70859 7.55518 6.76555 7.68698 6.76555 7.82489V10.3152C6.76555 10.32 6.76555 10.3249 6.76555 10.3296C6.78523 10.3144 6.80625 10.2982 6.82875 10.2808L12.3597 6L6.82875 1.71923C6.80625 1.70181 6.78523 1.68555 6.76555 1.67038Z"
fill="#366EF4" style="fill:#366EF4;fill:#366EF4;fill-opacity:1;"/>
</svg>
