<svg width="24" height="24" viewBox="0 0 24 24" fill="none" xmlns="http://www.w3.org/2000/svg">
  <mask id="path-1-inside-1_2732_49887" fill="white">
    <rect x="1.99707" y="3" width="20" height="8" rx="1" />
  </mask>
  <rect x="1.99707" y="3" width="20" height="8" rx="1" stroke="#15181D"
    style="stroke:#15181D;stroke:#15181D;stroke-opacity:1;" stroke-width="3"
    mask="url(#path-1-inside-1_2732_49887)" />
  <path fill-rule="evenodd" clip-rule="evenodd"
    d="M5.74707 6C5.74707 5.58579 5.41128 5.25 4.99707 5.25C4.58286 5.25 4.24707 5.58579 4.24707 6V8C4.24707 8.41421 4.58286 8.75 4.99707 8.75C5.41128 8.75 5.74707 8.41421 5.74707 8L5.74707 6ZM7.99707 5.25C8.41128 5.25 8.74707 5.58579 8.74707 6V8C8.74707 8.41421 8.41128 8.75 7.99707 8.75C7.58286 8.75 7.24707 8.41421 7.24707 8L7.24707 6C7.24707 5.58579 7.58286 5.25 7.99707 5.25ZM12.2471 7C12.2471 6.58579 12.5829 6.25 12.9971 6.25H18.9971C19.4113 6.25 19.7471 6.58579 19.7471 7C19.7471 7.41421 19.4113 7.75 18.9971 7.75H12.9971C12.5829 7.75 12.2471 7.41421 12.2471 7Z"
    fill="#15181D" style="fill:#15181D;fill:#15181D;fill-opacity:1;" />
  <mask id="path-3-inside-2_2732_49887" fill="white">
    <rect x="1.99707" y="13" width="20" height="8" rx="1" />
  </mask>
  <rect x="1.99707" y="13" width="20" height="8" rx="1" stroke="#15181D"
    style="stroke:#15181D;stroke:#15181D;stroke-opacity:1;" stroke-width="3"
    mask="url(#path-3-inside-2_2732_49887)" />
  <path fill-rule="evenodd" clip-rule="evenodd"
    d="M5.74707 16C5.74707 15.5858 5.41128 15.25 4.99707 15.25C4.58286 15.25 4.24707 15.5858 4.24707 16V18C4.24707 18.4142 4.58286 18.75 4.99707 18.75C5.41128 18.75 5.74707 18.4142 5.74707 18L5.74707 16ZM7.99707 15.25C8.41128 15.25 8.74707 15.5858 8.74707 16V18C8.74707 18.4142 8.41128 18.75 7.99707 18.75C7.58286 18.75 7.24707 18.4142 7.24707 18L7.24707 16C7.24707 15.5858 7.58286 15.25 7.99707 15.25ZM12.2471 17C12.2471 16.5858 12.5829 16.25 12.9971 16.25H18.9971C19.4113 16.25 19.7471 16.5858 19.7471 17C19.7471 17.4142 19.4113 17.75 18.9971 17.75H12.9971C12.5829 17.75 12.2471 17.4142 12.2471 17Z"
    fill="#15181D" style="fill:#15181D;fill:#15181D;fill-opacity:1;" />
</svg>
