<svg width="24" height="24" viewBox="0 0 24 24" fill="none" xmlns="http://www.w3.org/2000/svg">
<path d="M20 11.5002V7.80342C20 6.12326 20 5.28318 19.673 4.64145C19.3854 4.07696 18.9265 3.61802 18.362 3.3304C17.7202 3.00342 16.8802 3.00342 15.2 3.00342H8.8C7.11984 3.00342 6.27976 3.00342 5.63803 3.3304C5.07354 3.61802 4.6146 4.07696 4.32698 4.64145C4 5.28318 4 6.12326 4 7.80342V16.2002C4 17.8804 4 18.7205 4.32698 19.3622C4.6146 19.9267 5.07354 20.3856 5.63803 20.6732C6.27976 21.0002 7.11984 21.0002 8.8 21.0002H13M14 11.0002H8M10 15.0002H8M16 7.00022H8M18 21.0002V15.0002M15 18.0002H21" stroke="#15181D" style="stroke:#15181D;stroke:color(display-p3 0.0824 0.0941 0.1137);stroke-opacity:1;" stroke-width="1.5" stroke-linecap="round" stroke-linejoin="round"/>
</svg>
