<svg width="24" height="25" viewBox="0 0 24 25" fill="none" xmlns="http://www.w3.org/2000/svg">
  <path
    d="M13.052 4.00391H5.948H5.94797C5.04951 4.00388 4.3003 4.00386 3.70552 4.08382C3.07773 4.16823 2.51093 4.3539 2.05546 4.80937C1.59999 5.26484 1.41432 5.83164 1.32991 6.45943C1.24995 7.0542 1.24997 7.80341 1.25 8.70188V8.70191V16.8059V16.8059C1.24997 17.7044 1.24995 18.4536 1.32991 19.0484C1.41432 19.6762 1.59999 20.243 2.05546 20.6985C2.51093 21.1539 3.07773 21.3396 3.70552 21.424C4.30031 21.504 5.04953 21.5039 5.94801 21.5039H13.052C13.9505 21.5039 14.6997 21.504 15.2945 21.424C15.9223 21.3396 16.4891 21.1539 16.9445 20.6985C17.4 20.243 17.5857 19.6762 17.6701 19.0484C17.7501 18.4536 17.75 17.7044 17.75 16.806V16.8059V16.4674C18.5125 16.8469 19.1608 17.1582 19.7032 17.3357C20.3546 17.5488 21.0456 17.6349 21.6829 17.241C22.3202 16.8471 22.5523 16.1906 22.6529 15.5126C22.7501 14.8585 22.75 13.9969 22.75 12.9617V12.9617V12.5465V12.5464C22.75 11.5113 22.7501 10.6496 22.6529 9.99555C22.5523 9.31756 22.3202 8.66104 21.6829 8.26718C21.0456 7.87331 20.3546 7.95933 19.7032 8.17249C19.1608 8.34997 18.5125 8.66128 17.75 9.04082V8.70192V8.70182C17.75 7.80338 17.7501 7.05419 17.6701 6.45943C17.5857 5.83164 17.4 5.26484 16.9445 4.80937C16.4891 4.3539 15.9223 4.16823 15.2945 4.08382C14.6997 4.00386 13.9505 4.00388 13.052 4.00391H13.052ZM17.75 10.7176L17.9938 10.5957C18.9892 10.098 19.6598 9.76495 20.1697 9.59812C20.669 9.43472 20.8202 9.49735 20.8943 9.54315C20.9684 9.58896 21.092 9.69617 21.1692 10.2159C21.248 10.7465 21.25 11.4953 21.25 12.6082V12.9C21.25 14.0129 21.248 14.7617 21.1692 15.2923C21.092 15.812 20.9684 15.9192 20.8943 15.965C20.8202 16.0108 20.669 16.0735 20.1697 15.9101C19.6598 15.7432 18.9892 15.4101 17.9938 14.9124L17.75 14.7906V10.7176ZM16.25 9.79056V15.7176L16.25 16.7539C16.25 17.7179 16.2484 18.3655 16.1835 18.8485C16.1214 19.31 16.0142 19.5075 15.8839 19.6378C15.7536 19.7681 15.5561 19.8753 15.0946 19.9374C14.6116 20.0023 13.964 20.0039 13 20.0039H6C5.03599 20.0039 4.38843 20.0023 3.9054 19.9374C3.44393 19.8753 3.24644 19.7681 3.11612 19.6378C2.9858 19.5075 2.87858 19.31 2.81654 18.8485C2.7516 18.3655 2.75 17.7179 2.75 16.7539V8.75391C2.75 7.7899 2.7516 7.14234 2.81654 6.6593C2.87858 6.19784 2.9858 6.00034 3.11612 5.87003C3.24644 5.73971 3.44393 5.63249 3.9054 5.57044C4.38843 5.5055 5.03599 5.50391 6 5.50391H13C13.964 5.50391 14.6116 5.5055 15.0946 5.57044C15.5561 5.63249 15.7536 5.73971 15.8839 5.87003C16.0142 6.00034 16.1214 6.19784 16.1835 6.6593C16.2484 7.14234 16.25 7.7899 16.25 8.75391L16.25 9.79056Z"
    fill="#15181D" style="fill:#15181D;fill:#15181D;fill-opacity:1;" />
</svg>
