<svg width="20" height="20" viewBox="0 0 13 12" fill="none" xmlns="http://www.w3.org/2000/svg">
<path fill-rule="evenodd" clip-rule="evenodd" d="M6.58724 11.8332C9.8089 11.8332 12.4206 9.2215 12.4206 5.99984C12.4206 2.77818 9.8089 0.166504 6.58724 0.166504C3.36558 0.166504 0.753906 2.77818 0.753906 5.99984C0.753906 6.93298 0.973016 7.81496 1.36259 8.59711C1.46612 8.80497 1.50058 9.04254 1.44056 9.26686L1.09312 10.5654C0.942296 11.1291 1.458 11.6448 2.02169 11.494L3.32021 11.1465C3.54453 11.0865 3.78211 11.121 3.98996 11.2245C4.77212 11.6141 5.65409 11.8332 6.58724 11.8332ZM4.25391 6.729C4.01228 6.729 3.81641 6.92488 3.81641 7.1665C3.81641 7.40813 4.01228 7.604 4.25391 7.604H7.46224C7.70386 7.604 7.89974 7.40813 7.89974 7.1665C7.89974 6.92488 7.70386 6.729 7.46224 6.729H4.25391ZM3.81641 5.12484C3.81641 4.88321 4.01228 4.68734 4.25391 4.68734H8.92057C9.1622 4.68734 9.35807 4.88321 9.35807 5.12484C9.35807 5.36646 9.1622 5.56234 8.92057 5.56234H4.25391C4.01228 5.56234 3.81641 5.36646 3.81641 5.12484Z" fill="#366EF4" style="fill:#366EF4;fill:color(display-p3 0.2118 0.4314 0.9569);fill-opacity:1;"/>
</svg>
