<svg width="20" height="20" viewBox="0 0 20 20" fill="none" xmlns="http://www.w3.org/2000/svg">
<path fill-rule="evenodd" clip-rule="evenodd" d="M9.99544 18.3327C14.5978 18.3327 18.3288 14.6017 18.3288 9.99935C18.3288 5.39698 14.5978 1.66602 9.99544 1.66602C5.39307 1.66602 1.66211 5.39698 1.66211 9.99935C1.66211 11.3324 1.97512 12.5924 2.53166 13.7097C2.67956 14.0067 2.72878 14.3461 2.64304 14.6665L2.1467 16.5216C1.93124 17.3268 2.66795 18.0636 3.47323 17.8481L5.32826 17.3517C5.64872 17.266 5.98812 17.3152 6.28505 17.4631C7.40241 18.0197 8.66237 18.3327 9.99544 18.3327Z" stroke="#15181D" style="stroke:#15181D;stroke:color(display-p3 0.0824 0.0941 0.1137);stroke-opacity:1;" stroke-width="1.25" stroke-linecap="round"/>
<path d="M6.03711 8.75C6.03711 8.40482 6.31693 8.125 6.66211 8.125H13.3288C13.674 8.125 13.9538 8.40482 13.9538 8.75C13.9538 9.09518 13.674 9.375 13.3288 9.375H6.66211C6.31693 9.375 6.03711 9.09518 6.03711 8.75Z" fill="#15181D" style="fill:#15181D;fill:color(display-p3 0.0824 0.0941 0.1137);fill-opacity:1;"/>
<path d="M6.03711 11.6667C6.03711 11.3215 6.31693 11.0417 6.66211 11.0417H11.2454C11.5906 11.0417 11.8704 11.3215 11.8704 11.6667C11.8704 12.0118 11.5906 12.2917 11.2454 12.2917H6.66211C6.31693 12.2917 6.03711 12.0118 6.03711 11.6667Z" fill="#15181D" style="fill:#15181D;fill:color(display-p3 0.0824 0.0941 0.1137);fill-opacity:1;"/>
</svg>
