<svg width="20" height="20" viewBox="0 0 20 20" fill="none" xmlns="http://www.w3.org/2000/svg">
<path d="M17.7323 1.4542H17.6749C17.4271 1.46853 13.7833 1.70203 11.7596 2.93507C11.3254 3.20134 11.1882 3.71135 11.0981 4.58799C10.9628 4.43582 10.7977 4.31298 10.6132 4.22702C10.4286 4.14107 10.2283 4.09383 10.0248 4.08822C9.72184 4.09145 9.42884 4.19681 9.19321 4.38727C8.4497 4.97716 5.91604 7.09503 4.81204 9.64713C3.45611 12.7891 3.67937 15.1016 3.68961 15.1978C3.68961 15.2224 3.70395 15.2449 3.70804 15.2695L4.26721 15.8922H4.29384C4.60324 15.9648 4.92027 15.9999 5.23807 15.9966C6.81112 15.9966 10.0719 15.3822 14.2503 11.3041C17.976 7.66444 18.484 3.02314 18.5372 2.38205C18.5446 2.34625 18.5494 2.30997 18.5516 2.27349C18.5532 2.16544 18.5332 2.05816 18.4926 1.95801C18.452 1.85786 18.3917 1.76688 18.3153 1.69047C18.2389 1.61406 18.1479 1.55377 18.0478 1.51318C17.9476 1.4726 17.8403 1.45254 17.7323 1.4542Z" stroke="#15181D" style="stroke:#15181D;stroke:color(display-p3 0.0824 0.0941 0.1137);stroke-opacity:1;" stroke-width="1.25" stroke-linejoin="round"/>
<path d="M10.9471 8.2938C8.70773 9.84354 4.07979 14.3836 2.22656 18.5459" stroke="#15181D" style="stroke:#15181D;stroke:color(display-p3 0.0824 0.0941 0.1137);stroke-opacity:1;" stroke-width="1.25" stroke-linecap="round"/>
</svg>