<svg width="14" height="15" viewBox="0 0 14 15" fill="none" xmlns="http://www.w3.org/2000/svg">
<path d="M3.98094 10.1127L6.29289 7.80073L3.98104 5.48888L4.68814 4.78177L7 7.09363L9.31185 4.78177L10.019 5.48888L7.7071 7.80073L10.0191 10.1127L9.31194 10.8198L7 8.50784L4.68805 10.8198L3.98094 10.1127Z" fill="#E37318" style="fill:#E37318;fill:color(display-p3 0.8902 0.4510 0.0941);fill-opacity:1;"/>
<path d="M7 0.800781C10.866 0.800782 14 3.93479 14 7.80078C14 11.6668 10.866 14.8008 7 14.8008C3.134 14.8008 -2.14186e-06 11.6668 0 7.80078C1.18292e-06 3.93479 3.13401 0.800779 7 0.800781ZM7 1.80078C3.68629 1.80078 1 4.48707 1 7.80078C0.999999 11.1145 3.68629 13.8008 7 13.8008C10.3137 13.8008 13 11.1145 13 7.80078C13 4.48708 10.3137 1.80078 7 1.80078Z" fill="#E37318" style="fill:#E37318;fill:color(display-p3 0.8902 0.4510 0.0941);fill-opacity:1;"/>
</svg>
