<svg width="17" height="16" viewBox="0 0 17 16" fill="none" xmlns="http://www.w3.org/2000/svg">
<g opacity="0.9">
<path d="M8.5 1C12.366 1 15.5 4.13401 15.5 8C15.5 11.866 12.366 15 8.5 15C4.634 15 1.5 11.866 1.5 8C1.5 4.134 4.63401 0.999998 8.5 1ZM8.5 2C5.18629 2 2.5 4.68629 2.5 8C2.5 11.3137 5.18629 14 8.5 14C11.8137 14 14.5 11.3137 14.5 8C14.5 4.68629 11.8137 2 8.5 2Z" fill="#0052D9" style="fill:#0052D9;fill:color(display-p3 0.0000 0.3216 0.8510);fill-opacity:1;"/>
<path d="M7.5 4.5V8.38893L10.1464 11.0354L10.8536 10.3283L8.5 7.97471V4.5H7.5Z" fill="#0052D9" style="fill:#0052D9;fill:color(display-p3 0.0000 0.3216 0.8510);fill-opacity:1;"/>
</g>
</svg>
