<svg width="14" height="15" viewBox="0 0 14 15" fill="none" xmlns="http://www.w3.org/2000/svg">
<path d="M3.5 7.8066L6 10.3071L10.5 5.8076L9.7925 5.1001L6 8.8931L4.2065 7.1001L3.5 7.8066Z" fill="#32BD41" style="fill:#32BD41;fill:color(display-p3 0.1961 0.7412 0.2549);fill-opacity:1;"/>
<path d="M3.11101 1.77981C4.26216 1.01064 5.61553 0.600098 7 0.600098C8.85652 0.600098 10.637 1.3376 11.9497 2.65035C13.2625 3.9631 14 5.74358 14 7.6001C14 8.98457 13.5895 10.3379 12.8203 11.4891C12.0511 12.6402 10.9579 13.5374 9.67879 14.0673C8.3997 14.5971 6.99224 14.7357 5.63437 14.4656C4.2765 14.1955 3.02922 13.5288 2.05026 12.5498C1.07129 11.5709 0.404603 10.3236 0.134506 8.96573C-0.13559 7.60786 0.00303298 6.2004 0.532846 4.92131C1.06266 3.64223 1.95987 2.54898 3.11101 1.77981ZM3.66658 12.5889C4.65328 13.2482 5.81332 13.6001 7 13.6001C8.5913 13.6001 10.1174 12.968 11.2426 11.8427C12.3679 10.7175 13 9.1914 13 7.6001C13 6.41341 12.6481 5.25337 11.9888 4.26668C11.3295 3.27998 10.3925 2.51095 9.2961 2.05682C8.19975 1.60269 6.99335 1.48387 5.82946 1.71539C4.66558 1.9469 3.59648 2.51834 2.75736 3.35746C1.91825 4.19657 1.3468 5.26567 1.11529 6.42956C0.88378 7.59344 1.0026 8.79984 1.45673 9.8962C1.91085 10.9926 2.67989 11.9296 3.66658 12.5889Z" fill="#32BD41" style="fill:#32BD41;fill:color(display-p3 0.1961 0.7412 0.2549);fill-opacity:1;"/>
</svg>
