<svg width="16" height="17" viewBox="0 0 16 17" fill="none" xmlns="http://www.w3.org/2000/svg">
<path d="M8 1.2002C11.866 1.2002 15 4.3342 15 8.2002C15 12.0662 11.866 15.2002 8 15.2002C4.134 15.2002 0.999998 12.0662 1 8.20019C1 4.3342 4.13401 1.20019 8 1.2002ZM8 2.2002C4.68629 2.20019 2 4.88649 2 8.20019C2 11.5139 4.68629 14.2002 8 14.2002C11.3137 14.2002 14 11.5139 14 8.2002C14 4.88649 11.3137 2.2002 8 2.2002Z" fill="#DCDCDC" style="fill:#DCDCDC;fill:color(display-p3 0.8627 0.8627 0.8627);fill-opacity:1;"/>
<path d="M4.25 8.9502C3.83582 8.9502 3.5 8.6144 3.5 8.2002C3.5 7.78599 3.83582 7.4502 4.25 7.4502C4.66418 7.4502 5 7.78599 5 8.2002C5 8.6144 4.66418 8.9502 4.25 8.9502Z" fill="#DCDCDC" style="fill:#DCDCDC;fill:color(display-p3 0.8627 0.8627 0.8627);fill-opacity:1;"/>
<path d="M7.25 8.2002C7.25 8.6144 7.58582 8.9502 8 8.9502C8.41418 8.9502 8.75 8.6144 8.75 8.2002C8.75 7.78599 8.41418 7.4502 8 7.4502C7.58582 7.4502 7.25 7.78599 7.25 8.2002Z" fill="#DCDCDC" style="fill:#DCDCDC;fill:color(display-p3 0.8627 0.8627 0.8627);fill-opacity:1;"/>
<path d="M11 8.2002C11 8.6144 11.3358 8.9502 11.75 8.9502C12.1642 8.9502 12.5 8.6144 12.5 8.2002C12.5 7.78599 12.1642 7.4502 11.75 7.4502C11.3358 7.4502 11 7.78599 11 8.2002Z" fill="#DCDCDC" style="fill:#DCDCDC;fill:color(display-p3 0.8627 0.8627 0.8627);fill-opacity:1;"/>
</svg>
