<svg width="24" height="24" viewBox="0 0 24 24" fill="none" xmlns="http://www.w3.org/2000/svg">
  <rect width="24" height="24" rx="4" fill="url(#paint0_linear_2391_34791)" style="" />
  <path
    d="M16.2886 7.09885H13.7277C13.4704 6.38817 12.7964 5.87354 12 5.87354C11.2035 5.87354 10.5296 6.38817 10.2723 7.09885H7.7114C7.03747 7.09885 6.48608 7.65024 6.48608 8.32416V16.9014C6.48608 17.5753 7.03747 18.1267 7.7114 18.1267H16.2886C16.9625 18.1267 17.5139 17.5753 17.5139 16.9014V8.32416C17.5139 7.65025 16.9625 7.09885 16.2886 7.09885ZM12 7.09885C12.3369 7.09885 12.6126 7.37454 12.6126 7.7115C12.6126 8.04846 12.3369 8.32416 12 8.32416C11.663 8.32416 11.3873 8.04847 11.3873 7.71151C11.3873 7.37456 11.663 7.09885 12 7.09885ZM10.7747 15.6761L8.32405 13.2254L9.18789 12.3616L10.7747 13.9422L14.8121 9.90482L15.6759 10.7748L10.7747 15.6761Z"
    fill="white" style="fill:white;fill-opacity:1;" />
  <defs>
    <linearGradient id="paint0_linear_2391_34791" x1="0" y1="0" x2="24" y2="24" gradientUnits="userSpaceOnUse">
      <stop stop-color="#0060FF"
        style="stop-color:#0060FF;stop-color:#0060FF;stop-opacity:1;" />
      <stop offset="1" stop-color="#0092FB"
        style="stop-color:#0092FB;stop-color:#0092FB;stop-opacity:1;" />
    </linearGradient>
  </defs>
</svg>
