<svg width="24" height="24" viewBox="0 0 24 24" fill="none" xmlns="http://www.w3.org/2000/svg">
  <path
    d="M3.75 14.254L3.75004 3.75391H20.2501L20.2501 14.254C20.2501 16.3786 19.1353 18.3475 17.3134 19.4405L11.9997 22.6286L6.68657 19.4406C4.86473 18.3475 3.75 16.3786 3.75 14.254ZM5.25004 5.25391L5.25 14.254C5.25 15.8517 6.08829 17.3323 7.45834 18.1544L11.9997 20.8793L16.5417 18.1543C17.9118 17.3323 18.7501 15.8517 18.7501 14.254L18.7501 5.25391H5.25004ZM10.5 9.75391C10.5 8.92548 11.1716 8.25391 12 8.25391C12.8284 8.25391 13.5 8.92548 13.5 9.75391C13.5 10.5823 12.8284 11.2539 12 11.2539C11.1716 11.2539 10.5 10.5823 10.5 9.75391ZM12 6.75391C10.3431 6.75391 9 8.09705 9 9.75391C9 11.1518 9.95608 12.3264 11.25 12.6594V17.2539H12.75V15.3789H15V13.8789H12.75V12.6594C14.0439 12.3264 15 11.1518 15 9.75391C15 8.09705 13.6569 6.75391 12 6.75391Z"
    fill="#366EF4" style="fill:#366EF4;fill:#366EF4;fill-opacity:1;" />
</svg>
