<svg width="24" height="25" viewBox="0 0 24 25" fill="none" xmlns="http://www.w3.org/2000/svg">
  <rect y="0.753906" width="24" height="24" rx="4" fill="url(#paint0_linear_1996_28694)" style="" />
  <path
    d="M13.0284 9.49457C13.0284 11.0082 11.8013 12.2352 10.2877 12.2352C8.7741 12.2352 7.54706 11.0082 7.54706 9.49457C7.54706 7.98094 8.7741 6.75391 10.2877 6.75391C11.8013 6.75391 13.0284 7.98094 13.0284 9.49457ZM15.0839 16.3466C15.0839 17.8602 12.9366 19.0873 10.2877 19.0873C7.63889 19.0873 5.49158 17.8602 5.49158 16.3466C5.49158 14.833 7.63889 13.606 10.2877 13.606C12.9366 13.606 15.0839 14.833 15.0839 16.3466ZM14.3975 11.5504C15.5327 11.5504 16.453 10.6302 16.453 9.49495C16.453 8.35973 15.5327 7.43945 14.3975 7.43945C14.1502 7.43945 13.9131 7.48311 13.6935 7.56315C14.0172 8.13298 14.2021 8.792 14.2021 9.49419C14.2021 10.1969 14.017 10.8564 13.6928 11.4265C13.9126 11.5067 14.1499 11.5504 14.3975 11.5504ZM15.4109 18.4019C17.1138 18.4019 18.5085 17.4816 18.5085 16.3464C18.5085 15.2112 17.112 14.2909 15.4092 14.2909C15.9118 14.8396 16.2576 15.5286 16.2576 16.3474C16.2576 17.1652 15.9126 17.8535 15.4109 18.4019Z"
    fill="white" style="fill:white;fill-opacity:1;" />
  <defs>
    <linearGradient id="paint0_linear_1996_28694" x1="0" y1="0.753906" x2="24" y2="24.7539"
      gradientUnits="userSpaceOnUse">
      <stop stop-color="#0060FF"
        style="stop-color:#0060FF;stop-color:color(display-p3 0.0000 0.3779 1.0000);stop-opacity:1;" />
      <stop offset="1" stop-color="#0092FB"
        style="stop-color:#0092FB;stop-color:color(display-p3 0.0000 0.5713 0.9849);stop-opacity:1;" />
    </linearGradient>
  </defs>
</svg>
