<svg width="24" height="25" viewBox="0 0 24 25" fill="none" xmlns="http://www.w3.org/2000/svg">
  <g clip-path="url(#clip0_1996_28704)">
    <rect y="0.753906" width="24" height="24" rx="4" fill="#FF9A5C"
      style="fill:#FF9A5C;fill:color(display-p3 1.0000 0.6021 0.3625);fill-opacity:1;" />
    <rect y="0.753906" width="24" height="24" rx="4" fill="#59D8A5"
      style="fill:#59D8A5;fill:color(display-p3 0.3490 0.8471 0.6471);fill-opacity:1;" />
    <path
      d="M18.5832 9.18727L12.2999 6.83727C12.1063 6.76583 11.8935 6.76583 11.6999 6.83727L5.41658 9.18727C4.84991 9.40394 4.84991 10.1539 5.41658 10.3706L11.6999 12.7373C11.8935 12.8087 12.1063 12.8087 12.2999 12.7373L18.5832 10.3873C19.1332 10.1706 19.1332 9.40394 18.5832 9.18727Z"
      fill="white" style="fill:white;fill-opacity:1;" />
    <path
      d="M8.18336 12.4538L11.7167 13.6705C11.8885 13.7359 12.0782 13.7359 12.25 13.6705L15.8167 12.4538C15.8926 12.4239 15.9747 12.413 16.0558 12.4221C16.137 12.4313 16.2146 12.4601 16.282 12.5061C16.3494 12.5521 16.4045 12.614 16.4425 12.6862C16.4805 12.7584 16.5003 12.8389 16.5 12.9205V16.1038C16.5 16.3872 16.3167 16.6038 16.0834 16.7705C15.5 17.1872 14.3167 17.8038 12 17.8038C9.68336 17.8038 8.35002 17.1705 7.95002 16.8205C7.73336 16.6205 7.51669 16.4372 7.51669 16.1372V12.9205C7.51744 12.8409 7.53718 12.7627 7.57427 12.6922C7.61136 12.6218 7.66473 12.5613 7.72993 12.5156C7.79514 12.47 7.8703 12.4406 7.94916 12.4298C8.02803 12.4191 8.10832 12.4273 8.18336 12.4538Z"
      fill="white" style="fill:white;fill-opacity:1;" />
    <path d="M16.9832 9.87047H17.9832V15.7705H16.9832V9.87047Z" fill="white" style="fill:white;fill-opacity:1;" />
  </g>
  <defs>
    <clipPath id="clip0_1996_28704">
      <rect y="0.753906" width="24" height="24" rx="4" fill="white" style="fill:white;fill-opacity:1;" />
    </clipPath>
  </defs>
</svg>
