<svg width="24" height="25" viewBox="0 0 24 25" fill="none" xmlns="http://www.w3.org/2000/svg">
  <rect y="0.753906" width="24" height="24" rx="4" fill="url(#paint0_linear_1996_28751)" style="" />
  <rect y="0.753906" width="24" height="24" rx="4" fill="url(#paint1_linear_1996_28751)" style="" />
  <path
    d="M13.8333 6.0874H15.1666C16.4237 6.0874 17.0522 6.0874 17.4428 6.47793C17.8333 6.86845 17.8333 7.49699 17.8333 8.75407V18.9207H18.5C18.7761 18.9207 19 19.1446 19 19.4207C19 19.6969 18.7761 19.9207 18.5 19.9207H5.16663C4.89048 19.9207 4.66663 19.6969 4.66663 19.4207C4.66663 19.1446 4.89048 18.9207 5.16663 18.9207H5.83329V10.7541C5.83329 9.49699 5.83329 8.86845 6.22382 8.47793C6.61434 8.0874 7.24288 8.0874 8.49996 8.0874H11.1666C12.4237 8.0874 13.0522 8.0874 13.4428 8.47793C13.8333 8.86845 13.8333 9.49699 13.8333 10.7541V18.9207H14.8333V10.7541L14.8333 10.6944C14.8334 10.1173 14.8334 9.58821 14.7756 9.15779C14.7118 8.68382 14.5619 8.18285 14.1499 7.77082C13.7378 7.35879 13.2369 7.20886 12.7629 7.14514C12.3385 7.08808 11.8183 7.08734 11.2506 7.0874C11.3068 6.82923 11.4006 6.63446 11.5572 6.47793C11.9477 6.0874 12.5762 6.0874 13.8333 6.0874ZM7.33329 10.0874C7.33329 10.3635 7.55715 10.5874 7.83329 10.5874H11.8333C12.1094 10.5874 12.3333 10.3635 12.3333 10.0874C12.3333 9.81126 12.1094 9.5874 11.8333 9.5874H7.83329C7.55715 9.5874 7.33329 9.81126 7.33329 10.0874ZM7.33329 12.0874C7.33329 12.3635 7.55715 12.5874 7.83329 12.5874H11.8333C12.1094 12.5874 12.3333 12.3635 12.3333 12.0874C12.3333 11.8113 12.1094 11.5874 11.8333 11.5874H7.83329C7.55715 11.5874 7.33329 11.8113 7.33329 12.0874ZM7.33329 14.0874C7.33329 14.3635 7.55715 14.5874 7.83329 14.5874H11.8333C12.1094 14.5874 12.3333 14.3635 12.3333 14.0874C12.3333 13.8113 12.1094 13.5874 11.8333 13.5874H7.83329C7.55715 13.5874 7.33329 13.8113 7.33329 14.0874ZM9.83329 16.9207C9.55715 16.9207 9.33329 17.1446 9.33329 17.4207V18.9207H10.3333V17.4207C10.3333 17.1446 10.1094 16.9207 9.83329 16.9207Z"
    fill="white" style="fill:white;fill-opacity:1;" />
  <defs>
    <linearGradient id="paint0_linear_1996_28751" x1="0" y1="0.753906" x2="24" y2="24.7539"
      gradientUnits="userSpaceOnUse">
      <stop stop-color="#0060FF"
        style="stop-color:#0060FF;stop-color:color(display-p3 0.0000 0.3779 1.0000);stop-opacity:1;" />
      <stop offset="1" stop-color="#0092FB"
        style="stop-color:#0092FB;stop-color:color(display-p3 0.0000 0.5713 0.9849);stop-opacity:1;" />
    </linearGradient>
    <linearGradient id="paint1_linear_1996_28751" x1="0" y1="0.753906" x2="24" y2="24.7539"
      gradientUnits="userSpaceOnUse">
      <stop stop-color="#2BA471"
        style="stop-color:#2BA471;stop-color:color(display-p3 0.1686 0.6431 0.4431);stop-opacity:1;" />
      <stop offset="1" stop-color="#00CE77"
        style="stop-color:#00CE77;stop-color:color(display-p3 0.0000 0.8072 0.4670);stop-opacity:1;" />
    </linearGradient>
  </defs>
</svg>
