<svg width="24" height="25" viewBox="0 0 24 25" fill="none" xmlns="http://www.w3.org/2000/svg">
  <rect y="0.753906" width="24" height="24" rx="4" fill="url(#paint0_linear_1996_28753)" style="" />
  <path
    d="M16.7373 14.0522V15.3502H16.3046C16.0751 15.3502 15.855 15.4413 15.6927 15.6036C15.5305 15.7659 15.4393 15.986 15.4393 16.2155V18.3788C15.4393 18.6083 15.5305 18.8284 15.6927 18.9907C15.855 19.153 16.0751 19.2442 16.3046 19.2442H18.468C18.6975 19.2442 18.9176 19.153 19.0798 18.9907C19.2421 18.8284 19.3333 18.6083 19.3333 18.3788V16.2155C19.3333 15.986 19.2421 15.7659 19.0798 15.6036C18.9176 15.4413 18.6975 15.3502 18.468 15.3502H18.0353V13.1868C18.0353 12.9573 17.9441 12.7372 17.7818 12.5749C17.6196 12.4127 17.3995 12.3215 17.17 12.3215H12.8431V11.0235H13.7086C13.9381 11.0235 14.1582 10.9323 14.3205 10.77C14.4828 10.6078 14.574 10.3877 14.574 10.1582V7.12949C14.574 6.89999 14.4828 6.67989 14.3205 6.51761C14.1582 6.35533 13.9381 6.26416 13.7086 6.26416H10.68C10.5663 6.26416 10.4538 6.28654 10.3488 6.33003C10.2438 6.37352 10.1484 6.43726 10.0681 6.51761C9.98773 6.59796 9.92399 6.69336 9.8805 6.79834C9.83701 6.90333 9.81463 7.01586 9.81463 7.12949V10.1582C9.81463 10.2718 9.83701 10.3843 9.8805 10.4893C9.92399 10.5943 9.98773 10.6897 10.0681 10.77C10.1484 10.8504 10.2438 10.9141 10.3488 10.9576C10.4538 11.0011 10.5663 11.0235 10.68 11.0235H11.5451V12.3215H7.21863C6.98913 12.3215 6.76903 12.4127 6.60675 12.5749C6.44447 12.7372 6.3533 12.9573 6.3533 13.1868V15.3502H5.92063C5.69113 15.3502 5.47103 15.4413 5.30875 15.6036C5.14647 15.7659 5.0553 15.986 5.0553 16.2155V18.3788C5.0553 18.6083 5.14647 18.8284 5.30875 18.9907C5.47103 19.153 5.69113 19.2442 5.92063 19.2442H8.08396C8.31346 19.2442 8.53356 19.153 8.69585 18.9907C8.85813 18.8284 8.9493 18.6083 8.9493 18.3788V16.2155C8.9493 15.986 8.85813 15.7659 8.69585 15.6036C8.53356 15.4413 8.31346 15.3502 8.08396 15.3502H7.6513V14.0522C7.6513 13.9374 7.69688 13.8274 7.77802 13.7462C7.85916 13.6651 7.96921 13.6195 8.08396 13.6195H11.5451V15.3502H11.1126C10.8831 15.3502 10.663 15.4413 10.5007 15.6036C10.3385 15.7659 10.2473 15.986 10.2473 16.2155V18.3788C10.2473 18.6083 10.3385 18.8284 10.5007 18.9907C10.663 19.153 10.8831 19.2442 11.1126 19.2442H13.276C13.5055 19.2442 13.7256 19.153 13.8878 18.9907C14.0501 18.8284 14.1413 18.6083 14.1413 18.3788V16.2155C14.1413 15.986 14.0501 15.7659 13.8878 15.6036C13.7256 15.4413 13.5055 15.3502 13.276 15.3502H12.8431V13.6195H16.3046C16.3614 13.6195 16.4177 13.6307 16.4702 13.6524C16.5227 13.6742 16.5704 13.706 16.6106 13.7462C16.6507 13.7864 16.6826 13.8341 16.7044 13.8866C16.7261 13.9391 16.7373 13.9953 16.7373 14.0522ZM11.3797 7.59509C11.4322 7.57335 11.4885 7.56216 11.5453 7.56216H12.8433C12.9001 7.56216 12.9564 7.57335 13.0089 7.59509C13.0614 7.61684 13.1091 7.64871 13.1492 7.68888C13.1894 7.72906 13.2213 7.77676 13.243 7.82925C13.2648 7.88175 13.276 7.93801 13.276 7.99483V9.29283C13.276 9.34964 13.2648 9.40591 13.243 9.4584C13.2213 9.51089 13.1894 9.55859 13.1492 9.59877C13.1091 9.63894 13.0614 9.67081 13.0089 9.69256C12.9564 9.7143 12.9001 9.72549 12.8433 9.72549H11.5453C11.4885 9.72549 11.4322 9.7143 11.3797 9.69256C11.3272 9.67081 11.2795 9.63894 11.2394 9.59877C11.1992 9.55859 11.1673 9.51089 11.1456 9.4584C11.1238 9.40591 11.1126 9.34964 11.1126 9.29283V7.99483C11.1126 7.93801 11.1238 7.88175 11.1456 7.82925C11.1673 7.77676 11.1992 7.72906 11.2394 7.68888C11.2795 7.64871 11.3272 7.61684 11.3797 7.59509Z"
    fill="white" style="fill:white;fill-opacity:1;" />
  <defs>
    <linearGradient id="paint0_linear_1996_28753" x1="0" y1="0.753906" x2="24" y2="24.7539"
      gradientUnits="userSpaceOnUse">
      <stop stop-color="#0060FF"
        style="stop-color:#0060FF;stop-color:color(display-p3 0.0000 0.3779 1.0000);stop-opacity:1;" />
      <stop offset="1" stop-color="#0092FB"
        style="stop-color:#0092FB;stop-color:color(display-p3 0.0000 0.5713 0.9849);stop-opacity:1;" />
    </linearGradient>
  </defs>
</svg>
