<svg width="24" height="25" viewBox="0 0 24 25" fill="none" xmlns="http://www.w3.org/2000/svg">
  <rect y="0.753906" width="24" height="24" rx="4" fill="url(#paint0_linear_1996_28682)" style="" />
  <path
    d="M12.5015 12.9431C12.1913 13.1228 11.8087 13.1228 11.4986 12.9431L8.97861 11.4826C8.67001 11.3038 8.48003 10.9741 8.48003 10.6174V7.68995C8.48003 7.33327 8.67001 7.00359 8.97861 6.82474L11.4986 5.36429C11.8087 5.18456 12.1913 5.18456 12.5015 5.36429L15.0215 6.82474C15.3301 7.00359 15.52 7.33327 15.52 7.68995V10.6174C15.52 10.9741 15.3301 11.3038 15.0215 11.4826L12.5015 12.9431ZM16.64 20.1839C16.3307 20.3632 15.9491 20.3637 15.6393 20.1851L13.1007 18.7222C12.7909 18.5437 12.6 18.2134 12.6 17.8558V14.9316C12.6 14.574 12.7909 14.2437 13.1007 14.0652L15.6393 12.6022C15.9491 12.4237 16.3307 12.4242 16.64 12.6035L19.1615 14.0647C19.4701 14.2436 19.66 14.5733 19.66 14.9299V17.8574C19.66 18.2141 19.4701 18.5438 19.1615 18.7226L16.64 20.1839ZM5.83997 17.5698L7.85997 18.7405L9.87997 17.5698V15.2186L7.85997 14.0479L5.83997 15.2186V17.5698ZM10.8814 18.7232L8.36139 20.1836C8.05127 20.3634 7.66867 20.3634 7.35854 20.1836L4.83854 18.7232C4.52994 18.5443 4.33997 18.2146 4.33997 17.858V14.9305C4.33997 14.5738 4.52994 14.2441 4.83854 14.0653L7.35854 12.6048C7.66867 12.4251 8.05127 12.4251 8.36139 12.6048L10.8814 14.0653C11.19 14.2441 11.38 14.5738 11.38 14.9305V17.858C11.38 18.2146 11.19 18.5443 10.8814 18.7232Z"
    fill="white" style="fill:white;fill-opacity:1;" />
  <defs>
    <linearGradient id="paint0_linear_1996_28682" x1="0" y1="0.753906" x2="24" y2="24.7539"
      gradientUnits="userSpaceOnUse">
      <stop stop-color="#366EF4"
        style="stop-color:#366EF4;stop-color:#366EF4;stop-opacity:1;" />
      <stop offset="1" stop-color="#4858fa"
        style="stop-color:#4858fa;stop-color:#4858fa;stop-opacity:1;" />
    </linearGradient>
  </defs>
</svg>
