<svg width="24" height="24" viewBox="0 0 24 24" fill="none" xmlns="http://www.w3.org/2000/svg">
  <path
    d="M12 12.75C14.8995 12.75 17.25 10.3995 17.25 7.5C17.25 4.6005 14.8995 2.25 12 2.25C9.10051 2.25 6.75 4.6005 6.75 7.5C6.75 10.3995 9.10051 12.75 12 12.75ZM12 11.25C9.92893 11.25 8.25 9.57107 8.25 7.5C8.25 5.42893 9.92893 3.75 12 3.75C14.0711 3.75 15.75 5.42893 15.75 7.5C15.75 9.57107 14.0711 11.25 12 11.25ZM18 20.0821L22 22V13H14V22L18 20.0821ZM15.5 19.6173V14.5H20.5V19.6173L18 18.4186L15.5 19.6173ZM3.75 17.6097C6.26152 16.4186 9.05011 15.75 12 15.75V14.25C8.79976 14.25 5.7741 14.9806 3.0553 16.2792C2.55452 16.5183 2.25 17.032 2.25 17.5869V21C2.25 21.4142 2.58579 21.75 3 21.75H12V20.25H3.75V17.6097Z"
    fill="#366EF4" style="fill:#366EF4;fill-opacity:1;" />
</svg>
