<svg width="24" height="25" viewBox="0 0 24 25" fill="none" xmlns="http://www.w3.org/2000/svg">
  <rect y="0.753906" width="24" height="24" rx="4" fill="#59D8A5"
    style="fill:#59D8A5;fill:color(display-p3 0.3490 0.8471 0.6471);fill-opacity:1;" />
  <path fill-rule="evenodd" clip-rule="evenodd"
    d="M10.2878 12.2352C11.8014 12.2352 13.0284 11.0082 13.0284 9.49457C13.0284 7.98094 11.8014 6.75391 10.2878 6.75391C8.77416 6.75391 7.54712 7.98094 7.54712 9.49457C7.54712 11.0082 8.77416 12.2352 10.2878 12.2352ZM12.5516 18.7636C12.3957 18.3373 12.3107 17.8768 12.3107 17.3965C12.3107 16.2029 12.8359 15.1321 13.6678 14.4025C12.8008 13.9103 11.6064 13.6062 10.2877 13.6062C7.63889 13.6062 5.49158 14.8332 5.49158 16.3469C5.49158 17.8605 7.63889 19.0875 10.2877 19.0875C11.1065 19.0875 11.8773 18.9703 12.5516 18.7636ZM16.453 9.4952C16.453 10.6304 15.5327 11.5507 14.3975 11.5507C14.15 11.5507 13.9127 11.5069 13.6929 11.4267C14.017 10.8566 14.2021 10.1971 14.2021 9.49443C14.2021 8.79224 14.0173 8.13323 13.6936 7.56339C13.9132 7.48336 14.1503 7.4397 14.3975 7.4397C15.5327 7.4397 16.453 8.35998 16.453 9.4952Z"
    fill="white" style="fill:white;fill-opacity:1;" />
  <path
    d="M18.7863 15.4224C18.7863 15.4157 18.7797 15.4091 18.773 15.4024C18.7463 15.3624 18.713 15.3224 18.6797 15.2891C18.673 15.2824 18.6663 15.2691 18.6597 15.2624C18.1197 14.6624 17.3263 14.2891 16.453 14.2891C15.613 14.2891 14.8463 14.6357 14.2997 15.1957C13.773 15.7357 13.453 16.4757 13.453 17.2891C13.453 17.8491 13.613 18.3824 13.8863 18.8357C14.033 19.0824 14.2197 19.3091 14.433 19.4957C14.4463 19.5024 14.453 19.5091 14.4597 19.5157C14.493 19.5491 14.5263 19.5757 14.5663 19.6091C14.5663 19.6091 14.5663 19.6091 14.573 19.6091C14.5797 19.6157 14.5863 19.6224 14.593 19.6224C15.093 20.0424 15.7397 20.2891 16.453 20.2891C17.5463 20.2891 18.4997 19.7024 19.0197 18.8357C19.173 18.5757 19.293 18.2891 19.3663 17.9891C19.4263 17.7624 19.453 17.5291 19.453 17.2891C19.453 16.5824 19.2063 15.9291 18.7863 15.4224ZM17.573 17.7757H16.953V18.4224C16.953 18.6957 16.7263 18.9224 16.453 18.9224C16.1797 18.9224 15.953 18.6957 15.953 18.4224V17.7757H15.333C15.0597 17.7757 14.833 17.5491 14.833 17.2757C14.833 17.0024 15.0597 16.7757 15.333 16.7757H15.953V16.1824C15.953 15.9091 16.1797 15.6824 16.453 15.6824C16.7263 15.6824 16.953 15.9091 16.953 16.1824V16.7757H17.573C17.8463 16.7757 18.073 17.0024 18.073 17.2757C18.073 17.5491 17.853 17.7757 17.573 17.7757Z"
    fill="white" style="fill:white;fill-opacity:1;" />
</svg>
