<svg width="24" height="25" viewBox="0 0 24 25" fill="none" xmlns="http://www.w3.org/2000/svg">
  <rect y="0.753906" width="24" height="24" rx="4" fill="#7C8EB3"
    style="fill:#7C8EB3;fill:color(display-p3 0.4843 0.5577 0.7002);fill-opacity:1;" />
  <path fill-rule="evenodd" clip-rule="evenodd"
    d="M11.4986 12.9236C11.8087 13.1033 12.1913 13.1033 12.5014 12.9236L15.0214 11.4631C15.33 11.2843 15.52 10.9546 15.52 10.5979V7.67041C15.52 7.31374 15.33 6.98406 15.0214 6.80521L12.5014 5.34476C12.1913 5.16503 11.8087 5.16503 11.4986 5.34476L8.97858 6.80521C8.66998 6.98406 8.48 7.31374 8.48 7.67042V10.5979C8.48 10.9546 8.66998 11.2843 8.97858 11.4631L11.4986 12.9236ZM19.5453 14.4454C18.9125 14.0215 18.1513 13.7742 17.3324 13.7742C15.1338 13.7742 13.3514 15.5565 13.3514 17.7551C13.3514 18.1725 13.4157 18.5748 13.5348 18.9528L13.1007 18.7027C12.7909 18.5242 12.6 18.1938 12.6 17.8363V14.9121C12.6 14.5545 12.7909 14.2241 13.1007 14.0456L15.6393 12.5827C15.9491 12.4042 16.3306 12.4046 16.64 12.5839L19.1614 14.0452C19.3274 14.1414 19.4591 14.2812 19.5453 14.4454ZM7.85997 18.7205L5.83997 17.5498V15.1986L7.85997 14.0279L9.87997 15.1986V17.5498L7.85997 18.7205ZM8.36139 20.1636L10.8814 18.7031C11.19 18.5243 11.38 18.1946 11.38 17.8379V14.9105C11.38 14.5538 11.19 14.2241 10.8814 14.0453L8.36139 12.5848C8.05127 12.4051 7.66867 12.4051 7.35854 12.5848L4.83854 14.0453C4.52994 14.2241 4.33997 14.5538 4.33997 14.9105V17.8379C4.33997 18.1946 4.52994 18.5243 4.83854 18.7031L7.35854 20.1636C7.66867 20.3433 8.05127 20.3433 8.36139 20.1636Z"
    fill="white" style="fill:white;fill-opacity:1;" />
  <path
    d="M20.0432 16.0308C20.0432 16.0241 20.0365 16.0175 20.0298 16.0108C20.0032 15.9708 19.9698 15.9308 19.9365 15.8975C19.9298 15.8908 19.9232 15.8775 19.9165 15.8708C19.3765 15.2708 18.5832 14.8975 17.7098 14.8975C16.8698 14.8975 16.1032 15.2441 15.5565 15.8041C15.0298 16.3441 14.7098 17.0841 14.7098 17.8975C14.7098 18.4575 14.8698 18.9908 15.1432 19.4441C15.2898 19.6908 15.4765 19.9175 15.6898 20.1041C15.7032 20.1108 15.7098 20.1175 15.7165 20.1241C15.7498 20.1575 15.7832 20.1841 15.8232 20.2175C15.8232 20.2175 15.8232 20.2175 15.8298 20.2175C15.8365 20.2241 15.8432 20.2308 15.8498 20.2308C16.3498 20.6508 16.9965 20.8975 17.7098 20.8975C18.8032 20.8975 19.7565 20.3108 20.2765 19.4441C20.4298 19.1841 20.5498 18.8975 20.6232 18.5975C20.6832 18.3708 20.7098 18.1375 20.7098 17.8975C20.7098 17.1908 20.4632 16.5375 20.0432 16.0308ZM18.8298 18.3841H18.2098V19.0308C18.2098 19.3041 17.9832 19.5308 17.7098 19.5308C17.4365 19.5308 17.2098 19.3041 17.2098 19.0308V18.3841H16.5898C16.3165 18.3841 16.0898 18.1575 16.0898 17.8841C16.0898 17.6108 16.3165 17.3841 16.5898 17.3841H17.2098V16.7908C17.2098 16.5175 17.4365 16.2908 17.7098 16.2908C17.9832 16.2908 18.2098 16.5175 18.2098 16.7908V17.3841H18.8298C19.1032 17.3841 19.3298 17.6108 19.3298 17.8841C19.3298 18.1575 19.1098 18.3841 18.8298 18.3841Z"
    fill="white" style="fill:white;fill-opacity:1;" />
</svg>
