<svg width="24" height="25" viewBox="0 0 24 25" fill="none" xmlns="http://www.w3.org/2000/svg">
  <rect y="0.753906" width="24" height="24" rx="4" fill="#5B66FF"
    style="fill:#5B66FF;fill:color(display-p3 0.3583 0.4011 1.0000);fill-opacity:1;" />
  <path fill-rule="evenodd" clip-rule="evenodd"
    d="M15.1667 6.08691H13.8334C12.5763 6.08691 11.9478 6.08691 11.5573 6.47744C11.4007 6.63397 11.3069 6.82874 11.2508 7.08691C11.8184 7.08685 12.3387 7.08759 12.763 7.14465C13.237 7.20837 13.738 7.3583 14.15 7.77033C14.562 8.18236 14.712 8.68333 14.7757 9.1573C14.8336 9.58772 14.8335 10.1168 14.8334 10.6939L14.8334 10.7536V13.6908C15.285 13.513 15.7769 13.4153 16.2917 13.4153C16.8383 13.4153 17.3592 13.5255 17.8334 13.7248V8.75358C17.8334 7.4965 17.8334 6.86796 17.4429 6.47744C17.0524 6.08691 16.4238 6.08691 15.1667 6.08691ZM13.213 19.9202C12.6492 19.2333 12.3107 18.3543 12.3107 17.3962C12.3107 16.1254 12.9062 14.9936 13.8334 14.2647V10.7536C13.8334 9.4965 13.8334 8.86796 13.4429 8.47744C13.0524 8.08691 12.4238 8.08691 11.1667 8.08691H8.50008C7.243 8.08691 6.61446 8.08691 6.22394 8.47744C5.83341 8.86796 5.83341 9.4965 5.83341 10.7536V18.9202H5.16675C4.89061 18.9202 4.66675 19.1441 4.66675 19.4202C4.66675 19.6964 4.89061 19.9202 5.16675 19.9202H13.213ZM7.83341 9.58691C7.55727 9.58691 7.33341 9.81077 7.33341 10.0869C7.33341 10.3631 7.55727 10.5869 7.83341 10.5869H11.8334C12.1096 10.5869 12.3334 10.3631 12.3334 10.0869C12.3334 9.81077 12.1096 9.58691 11.8334 9.58691H7.83341ZM7.83341 11.5869C7.55727 11.5869 7.33341 11.8108 7.33341 12.0869C7.33341 12.3631 7.55727 12.5869 7.83341 12.5869H11.8334C12.1096 12.5869 12.3334 12.3631 12.3334 12.0869C12.3334 11.8108 12.1096 11.5869 11.8334 11.5869H7.83341ZM7.83341 13.5869C7.55727 13.5869 7.33341 13.8108 7.33341 14.0869C7.33341 14.3631 7.55727 14.5869 7.83341 14.5869H11.8334C12.1096 14.5869 12.3334 14.3631 12.3334 14.0869C12.3334 13.8108 12.1096 13.5869 11.8334 13.5869H7.83341ZM10.3334 17.4202C10.3334 17.1441 10.1096 16.9202 9.83342 16.9202C9.55727 16.9202 9.33342 17.1441 9.33342 17.4202V18.9202H10.3334V17.4202Z"
    fill="white" style="fill:white;fill-opacity:1;" />
  <path
    d="M18.762 15.4224C18.762 15.4157 18.7554 15.4091 18.7487 15.4024C18.722 15.3624 18.6887 15.3224 18.6554 15.2891C18.6487 15.2824 18.642 15.2691 18.6354 15.2624C18.0954 14.6624 17.302 14.2891 16.4287 14.2891C15.5887 14.2891 14.822 14.6357 14.2754 15.1957C13.7487 15.7357 13.4287 16.4757 13.4287 17.2891C13.4287 17.8491 13.5887 18.3824 13.862 18.8357C14.0087 19.0824 14.1954 19.3091 14.4087 19.4957C14.422 19.5024 14.4287 19.5091 14.4354 19.5157C14.4687 19.5491 14.502 19.5757 14.542 19.6091C14.542 19.6091 14.542 19.6091 14.5487 19.6091C14.5554 19.6157 14.562 19.6224 14.5687 19.6224C15.0687 20.0424 15.7154 20.2891 16.4287 20.2891C17.522 20.2891 18.4754 19.7024 18.9954 18.8357C19.1487 18.5757 19.2687 18.2891 19.342 17.9891C19.402 17.7624 19.4287 17.5291 19.4287 17.2891C19.4287 16.5824 19.182 15.9291 18.762 15.4224ZM17.5487 17.7757H16.9287V18.4224C16.9287 18.6957 16.702 18.9224 16.4287 18.9224C16.1554 18.9224 15.9287 18.6957 15.9287 18.4224V17.7757H15.3087C15.0354 17.7757 14.8087 17.5491 14.8087 17.2757C14.8087 17.0024 15.0354 16.7757 15.3087 16.7757H15.9287V16.1824C15.9287 15.9091 16.1554 15.6824 16.4287 15.6824C16.702 15.6824 16.9287 15.9091 16.9287 16.1824V16.7757H17.5487C17.822 16.7757 18.0487 17.0024 18.0487 17.2757C18.0487 17.5491 17.8287 17.7757 17.5487 17.7757Z"
    fill="white" style="fill:white;fill-opacity:1;" />
</svg>
