<svg width="24" height="24" viewBox="0 0 24 24" fill="none" xmlns="http://www.w3.org/2000/svg">
  <rect width="24" height="24" rx="4" fill="#FFCE39"
    style="fill:#FFCE39;fill:color(display-p3 1.0000 0.8071 0.2250);fill-opacity:1;" />
  <path
    d="M14.4327 5.91211C15.4734 5.91211 16.3171 6.75631 16.3171 7.79768C16.3171 8.29837 16.1221 8.75349 15.8039 9.09111L16.3987 10.1209C16.516 10.0985 16.6352 10.0872 16.7546 10.0873C17.7954 10.0873 18.6391 10.9315 18.6391 11.9728C18.6391 13.0142 17.7954 13.8584 16.7546 13.8584C16.6952 13.8584 16.6365 13.8557 16.5785 13.8503L15.9312 14.9709C16.1733 15.2881 16.3171 15.6844 16.3171 16.1143C16.3171 17.1557 15.4734 17.9999 14.4327 17.9999C13.6803 17.9999 13.031 17.5588 12.7288 16.921H11.2234C10.9212 17.5588 10.2719 17.9999 9.51956 17.9999C8.4788 17.9999 7.6351 17.1557 7.6351 16.1143C7.6351 15.6396 7.81046 15.2058 8.09992 14.8743L7.4678 13.78C7.29692 13.831 7.11586 13.8584 6.92841 13.8584C5.88765 13.8584 5.04395 13.0142 5.04395 11.9728C5.04395 10.9315 5.88765 10.0873 6.92841 10.0873C7.17626 10.0873 7.41292 10.1351 7.62968 10.2222L8.23387 9.17624C7.86544 8.83208 7.6351 8.3418 7.6351 7.79768C7.6351 6.75631 8.4788 5.91211 9.51956 5.91211C10.4103 5.91211 11.1566 6.5304 11.3534 7.36143H12.5989C12.7956 6.5304 13.542 5.91211 14.4327 5.91211ZM11.2981 13.7755L11.3004 13.7765C11.3139 13.7821 11.3274 13.7877 11.341 13.793L10.7348 14.6732C11.1279 15.0054 11.3832 15.4957 11.4028 16.046H12.5494C12.5679 15.525 12.7977 15.0579 13.1557 14.7277L12.6147 13.8392L12.6196 13.8376C12.4378 13.8949 12.2442 13.9258 12.0434 13.9258C11.7791 13.9258 11.5273 13.8723 11.2981 13.7755ZM13.3362 13.4244L13.3369 13.4238C13.3474 13.4141 13.3579 13.4043 13.3683 13.3943L13.9195 14.2995C14.0865 14.2524 14.2592 14.2286 14.4326 14.2288C14.7229 14.2288 14.9978 14.2944 15.2433 14.4117L15.7357 13.5593C15.343 13.3063 15.0504 12.9114 14.9302 12.4469L13.9096 12.4518L13.9123 12.4404C13.8233 12.8257 13.6184 13.1666 13.3362 13.4244ZM10.1813 12.4689L10.1815 12.4697L8.74488 12.4766C8.65233 12.8114 8.46984 13.1088 8.22507 13.3411L8.81629 14.3645C9.03359 14.277 9.27095 14.2288 9.51955 14.2288C9.66589 14.2288 9.80831 14.2455 9.94505 14.277L10.6216 13.2948L10.6248 13.2983C10.4139 13.0666 10.2589 12.7829 10.1813 12.4689ZM12.0434 10.7607C11.3558 10.7607 10.7983 11.3185 10.7983 12.0065C10.7983 12.6946 11.3558 13.2523 12.0434 13.2523C12.7311 13.2523 13.2885 12.6946 13.2885 12.0065C13.2885 11.3185 12.7311 10.7607 12.0434 10.7607ZM8.99468 9.60913L8.34656 10.7311C8.5592 10.974 8.71052 11.2721 8.77625 11.601L10.1696 11.5943L10.1682 11.601C10.2534 11.2046 10.461 10.8536 10.7495 10.5897C10.7251 10.6121 10.7012 10.635 10.678 10.6586L10.0398 9.61048C9.87453 9.65787 9.7 9.68324 9.51956 9.68324C9.33741 9.68324 9.16129 9.65738 8.99468 9.60913ZM15.071 9.57233C14.8716 9.64411 14.6567 9.68324 14.4327 9.68324C14.348 9.68324 14.2647 9.67765 14.183 9.66684L13.4616 10.7142C13.4549 10.7069 13.4482 10.6996 13.4414 10.6924C13.6757 10.9419 13.844 11.254 13.9186 11.601C13.9169 11.5928 13.9151 11.5846 13.9132 11.5763L14.9129 11.5715C15.008 11.1327 15.2557 10.7507 15.5978 10.4843L15.071 9.57233ZM12.5995 8.23641H11.3528C11.2651 8.60431 11.0698 8.9304 10.8018 9.17943L11.4181 10.1916L11.4099 10.1944C11.6082 10.125 11.8214 10.0873 12.0434 10.0873C12.297 10.0873 12.539 10.1365 12.7606 10.2259C12.754 10.2233 12.7474 10.2206 12.7407 10.218L13.3464 9.33865C12.9781 9.07825 12.7072 8.68897 12.5995 8.23641Z"
    fill="white" style="fill:white;fill-opacity:1;" />
</svg>
