<svg width="24" height="24" viewBox="0 0 24 24" fill="none" xmlns="http://www.w3.org/2000/svg">
<path d="M5.21039 0.246094H13.2364L21.2624 8.27207V20.0435C21.2624 21.8166 19.825 23.2539 18.052 23.2539H5.21039C3.43734 23.2539 2 21.8166 2 20.0435V3.45649C2 1.68344 3.43734 0.246094 5.21039 0.246094Z" fill="#6374E1" style="fill:#6374E1;fill:color(display-p3 0.3882 0.4549 0.8824);fill-opacity:1;"/>
<path d="M13.2365 0.246094L21.2624 8.27207H15.3767C14.1947 8.27207 13.2365 7.31385 13.2365 6.13181V0.246094Z" fill="#ABB7F7" style="fill:#ABB7F7;fill:color(display-p3 0.6706 0.7176 0.9686);fill-opacity:1;"/>
<path d="M11.2917 13.625L8.80094 16.1157C8.71019 16.2065 8.66481 16.2519 8.61248 16.2689C8.56646 16.2838 8.51688 16.2838 8.47085 16.2689C8.41853 16.2519 8.37315 16.2065 8.28239 16.1157L7.42594 15.2593C7.33519 15.1685 7.28981 15.1231 7.23748 15.1061C7.19146 15.0912 7.14188 15.0912 7.09585 15.1061C7.04353 15.1231 6.99815 15.1685 6.90739 15.2593L4.875 17.2917M11.2917 13.625H9.45833M11.2917 13.625V15.4583" stroke="white" style="stroke:white;stroke-opacity:1;" stroke-width="0.6875" stroke-linecap="round" stroke-linejoin="round"/>
<rect x="4.875" y="10.875" width="8.25" height="8.25" rx="0.6875" stroke="white" style="stroke:white;stroke-opacity:1;" stroke-width="0.6875"/>
</svg>
