<svg width="24" height="24" viewBox="0 0 24 24" fill="none" xmlns="http://www.w3.org/2000/svg">
<path d="M5.21039 0.246094H13.2364L21.2624 8.27207V20.0435C21.2624 21.8166 19.825 23.2539 18.052 23.2539H5.21039C3.43734 23.2539 2 21.8166 2 20.0435V3.45649C2 1.68344 3.43734 0.246094 5.21039 0.246094Z" fill="#59D0B5" style="fill:#59D0B5;fill:color(display-p3 0.3490 0.8157 0.7098);fill-opacity:1;"/>
<path d="M13.2365 0.246094L21.2624 8.27207H15.3767C14.1947 8.27207 13.2365 7.31385 13.2365 6.13181V0.246094Z" fill="#9DE7D5" style="fill:#9DE7D5;fill:color(display-p3 0.6157 0.9059 0.8353);fill-opacity:1;"/>
<path d="M9 10.1875C8.05076 10.1875 7.28125 10.957 7.28125 11.9062V12.9375H5.90625C5.7164 12.9375 5.5625 13.0914 5.5625 13.2812V19.4688C5.5625 19.6586 5.7164 19.8125 5.90625 19.8125H12.0938C12.2836 19.8125 12.4375 19.6586 12.4375 19.4688V13.2812C12.4375 13.0914 12.2836 12.9375 12.0938 12.9375H10.7188V11.9062C10.7188 10.957 9.94924 10.1875 9 10.1875ZM10.0312 13.625V15H10.7188V13.625H11.75V19.125H6.25V13.625H7.28125V15H7.96875V13.625H10.0312ZM10.0312 12.9375H7.96875V11.9062C7.96875 11.3367 8.43046 10.875 9 10.875C9.56954 10.875 10.0312 11.3367 10.0312 11.9062V12.9375Z" fill="white" style="fill:white;fill-opacity:1;"/>
</svg>
