<svg width="24" height="25" viewBox="0 0 24 25" fill="none" xmlns="http://www.w3.org/2000/svg">
  <g clip-path="url(#clip0_1996_28718)">
    <rect y="0.753906" width="24" height="24" rx="4" fill="#58B5FA"
      style="fill:#58B5FA;fill:color(display-p3 0.3469 0.7101 0.9794);fill-opacity:1;" />
    <rect y="0.753906" width="24" height="24" rx="4" fill="#FF9A5C"
      style="fill:#FF9A5C;fill:color(display-p3 1.0000 0.6021 0.3625);fill-opacity:1;" />
    <rect y="0.753906" width="24" height="24" rx="4" fill="#58B5FA"
      style="fill:#58B5FA;fill:color(display-p3 0.3451 0.7098 0.9804);fill-opacity:1;" />
    <path
      d="M17.3348 19.3451C17.6528 19.3444 17.9575 19.2177 18.1823 18.9929C18.4071 18.768 18.5336 18.4632 18.5342 18.1453V13.132C17.4863 13.8507 15.4508 14.3207 12.9321 14.4251V15.9596C12.9316 16.0432 12.8642 16.1102 12.7806 16.1106H11.0722C11.0323 16.1103 10.9941 16.0943 10.9659 16.066C10.9377 16.0377 10.9218 15.9995 10.9216 15.9596V14.4268C9.42392 14.3957 7.93809 14.154 6.50776 13.709C6.0886 13.5698 5.68897 13.3768 5.31988 13.1346V18.1453C5.32032 18.463 5.44658 18.7676 5.67102 18.9924C5.89546 19.2172 6.19982 19.344 6.51751 19.3451H17.3348ZM12.8705 13.5206C15.2272 13.426 17.1618 12.9937 18.0488 12.365C18.3594 12.1444 18.5342 11.9161 18.5342 11.6871V9.62226C18.5336 9.30416 18.4071 8.99924 18.1822 8.77422C17.9574 8.54921 17.6525 8.42244 17.3344 8.42166H15.4703V6.96735C15.4703 6.55923 15.1733 6.2122 14.7703 6.14941H9.08121C8.67818 6.21263 8.38078 6.55923 8.37951 6.96735V8.4225H6.51624C6.19871 8.42273 5.89424 8.54891 5.66963 8.77336C5.44502 8.9978 5.31863 9.30219 5.31818 9.61972V11.6858C5.32975 11.799 5.36584 11.9084 5.42394 12.0062C5.48203 12.1041 5.56074 12.1882 5.6546 12.2526C5.99939 12.5202 6.38935 12.7238 6.806 12.8537C8.46916 13.345 10.1983 13.5762 11.9321 13.5389C12.2447 13.5399 12.5573 13.5338 12.8697 13.5206H12.8705ZM9.73454 8.4225V7.62493C9.73466 7.56803 9.75731 7.51349 9.79754 7.47326C9.83778 7.43303 9.89231 7.41037 9.94921 7.41026H13.9036C13.9603 7.41082 14.0144 7.43364 14.0545 7.4738C14.0945 7.51396 14.1171 7.56824 14.1174 7.62493V8.4225H9.73497H9.73454Z"
      fill="white" style="fill:white;fill-opacity:1;" />
  </g>
  <defs>
    <clipPath id="clip0_1996_28718">
      <rect y="0.753906" width="24" height="24" rx="4" fill="white" style="fill:white;fill-opacity:1;" />
    </clipPath>
  </defs>
</svg>
