<svg width="24" height="24" viewBox="0 0 24 24" fill="none" xmlns="http://www.w3.org/2000/svg">
  <path
    d="M0 4.75391C0 2.54477 1.79086 0.753906 4 0.753906H20C22.2091 0.753906 24 2.54477 24 4.75391V20.7539C24 22.963 22.2091 24.7539 20 24.7539H4C1.79086 24.7539 0 22.963 0 20.7539V4.75391Z"
    fill="#366EF4" style="fill:#366EF4;fill:#366EF4;fill-opacity:1;" />
  <path
    d="M8.6273 7.92528C8.49978 8.56081 8.4725 9.35636 8.58215 10.3504C8.46994 10.3037 8.27918 10.3617 8.41383 10.9676C8.54849 11.5736 8.89074 11.9963 9.04504 12.1318C9.1292 12.576 9.50231 13.6159 10.3215 14.2218C10.8405 14.6426 10.602 16.2277 8.82061 16.6064C8.54754 16.6644 8.28733 16.7139 8.04083 16.7608C6.67925 17.0197 5.73605 17.1991 5.356 18.3036C4.99692 19.3472 4.73882 20.085 4.65466 20.3235H12H19.3453C19.2611 20.085 19.0031 19.3472 18.644 18.3036C18.2639 17.1991 17.3207 17.0197 15.9591 16.7608C15.7126 16.7139 15.4524 16.6644 15.1794 16.6064C13.398 16.2277 13.1595 14.6426 13.6785 14.2218C14.4977 13.6159 14.8708 12.576 14.9549 12.1318C15.1092 11.9963 15.4515 11.5736 15.5861 10.9676C15.7208 10.3617 15.53 10.3037 15.4178 10.3504C15.9039 5.94359 13.6989 5.43816 12 5.48085C11.5904 5.47056 11.1513 5.49213 10.7277 5.59257C9.83167 5.57748 9.3189 5.33202 9.15621 5.18408C8.60481 5.72616 8.57176 7.19412 8.6273 7.92528Z"
    fill="white" style="fill:white;fill-opacity:1;" />
</svg>
