<svg width="24" height="24" viewBox="0 0 24 24" fill="none" xmlns="http://www.w3.org/2000/svg">
<path d="M5.21039 0.246094H13.2364L21.2624 8.27207V20.0435C21.2624 21.8166 19.825 23.2539 18.052 23.2539H5.21039C3.43734 23.2539 2 21.8166 2 20.0435V3.45649C2 1.68344 3.43734 0.246094 5.21039 0.246094Z" fill="#4183F7" style="fill:#4183F7;fill:color(display-p3 0.2549 0.5137 0.9686);fill-opacity:1;"/>
<path d="M13.2365 0.246094L21.2624 8.27207H15.3767C14.1947 8.27207 13.2365 7.31385 13.2365 6.13181V0.246094Z" fill="#97BCFE" style="fill:#97BCFE;fill:color(display-p3 0.5922 0.7373 0.9961);fill-opacity:1;"/>
<path d="M6.24933 10.8745V12.2495H5.56183C5.17948 12.2495 4.87433 12.5547 4.87433 12.937V16.3745C4.87433 16.7569 5.17948 17.062 5.56183 17.062H6.24933V19.1245H11.7493V17.062H12.4368C12.8192 17.062 13.1243 16.7569 13.1243 16.3745V12.937C13.1243 12.5547 12.8192 12.2495 12.4368 12.2495H11.7493V10.8745H6.24933ZM11.0618 12.2495H6.93683V11.562H11.0618V12.2495ZM5.56183 12.937H12.4368V16.3745H11.7493V14.9995H6.24933V16.3745H5.56183V12.937ZM6.93683 18.437V15.687H11.0618V18.437H6.93683Z" fill="white" style="fill:white;fill-opacity:1;"/>
</svg>
