<svg width="24" height="24" viewBox="0 0 24 24" fill="none" xmlns="http://www.w3.org/2000/svg">
<path d="M5.21039 0.246094H13.2364L21.2624 8.27207V20.0435C21.2624 21.8166 19.825 23.2539 18.052 23.2539H5.21039C3.43734 23.2539 2 21.8166 2 20.0435V3.45649C2 1.68344 3.43734 0.246094 5.21039 0.246094Z" fill="#0CAE64" style="fill:#0CAE64;fill:color(display-p3 0.0471 0.6824 0.3922);fill-opacity:1;"/>
<path d="M13.2365 0.246094L21.2624 8.27207H15.3767C14.1947 8.27207 13.2365 7.31385 13.2365 6.13181V0.246094Z" fill="#73D4A8" style="fill:#73D4A8;fill:color(display-p3 0.4510 0.8314 0.6588);fill-opacity:1;"/>
<path d="M7.625 11.2188C7.625 11.0289 7.7789 10.875 7.96875 10.875H10.0312C10.2211 10.875 10.375 11.0289 10.375 11.2188V13.2812C10.375 13.4711 10.2211 13.625 10.0312 13.625H9.34375V15H11.4062C11.7859 15 12.0938 15.3078 12.0938 15.6875V16.375H12.7812C12.9711 16.375 13.125 16.5289 13.125 16.7188V18.7812C13.125 18.9711 12.9711 19.125 12.7812 19.125H10.7188C10.5289 19.125 10.375 18.9711 10.375 18.7812V16.7188C10.375 16.5289 10.5289 16.375 10.7188 16.375H11.4062V15.6875H6.59375V16.375H7.28125C7.4711 16.375 7.625 16.5289 7.625 16.7188V18.7812C7.625 18.9711 7.4711 19.125 7.28125 19.125H5.21875C5.0289 19.125 4.875 18.9711 4.875 18.7812V16.7188C4.875 16.5289 5.0289 16.375 5.21875 16.375H5.90625V15.6875C5.90625 15.3078 6.21405 15 6.59375 15H8.65625V13.625H7.96875C7.7789 13.625 7.625 13.4711 7.625 13.2812V11.2188ZM8.3125 12.9375H9.6875V11.5625H8.3125V12.9375ZM5.5625 17.0625V18.4375H6.9375V17.0625H5.5625ZM11.0625 17.0625V18.4375H12.4375V17.0625H11.0625Z" fill="white" style="fill:white;fill-opacity:1;"/>
</svg>
