<svg width="24" height="25" viewBox="0 0 24 25" fill="none" xmlns="http://www.w3.org/2000/svg">
  <g clip-path="url(#clip0_1996_28733)">
    <rect y="0.753906" width="24" height="24" rx="4" fill="#FF9A5C"
      style="fill:#FF9A5C;fill:color(display-p3 1.0000 0.6021 0.3625);fill-opacity:1;" />
    <rect y="0.753906" width="24" height="24" rx="4" fill="#7C8EB3"
      style="fill:#7C8EB3;fill:color(display-p3 0.4863 0.5569 0.7020);fill-opacity:1;" />
    <path fill-rule="evenodd" clip-rule="evenodd"
      d="M17.091 6.96324C17.091 6.68424 17.3236 6.40524 17.6026 6.35857C18.021 6.26557 18.3466 6.54457 18.3 6.96324V17.1496C18.3005 17.4917 18.2336 17.8307 18.1029 18.1469C17.9722 18.4631 17.7804 18.7504 17.5385 18.9924C17.2965 19.2343 17.0092 19.4261 16.693 19.5568C16.3767 19.6875 16.0378 19.7545 15.6956 19.7539H7.41631C6.43965 19.7539 5.69531 18.9632 5.69531 18.0329V7.66091C5.69531 6.59124 6.57898 5.75391 7.60231 5.75391H13.9746C15.0443 5.75391 15.8816 6.63757 15.8813 7.66091V13.3352C15.8827 13.6654 15.8187 13.9927 15.693 14.298C15.5673 14.6033 15.3824 14.8808 15.1489 15.1143C14.9154 15.3478 14.638 15.5328 14.3327 15.6585C14.0274 15.7842 13.7002 15.8483 13.37 15.8469H7.46298C7.18365 15.8469 6.99765 16.0796 6.99765 16.3122V18.0329C6.99765 18.2659 7.18398 18.4982 7.46298 18.4982H15.7423C16.0999 18.498 16.4428 18.3558 16.6957 18.1029C16.9485 17.8501 17.0907 17.5072 17.091 17.1496V6.96324ZM10.6256 10.4979V10.9166V10.9172H11.23C11.1836 11.3822 11.0906 11.8476 10.951 12.2196C10.765 12.5916 10.5326 12.9172 10.207 13.1499C10.3466 13.2429 10.4863 13.3359 10.6256 13.4756C10.9976 13.0569 11.2303 12.6849 11.3696 12.3126C11.5093 11.9402 11.5556 11.4752 11.6023 10.8706H12.3466V13.4752H12.7653V10.8239H13.463V10.4052H12.7653V8.77724H13.3236V8.40524H12.626V8.35857H10.6723V8.87024H11.2303V10.4979H10.6256ZM8.53265 8.49791V8.82324H9.23031C9.23031 9.10224 9.13731 9.38124 9.04431 9.61391C8.95098 9.84657 8.81165 10.0789 8.71864 10.2186C8.57898 10.4046 8.43931 10.5442 8.25331 10.7302C8.29981 10.7999 8.34631 10.8581 8.39281 10.9162C8.43931 10.9744 8.48581 11.0326 8.53231 11.1022C8.59635 11.017 8.66039 10.9414 8.71993 10.8712C8.79025 10.7882 8.85429 10.7127 8.90465 10.6372V13.0092H9.32331V12.1256H9.92798V12.5442H10.3463V9.98624H9.32331C9.44343 9.70614 9.52904 9.3575 9.60981 9.02853C9.62295 8.97501 9.63596 8.92201 9.64898 8.86991H10.393V8.49791H8.53265ZM8.20699 17.7538H14.7187C15.0907 17.7538 15.3237 17.4748 15.3233 17.1495C15.3233 16.8238 15.0443 16.5448 14.7187 16.5448H8.20699C7.88133 16.5448 7.60233 16.8235 7.60233 17.1495C7.60233 17.4748 7.88133 17.7538 8.20699 17.7538ZM9.92799 10.3118H9.32332V11.7071H9.92799V10.3118ZM12.3467 8.73047H11.6023V10.3585H12.3467V8.73047Z"
      fill="white" style="fill:white;fill-opacity:1;" />
  </g>
  <defs>
    <clipPath id="clip0_1996_28733">
      <rect y="0.753906" width="24" height="24" rx="4" fill="white" style="fill:white;fill-opacity:1;" />
    </clipPath>
  </defs>
</svg>
