<svg width="24" height="25" viewBox="0 0 24 25" fill="none" xmlns="http://www.w3.org/2000/svg">
  <g clip-path="url(#clip0_1996_28696)">
    <rect y="0.753906" width="24" height="24" rx="4" fill="#FF9A5C"
      style="fill:#FF9A5C;fill:color(display-p3 1.0000 0.6021 0.3625);fill-opacity:1;" />
    <path
      d="M5 12.6662C5 11.8349 5.30625 11.0912 5.91875 10.4349C6.05 10.3037 6.18125 10.1287 6.26875 9.9974C7.1 8.9474 8.0625 8.02865 9.06875 7.15365C9.375 6.89115 9.6375 6.62865 9.94375 6.4099C10.3812 6.0599 10.9062 5.84115 11.5187 5.75365C12.5687 5.6224 13.4875 5.92865 14.275 6.6724C14.5813 6.9349 14.8875 7.1974 15.2375 7.4599C16.2437 8.3349 17.1625 9.25365 17.95 10.3037C18.0813 10.4787 18.2563 10.6537 18.3875 10.8724C18.8688 11.5724 19.0437 12.4037 18.9125 13.2349C18.825 13.9349 18.5187 14.5037 18.0375 15.0287L17.25 15.9474C16.6812 16.6037 16.1125 17.2162 15.4563 17.7849C15.1062 18.0912 14.7563 18.3537 14.4062 18.6599C14.1875 18.8349 14.0125 19.0099 13.7937 19.1412C13.05 19.6224 12.2625 19.7974 11.3875 19.6662C10.6875 19.5787 10.1188 19.2724 9.59375 18.7912C9.4625 18.6599 9.33125 18.5724 9.15625 18.4412C8.28125 17.7412 7.45 16.9537 6.70625 16.0787C6.44375 15.7287 6.1375 15.4224 5.875 15.0724C5.83125 14.9412 5.65625 14.7224 5.525 14.5037C5.175 13.9787 5 13.3662 5 12.6662ZM10.8187 13.9349V16.6912C10.8187 16.9974 10.9937 17.1724 11.3 17.1724H12.7C12.7875 17.1724 12.875 17.1287 12.9188 17.0849C13.0938 16.9099 13.1813 16.6912 13.1813 16.4287V14.0224C13.1813 13.9349 13.1812 13.9349 13.2688 13.9349H16.025C16.2438 13.9349 16.4188 13.7599 16.4625 13.5412V12.0974C16.4625 12.0099 16.4187 11.9224 16.375 11.8349C16.2875 11.7037 16.1125 11.6599 15.9375 11.6599H13.1813V11.5724V8.90365C13.1813 8.55365 13.0063 8.37865 12.6562 8.37865H11.3438C11.2562 8.37865 11.1687 8.37865 11.0812 8.4224C10.9062 8.5099 10.8187 8.6849 10.8187 8.8599V11.6162H8.0625C7.75625 11.6162 7.58125 11.7912 7.58125 12.0974V13.4537C7.58125 13.5849 7.625 13.6724 7.66875 13.7599C7.75625 13.8912 7.93125 13.9349 8.10625 13.9349H10.8187Z"
      fill="white" style="fill:white;fill-opacity:1;" />
  </g>
  <defs>
    <clipPath id="clip0_1996_28696">
      <rect y="0.753906" width="24" height="24" rx="4" fill="white" style="fill:white;fill-opacity:1;" />
    </clipPath>
  </defs>
</svg>
