<svg width="24" height="24" viewBox="0 0 24 24" fill="none" xmlns="http://www.w3.org/2000/svg">
  <rect width="24" height="24" rx="4" fill="url(#paint0_linear_2736_50289)" style="" />
  <rect width="24" height="24" rx="4" fill="url(#paint1_linear_2736_50289)" style="" />
  <rect width="24" height="24" rx="4" fill="#FF9A5C"
    style="fill:#FF9A5C;fill:color(display-p3 1.0000 0.6021 0.3625);fill-opacity:1;" />
  <rect width="24" height="24" rx="4" fill="#5B66FF"
    style="fill:#5B66FF;fill:color(display-p3 0.3569 0.4000 1.0000);fill-opacity:1;" />
  <path fill-rule="evenodd" clip-rule="evenodd"
    d="M5.99809 6C5.6299 6 5.33142 6.29848 5.33142 6.66667V10.6667C5.33142 11.0349 5.6299 11.3333 5.99809 11.3333H17.9981C18.3663 11.3333 18.6648 11.0349 18.6648 10.6667V6.66667C18.6648 6.29848 18.3663 6 17.9981 6H5.99809ZM7.33142 7.5C7.60756 7.5 7.83142 7.72386 7.83142 8L7.83142 9.33333C7.83142 9.60948 7.60756 9.83333 7.33142 9.83333C7.05528 9.83333 6.83142 9.60948 6.83142 9.33333V8C6.83142 7.72386 7.05528 7.5 7.33142 7.5ZM9.83142 8C9.83142 7.72386 9.60756 7.5 9.33142 7.5C9.05528 7.5 8.83142 7.72386 8.83142 8V9.33333C8.83142 9.60948 9.05528 9.83333 9.33142 9.83333C9.60756 9.83333 9.83142 9.60948 9.83142 9.33333V8ZM12.6648 8.16667C12.3886 8.16667 12.1648 8.39052 12.1648 8.66667C12.1648 8.94281 12.3886 9.16667 12.6648 9.16667H16.6648C16.9409 9.16667 17.1648 8.94281 17.1648 8.66667C17.1648 8.39052 16.9409 8.16667 16.6648 8.16667H12.6648Z"
    fill="white" style="fill:white;fill-opacity:1;" />
  <path fill-rule="evenodd" clip-rule="evenodd"
    d="M5.99809 12.6665C5.6299 12.6665 5.33142 12.965 5.33142 13.3332V17.3332C5.33142 17.7014 5.6299 17.9998 5.99809 17.9998H17.9981C18.3663 17.9998 18.6648 17.7014 18.6648 17.3332V13.3332C18.6648 12.965 18.3663 12.6665 17.9981 12.6665H5.99809ZM7.33142 14.1665C7.60756 14.1665 7.83142 14.3904 7.83142 14.6665L7.83142 15.9998C7.83142 16.276 7.60756 16.4998 7.33142 16.4998C7.05528 16.4998 6.83142 16.276 6.83142 15.9998V14.6665C6.83142 14.3904 7.05528 14.1665 7.33142 14.1665ZM9.83142 14.6665C9.83142 14.3904 9.60756 14.1665 9.33142 14.1665C9.05528 14.1665 8.83142 14.3904 8.83142 14.6665V15.9998C8.83142 16.276 9.05528 16.4998 9.33142 16.4998C9.60756 16.4998 9.83142 16.276 9.83142 15.9998V14.6665ZM12.6648 14.8332C12.3886 14.8332 12.1648 15.057 12.1648 15.3332C12.1648 15.6093 12.3886 15.8332 12.6648 15.8332H16.6648C16.9409 15.8332 17.1648 15.6093 17.1648 15.3332C17.1648 15.057 16.9409 14.8332 16.6648 14.8332H12.6648Z"
    fill="white" style="fill:white;fill-opacity:1;" />
  <defs>
    <linearGradient id="paint0_linear_2736_50289" x1="0" y1="0" x2="24" y2="24" gradientUnits="userSpaceOnUse">
      <stop stop-color="#0060FF"
        style="stop-color:#0060FF;stop-color:color(display-p3 0.0000 0.3779 1.0000);stop-opacity:1;" />
      <stop offset="1" stop-color="#0092FB"
        style="stop-color:#0092FB;stop-color:color(display-p3 0.0000 0.5713 0.9849);stop-opacity:1;" />
    </linearGradient>
    <linearGradient id="paint1_linear_2736_50289" x1="0" y1="0" x2="24" y2="24" gradientUnits="userSpaceOnUse">
      <stop stop-color="#2BA471"
        style="stop-color:#2BA471;stop-color:color(display-p3 0.1686 0.6431 0.4431);stop-opacity:1;" />
      <stop offset="1" stop-color="#00CE77"
        style="stop-color:#00CE77;stop-color:color(display-p3 0.0000 0.8072 0.4670);stop-opacity:1;" />
    </linearGradient>
  </defs>
</svg>
