<svg width="24" height="24" viewBox="0 0 24 24" fill="none" xmlns="http://www.w3.org/2000/svg">
<path d="M5.21039 0.246094H13.2364L21.2624 8.27207V20.0435C21.2624 21.8166 19.825 23.2539 18.052 23.2539H5.21039C3.43734 23.2539 2 21.8166 2 20.0435V3.45649C2 1.68344 3.43734 0.246094 5.21039 0.246094Z" fill="#FDBD34" style="fill:#FDBD34;fill:color(display-p3 0.9922 0.7412 0.2039);fill-opacity:1;"/>
<path d="M13.2365 0.246094L21.2624 8.27207H15.3767C14.1947 8.27207 13.2365 7.31385 13.2365 6.13181V0.246094Z" fill="#FEDB90" style="fill:#FEDB90;fill:color(display-p3 0.9961 0.8588 0.5647);fill-opacity:1;"/>
<g clip-path="url(#clip0_6430_7379)">
<path d="M10.1786 9.89307H7.82142C7.38749 9.89307 7.03571 10.2448 7.03571 10.6788V11.0716C7.03571 11.5056 7.38749 11.8574 7.82142 11.8574H10.1786C10.6125 11.8574 10.9643 11.5056 10.9643 11.0716V10.6788C10.9643 10.2448 10.6125 9.89307 10.1786 9.89307Z" stroke="white" style="stroke:white;stroke-opacity:1;" stroke-width="0.69" stroke-linecap="round" stroke-linejoin="round"/>
<path d="M11.1607 10.6787H12.3393C12.5477 10.6787 12.7475 10.7615 12.8949 10.9088C13.0422 11.0562 13.125 11.256 13.125 11.4644V19.3216C13.125 19.5299 13.0422 19.7298 12.8949 19.8771C12.7475 20.0245 12.5477 20.1073 12.3393 20.1073H5.66071C5.45233 20.1073 5.25248 20.0245 5.10513 19.8771C4.95778 19.7298 4.875 19.5299 4.875 19.3216V11.4644C4.875 11.256 4.95778 11.0562 5.10513 10.9088C5.25248 10.7615 5.45233 10.6787 5.66071 10.6787H6.83929" stroke="white" style="stroke:white;stroke-opacity:1;" stroke-width="0.69" stroke-linecap="round" stroke-linejoin="round"/>
<path d="M7.42859 16.5715L8.60716 17.3572L10.9643 14.2144" stroke="white" style="stroke:white;stroke-opacity:1;" stroke-width="0.69" stroke-linecap="round" stroke-linejoin="round"/>
</g>
<defs>
<clipPath id="clip0_6430_7379">
<rect width="11" height="11" fill="white" style="fill:white;fill-opacity:1;" transform="translate(3.5 9.5)"/>
</clipPath>
</defs>
</svg>
