<svg width="24" height="24" viewBox="0 0 24 24" fill="none" xmlns="http://www.w3.org/2000/svg">
  <g clip-path="url(#clip0_2797_19483)">
    <rect width="24" height="24" rx="4" fill="url(#paint0_linear_2797_19483)" style="" />
    <path
      d="M11.6154 11.363C11.6154 11.152 11.4448 10.9814 11.2337 10.9814H7.91566C7.70458 10.9814 7.53398 11.152 7.53398 11.363C7.53398 11.5741 7.70458 11.7447 7.91566 11.7447H11.2337C11.4448 11.7447 11.6154 11.5741 11.6154 11.363ZM6.78795 16.8397C6.77783 16.831 6.7706 16.8194 6.76627 16.8079V7.65895C6.76627 7.60257 6.66795 7.14859 7.27663 7.14859H15.1908C15.6954 7.14859 15.7012 7.35534 15.7012 7.65895V10.2122H16.4675L16.453 7.23244C16.453 6.76401 16.067 6.38232 15.5913 6.38232H6.86169C6.38602 6.38232 6 6.76401 6 7.23244V16.7659C6 17.2344 6.38602 17.6161 6.86169 17.6161H11.6169V16.8498H6.78506C6.79084 16.8498 6.79373 16.8455 6.78795 16.8397ZM7.91566 13.0185C7.70458 13.0185 7.53253 13.1905 7.53253 13.4045C7.53253 13.617 7.70458 13.7905 7.91566 13.7905H9.44386C9.65494 13.7905 9.82699 13.6185 9.82699 13.4045C9.82699 13.192 9.65494 13.0185 9.44386 13.0185H7.91566ZM14.7831 11.2705C13.0063 11.2705 11.5663 12.6917 11.5663 14.444C11.5663 16.1963 13.0063 17.6175 14.7831 17.6175C16.56 17.6161 18 16.1963 18 14.444C18 12.6917 16.56 11.2705 14.7831 11.2705ZM14.7831 16.8093C13.4602 16.8093 12.3846 15.7481 12.3846 14.4426C12.3846 13.1385 13.4602 12.0758 14.7831 12.0758C16.106 12.0758 17.1817 13.137 17.1817 14.4426C17.1817 15.7481 16.106 16.8093 14.7831 16.8093ZM15.6839 14.431H14.9292V13.2223C14.9292 13.0156 14.76 12.8493 14.5504 12.8493C14.3407 12.8493 14.1716 13.017 14.1716 13.2223V14.8055C14.1716 15.0122 14.3407 15.1785 14.5504 15.1785H15.6839C15.8935 15.1785 16.0627 15.0108 16.0627 14.8055C16.0627 14.5987 15.8935 14.431 15.6839 14.431ZM12.3846 9.32016C12.3846 9.10907 12.2111 8.93847 11.9986 8.93847H7.92C7.70602 8.93847 7.53398 9.10907 7.53398 9.32016C7.53398 9.53124 7.70747 9.70184 7.92 9.70184H11.9986C12.2111 9.70184 12.3846 9.53124 12.3846 9.32016Z"
      fill="white" style="fill:white;fill-opacity:1;" />
  </g>
  <defs>
    <linearGradient id="paint0_linear_2797_19483" x1="0" y1="0" x2="24" y2="24" gradientUnits="userSpaceOnUse">
      <stop stop-color="#0060FF"
        style="stop-color:#0060FF;stop-color:#0060FF;stop-opacity:1;" />
      <stop offset="1" stop-color="#0092FB"
        style="stop-color:#0092FB;stop-color:#0092FB;stop-opacity:1;" />
    </linearGradient>
    <clipPath id="clip0_2797_19483">
      <rect width="24" height="24" rx="4" fill="white" style="fill:white;fill-opacity:1;" />
    </clipPath>
  </defs>
</svg>
