<svg width="24" height="25" viewBox="0 0 24 25" fill="none" xmlns="http://www.w3.org/2000/svg">
  <g clip-path="url(#clip0_1996_28714)">
    <rect y="0.753906" width="24" height="24" rx="4" fill="#FF9A5C"
      style="fill:#FF9A5C;fill:color(display-p3 1.0000 0.6021 0.3625);fill-opacity:1;" />
    <rect y="0.753906" width="24" height="24" rx="4" fill="#FF9A5C"
      style="fill:#FF9A5C;fill:color(display-p3 1.0000 0.6039 0.3608);fill-opacity:1;" />
    <path
      d="M6.56949 9.92543C6.56949 8.43161 7.80512 7.2207 9.32949 7.2207C10.8546 7.2207 12.0902 8.43161 12.0902 9.92543C12.0902 11.4192 10.8539 12.6302 9.32949 12.6302C7.80512 12.6302 6.56949 11.4192 6.56949 9.92543ZM10.3637 17.3843V17.1974C10.3637 15.8185 11.0822 14.6069 12.1659 13.8927C11.6763 13.6557 11.1396 13.5324 10.5957 13.532H8.29458C6.32512 13.532 4.72876 15.0956 4.72876 17.0251V17.2505C4.72876 18.0396 6.32512 18.0396 8.29458 18.0396H10.4946C10.4051 17.8329 10.3604 17.6096 10.3637 17.3843ZM15.264 9.05852C13.9993 9.05852 12.9731 10.0636 12.9731 11.3036C12.9731 12.5436 13.9993 13.5487 15.264 13.5487C16.5295 13.5487 17.5549 12.5436 17.5549 11.3036C17.5549 10.0636 16.5302 9.05852 15.264 9.05852ZM15.264 9.05852C13.9993 9.05852 12.9731 10.0636 12.9731 11.3036C12.9731 12.5436 13.9993 13.5487 15.264 13.5487C16.5295 13.5487 17.5549 12.5436 17.5549 11.3036C17.5549 10.0636 16.5302 9.05852 15.264 9.05852ZM14.4059 14.2978C12.7709 14.2978 11.4459 15.596 11.4459 17.1974V17.3843C11.4459 18.0389 12.7709 18.0389 14.4059 18.0389H16.3157C17.9499 18.0389 19.2742 18.0149 19.2742 17.3843V17.1974C19.2742 15.596 17.9499 14.2978 16.3157 14.2978H14.4059Z"
      fill="white" style="fill:white;fill-opacity:1;" />
  </g>
  <defs>
    <clipPath id="clip0_1996_28714">
      <rect y="0.753906" width="24" height="24" rx="4" fill="white" style="fill:white;fill-opacity:1;" />
    </clipPath>
  </defs>
</svg>
