<svg width="24" height="24" viewBox="0 0 24 24" fill="#366EF4" xmlns="http://www.w3.org/2000/svg">
<path fill-rule="evenodd" clip-rule="evenodd" d="M3 2C3 1.44772 3.44772 1 4 1H20C20.5523 1 21 1.44772 21 2V10.7759C21 10.8563 20.9516 10.9284 20.8789 10.9628C20.5669 11.1107 20.2745 11.3138 20.0163 11.5719L12.9439 18.6444L12.9155 18.6727L12.9154 18.6727C12.8136 18.7738 12.646 18.9402 12.5071 19.1395C12.3878 19.3104 12.2891 19.4949 12.213 19.6889C12.1243 19.9151 12.0788 20.1469 12.0511 20.2876L12.0433 20.327L11.613 22.4782C11.5934 22.5761 11.5832 22.6745 11.5821 22.7724C11.5807 22.8932 11.4884 23 11.3675 23H4C3.44772 23 3 22.5523 3 22V2ZM7 5C6.44772 5 6 5.44772 6 6C6 6.55228 6.44772 7 7 7H16C16.5523 7 17 6.55228 17 6C17 5.44772 16.5523 5 16 5H7ZM6 10C6 9.44771 6.44772 9 7 9H13C13.5523 9 14 9.44771 14 10C14 10.5523 13.5523 11 13 11H7C6.44772 11 6 10.5523 6 10ZM7 13C6.44772 13 6 13.4477 6 14C6 14.5523 6.44772 15 7 15H9C9.55228 15 10 14.5523 10 14C10 13.4477 9.55228 13 9 13H7Z" fill="#366EF4" style="fill:#366EF4;fill-opacity:1;"/>
<path d="M13.8958 20.4568C13.9311 20.2803 13.9488 20.192 13.9811 20.1097C14.0098 20.0366 14.0469 19.9672 14.0918 19.9028C14.1424 19.8303 14.2061 19.7666 14.3334 19.6393L20.9909 12.9818C21.5431 12.4296 22.4386 12.4296 22.9909 12.9818C23.5432 13.5341 23.5432 14.4296 22.9909 14.9819L16.3334 21.6393C16.2061 21.7666 16.1424 21.8303 16.0699 21.8809C16.0055 21.9258 15.9361 21.9629 15.863 21.9916C15.7807 22.0239 15.6924 22.0415 15.5158 22.0769L13.4907 22.4819L13.8958 20.4568Z" fill="#366EF4" stroke="#366EF4" style="fill:#366EF4;fill-opacity:1;stroke:#366EF4;stroke-opacity:1;" stroke-linecap="round" stroke-linejoin="round"/>
</svg>
