<svg width="24" height="24" viewBox="0 0 24 24" fill="#366EF4" xmlns="http://www.w3.org/2000/svg">
<path fill-rule="evenodd" clip-rule="evenodd" d="M3 2C3 1.44772 3.44772 1 4 1H20C20.5523 1 21 1.44772 21 2V11.777C21 11.9245 20.8455 12.0218 20.7098 11.9641C19.9192 11.6286 19.0496 11.443 18.1367 11.443C14.4964 11.443 11.5454 14.394 11.5454 18.0342C11.5454 19.8234 12.2582 21.446 13.4154 22.6336C13.5443 22.766 13.4541 23 13.2693 23H4C3.44772 23 3 22.5523 3 22V2ZM7 5C6.44772 5 6 5.44772 6 6C6 6.55228 6.44772 7 7 7H16C16.5523 7 17 6.55228 17 6C17 5.44772 16.5523 5 16 5H7ZM6 10C6 9.44771 6.44772 9 7 9H13C13.5523 9 14 9.44771 14 10C14 10.5523 13.5523 11 13 11H7C6.44772 11 6 10.5523 6 10ZM7 13C6.44772 13 6 13.4477 6 14C6 14.5523 6.44772 15 7 15H9C9.55228 15 10 14.5523 10 14C10 13.4477 9.55228 13 9 13H7Z" fill="#366EF4" style="fill:#366EF4;fill-opacity:1;"/>
<path fill-rule="evenodd" clip-rule="evenodd" d="M13.5 18C13.5 15.5147 15.5147 13.5 18 13.5C20.4853 13.5 22.5 15.5147 22.5 18C22.5 18.8805 22.2471 19.702 21.81 20.3957L23.4334 22.0192L22.0192 23.4334L20.3957 21.81C19.702 22.2471 18.8805 22.5 18 22.5C15.5147 22.5 13.5 20.4853 13.5 18ZM18 15.5C16.6193 15.5 15.5 16.6193 15.5 18C15.5 19.3807 16.6193 20.5 18 20.5C19.3807 20.5 20.5 19.3807 20.5 18C20.5 16.6193 19.3807 15.5 18 15.5Z" fill="#366EF4" style="fill:#366EF4;fill-opacity:1;"/>
</svg>

